M48
; DRILL file {KiCad (6.0.11-0)} date 2024 May 30, Thursday 12:09:25
; FORMAT={-:-/ absolute / metric / decimal}
; #@! TF.CreationDate,2024-05-30T12:09:25+08:00
; #@! TF.GenerationSoftware,Kicad,Pcbnew,(6.0.11-0)
; #@! TF.FileFunction,MixedPlating,1,2
FMAT,2
METRIC
; #@! TA.AperFunction,Plated,PTH,ViaDrill
T1C0.400
; #@! TA.AperFunction,NonPlated,NPTH,ComponentDrill
T2C0.800
%
G90
G05
T1
X88.0Y-62.0
X88.0Y-72.0
X88.0Y-82.0
X88.0Y-92.0
X88.0Y-102.0
X88.0Y-112.0
X99.0Y-62.0
X99.0Y-112.0
X99.25Y-83.0
X100.25Y-82.25
X100.25Y-84.0
X101.25Y-81.5
X106.25Y-92.0
X106.3Y-87.0
X108.9Y-84.4
X109.0Y-62.0
X109.0Y-112.0
X111.0Y-86.5
X113.2Y-89.2
X118.0Y-112.0
X118.9Y-81.9
X118.9Y-85.3
X118.9Y-88.7
X118.9Y-92.1
X119.0Y-62.0
X121.5Y-80.0
X123.5Y-85.3
X123.5Y-88.7
X124.5Y-80.8
X124.5Y-92.1
X124.5Y-94.75
X127.1Y-81.9
X129.0Y-62.0
X129.0Y-102.0
X129.0Y-112.0
X129.787Y-81.9
X130.2Y-68.8
X137.0Y-87.0
X140.0Y-62.0
X140.0Y-112.0
X144.0Y-83.0
X144.0Y-91.0
X150.0Y-62.0
X150.0Y-112.0
X152.0Y-83.0
X152.0Y-91.0
X159.1Y-87.0
X160.0Y-62.0
X160.0Y-112.0
X169.0Y-112.0
X170.0Y-62.0
X170.0Y-72.0
X170.0Y-82.0
X170.0Y-92.0
X170.0Y-102.0
T2
X126.25Y-64.25
X129.25Y-64.25
T0
M30
