%TF.GenerationSoftware,KiCad,Pcbnew,(6.0.11-0)*%
%TF.CreationDate,2024-05-30T12:09:29+08:00*%
%TF.ProjectId,tinyAVR-business-card,74696e79-4156-4522-9d62-7573696e6573,rev?*%
%TF.SameCoordinates,Original*%
%TF.FileFunction,Legend,Bot*%
%TF.FilePolarity,Positive*%
%FSLAX46Y46*%
G04 Gerber Fmt 4.6, Leading zero omitted, Abs format (unit mm)*
G04 Created by KiCad (PCBNEW (6.0.11-0)) date 2024-05-30 12:09:29*
%MOMM*%
%LPD*%
G01*
G04 APERTURE LIST*
%ADD10C,0.200000*%
%ADD11C,0.600000*%
G04 APERTURE END LIST*
D10*
X91728214Y-71736428D02*
X91888928Y-70736428D01*
X92263928Y-71450714D01*
X92460357Y-70736428D01*
X92871071Y-71736428D01*
X93335357Y-70879285D02*
X93397857Y-70807857D01*
X93317500Y-70736428D01*
X93255000Y-70807857D01*
X93335357Y-70879285D01*
X93317500Y-70736428D01*
X93433571Y-71665000D02*
X93496071Y-71593571D01*
X93415714Y-71522142D01*
X93353214Y-71593571D01*
X93433571Y-71665000D01*
X93415714Y-71522142D01*
X95755000Y-70807857D02*
X95603214Y-70736428D01*
X95317500Y-70736428D01*
X95183571Y-70807857D01*
X95130000Y-70950714D01*
X95201428Y-71522142D01*
X95290714Y-71665000D01*
X95442500Y-71736428D01*
X95728214Y-71736428D01*
X95862142Y-71665000D01*
X95915714Y-71522142D01*
X95897857Y-71379285D01*
X95165714Y-71236428D01*
X96531785Y-71307857D02*
X97674642Y-71307857D01*
X98228214Y-71736428D02*
X98799642Y-71736428D01*
X98504999Y-72236428D02*
X98344285Y-70950714D01*
X98397857Y-70807857D01*
X98531785Y-70736428D01*
X98674642Y-70736428D01*
X99174642Y-70736428D02*
X99299642Y-71736428D01*
X99362142Y-72236428D02*
X99281785Y-72165000D01*
X99344285Y-72093571D01*
X99424642Y-72165000D01*
X99362142Y-72236428D01*
X99344285Y-72093571D01*
X100013928Y-71736428D02*
X99888928Y-70736428D01*
X99996071Y-71593571D02*
X100076428Y-71665000D01*
X100228214Y-71736428D01*
X100442499Y-71736428D01*
X100576428Y-71665000D01*
X100629999Y-71522142D01*
X100531785Y-70736428D01*
X101246071Y-70736428D02*
X101433571Y-72236428D01*
X101460357Y-71307857D02*
X101817499Y-70736428D01*
X101942499Y-71736428D02*
X101299642Y-71165000D01*
X103040714Y-70807857D02*
X102888928Y-70736428D01*
X102603214Y-70736428D01*
X102469285Y-70807857D01*
X102415714Y-70950714D01*
X102487142Y-71522142D01*
X102576428Y-71665000D01*
X102728214Y-71736428D01*
X103013928Y-71736428D01*
X103147857Y-71665000D01*
X103201428Y-71522142D01*
X103183571Y-71379285D01*
X102451428Y-71236428D01*
X103746071Y-70736428D02*
X103871071Y-71736428D01*
X103835357Y-71450714D02*
X103924642Y-71593571D01*
X104004999Y-71665000D01*
X104156785Y-71736428D01*
X104299642Y-71736428D01*
X104612142Y-70807857D02*
X104746071Y-70736428D01*
X105031785Y-70736428D01*
X105183571Y-70807857D01*
X105272857Y-70950714D01*
X105281785Y-71022142D01*
X105228214Y-71165000D01*
X105094285Y-71236428D01*
X104879999Y-71236428D01*
X104746071Y-71307857D01*
X104692499Y-71450714D01*
X104701428Y-71522142D01*
X104790714Y-71665000D01*
X104942499Y-71736428D01*
X105156785Y-71736428D01*
X105290714Y-71665000D01*
X105906785Y-70879285D02*
X105969285Y-70807857D01*
X105888928Y-70736428D01*
X105826428Y-70807857D01*
X105906785Y-70879285D01*
X105888928Y-70736428D01*
X107254999Y-70807857D02*
X107103214Y-70736428D01*
X106817499Y-70736428D01*
X106683571Y-70807857D01*
X106621071Y-70879285D01*
X106567499Y-71022142D01*
X106621071Y-71450714D01*
X106710357Y-71593571D01*
X106790714Y-71665000D01*
X106942499Y-71736428D01*
X107228214Y-71736428D01*
X107362142Y-71665000D01*
X108103214Y-70736428D02*
X107969285Y-70807857D01*
X107906785Y-70879285D01*
X107853214Y-71022142D01*
X107906785Y-71450714D01*
X107996071Y-71593571D01*
X108076428Y-71665000D01*
X108228214Y-71736428D01*
X108442499Y-71736428D01*
X108576428Y-71665000D01*
X108638928Y-71593571D01*
X108692499Y-71450714D01*
X108638928Y-71022142D01*
X108549642Y-70879285D01*
X108469285Y-70807857D01*
X108317499Y-70736428D01*
X108103214Y-70736428D01*
X109246071Y-70736428D02*
X109371071Y-71736428D01*
X109353214Y-71593571D02*
X109433571Y-71665000D01*
X109585357Y-71736428D01*
X109799642Y-71736428D01*
X109933571Y-71665000D01*
X109987142Y-71522142D01*
X109888928Y-70736428D01*
X109987142Y-71522142D02*
X110076428Y-71665000D01*
X110228214Y-71736428D01*
X110442499Y-71736428D01*
X110576428Y-71665000D01*
X110629999Y-71522142D01*
X110531785Y-70736428D01*
X92513928Y-69321428D02*
X92362142Y-68107142D01*
X92272857Y-67964285D01*
X92192500Y-67892857D01*
X92040714Y-67821428D01*
X91826428Y-67821428D01*
X91692500Y-67892857D01*
X92397857Y-68392857D02*
X92246071Y-68321428D01*
X91960357Y-68321428D01*
X91826428Y-68392857D01*
X91763928Y-68464285D01*
X91710357Y-68607142D01*
X91763928Y-69035714D01*
X91853214Y-69178571D01*
X91933571Y-69250000D01*
X92085357Y-69321428D01*
X92371071Y-69321428D01*
X92505000Y-69250000D01*
X93121071Y-68464285D02*
X93183571Y-68392857D01*
X93103214Y-68321428D01*
X93040714Y-68392857D01*
X93121071Y-68464285D01*
X93103214Y-68321428D01*
X93219285Y-69250000D02*
X93281785Y-69178571D01*
X93201428Y-69107142D01*
X93138928Y-69178571D01*
X93219285Y-69250000D01*
X93201428Y-69107142D01*
X95728214Y-69321428D02*
X95576428Y-68107142D01*
X95487142Y-67964285D01*
X95406785Y-67892857D01*
X95255000Y-67821428D01*
X95040714Y-67821428D01*
X94906785Y-67892857D01*
X95612142Y-68392857D02*
X95460357Y-68321428D01*
X95174642Y-68321428D01*
X95040714Y-68392857D01*
X94978214Y-68464285D01*
X94924642Y-68607142D01*
X94978214Y-69035714D01*
X95067500Y-69178571D01*
X95147857Y-69250000D01*
X95299642Y-69321428D01*
X95585357Y-69321428D01*
X95719285Y-69250000D01*
X96317500Y-68321428D02*
X96442500Y-69321428D01*
X96505000Y-69821428D02*
X96424642Y-69750000D01*
X96487142Y-69678571D01*
X96567500Y-69750000D01*
X96505000Y-69821428D01*
X96487142Y-69678571D01*
X96942500Y-69321428D02*
X97513928Y-69321428D01*
X97219285Y-69821428D02*
X97058571Y-68535714D01*
X97112142Y-68392857D01*
X97246071Y-68321428D01*
X97388928Y-68321428D01*
X97888928Y-68321428D02*
X98076428Y-69821428D01*
X98531785Y-68321428D02*
X98630000Y-69107142D01*
X98576428Y-69250000D01*
X98442500Y-69321428D01*
X98228214Y-69321428D01*
X98076428Y-69250000D01*
X97996071Y-69178571D01*
X100013928Y-69321428D02*
X99888928Y-68321428D01*
X99371071Y-69321428D02*
X99272857Y-68535714D01*
X99326428Y-68392857D01*
X99460357Y-68321428D01*
X99674642Y-68321428D01*
X99826428Y-68392857D01*
X99906785Y-68464285D01*
X100603214Y-68321428D02*
X100790714Y-69821428D01*
X100719285Y-69250000D02*
X100871071Y-69321428D01*
X101156785Y-69321428D01*
X101290714Y-69250000D01*
X101353214Y-69178571D01*
X101406785Y-69035714D01*
X101353214Y-68607142D01*
X101263928Y-68464285D01*
X101183571Y-68392857D01*
X101031785Y-68321428D01*
X100746071Y-68321428D01*
X100612142Y-68392857D01*
X101978214Y-68464285D02*
X102040714Y-68392857D01*
X101960357Y-68321428D01*
X101897857Y-68392857D01*
X101978214Y-68464285D01*
X101960357Y-68321428D01*
X103326428Y-68392857D02*
X103174642Y-68321428D01*
X102888928Y-68321428D01*
X102755000Y-68392857D01*
X102692500Y-68464285D01*
X102638928Y-68607142D01*
X102692500Y-69035714D01*
X102781785Y-69178571D01*
X102862142Y-69250000D01*
X103013928Y-69321428D01*
X103299642Y-69321428D01*
X103433571Y-69250000D01*
X104174642Y-68321428D02*
X104040714Y-68392857D01*
X103978214Y-68464285D01*
X103924642Y-68607142D01*
X103978214Y-69035714D01*
X104067500Y-69178571D01*
X104147857Y-69250000D01*
X104299642Y-69321428D01*
X104513928Y-69321428D01*
X104647857Y-69250000D01*
X104710357Y-69178571D01*
X104763928Y-69035714D01*
X104710357Y-68607142D01*
X104621071Y-68464285D01*
X104540714Y-68392857D01*
X104388928Y-68321428D01*
X104174642Y-68321428D01*
X105317500Y-68321428D02*
X105442500Y-69321428D01*
X105424642Y-69178571D02*
X105505000Y-69250000D01*
X105656785Y-69321428D01*
X105871071Y-69321428D01*
X106005000Y-69250000D01*
X106058571Y-69107142D01*
X105960357Y-68321428D01*
X106058571Y-69107142D02*
X106147857Y-69250000D01*
X106299642Y-69321428D01*
X106513928Y-69321428D01*
X106647857Y-69250000D01*
X106701428Y-69107142D01*
X106603214Y-68321428D01*
X108585357Y-69892857D02*
X107058571Y-67964285D01*
X109469285Y-68392857D02*
X109317500Y-68321428D01*
X109031785Y-68321428D01*
X108897857Y-68392857D01*
X108844285Y-68535714D01*
X108915714Y-69107142D01*
X109005000Y-69250000D01*
X109156785Y-69321428D01*
X109442500Y-69321428D01*
X109576428Y-69250000D01*
X109630000Y-69107142D01*
X109612142Y-68964285D01*
X108880000Y-68821428D01*
X110246071Y-68892857D02*
X111388928Y-68892857D01*
X111942500Y-69321428D02*
X112513928Y-69321428D01*
X112219285Y-69821428D02*
X112058571Y-68535714D01*
X112112142Y-68392857D01*
X112246071Y-68321428D01*
X112388928Y-68321428D01*
X112888928Y-68321428D02*
X113013928Y-69321428D01*
X113076428Y-69821428D02*
X112996071Y-69750000D01*
X113058571Y-69678571D01*
X113138928Y-69750000D01*
X113076428Y-69821428D01*
X113058571Y-69678571D01*
X113728214Y-69321428D02*
X113603214Y-68321428D01*
X113710357Y-69178571D02*
X113790714Y-69250000D01*
X113942500Y-69321428D01*
X114156785Y-69321428D01*
X114290714Y-69250000D01*
X114344285Y-69107142D01*
X114246071Y-68321428D01*
X114960357Y-68321428D02*
X115147857Y-69821428D01*
X115174642Y-68892857D02*
X115531785Y-68321428D01*
X115656785Y-69321428D02*
X115013928Y-68750000D01*
X116755000Y-68392857D02*
X116603214Y-68321428D01*
X116317500Y-68321428D01*
X116183571Y-68392857D01*
X116130000Y-68535714D01*
X116201428Y-69107142D01*
X116290714Y-69250000D01*
X116442500Y-69321428D01*
X116728214Y-69321428D01*
X116862142Y-69250000D01*
X116915714Y-69107142D01*
X116897857Y-68964285D01*
X116165714Y-68821428D01*
X117460357Y-68321428D02*
X117585357Y-69321428D01*
X117549642Y-69035714D02*
X117638928Y-69178571D01*
X117719285Y-69250000D01*
X117871071Y-69321428D01*
X118013928Y-69321428D01*
X118326428Y-68392857D02*
X118460357Y-68321428D01*
X118746071Y-68321428D01*
X118897857Y-68392857D01*
X118987142Y-68535714D01*
X118996071Y-68607142D01*
X118942500Y-68750000D01*
X118808571Y-68821428D01*
X118594285Y-68821428D01*
X118460357Y-68892857D01*
X118406785Y-69035714D01*
X118415714Y-69107142D01*
X118505000Y-69250000D01*
X118656785Y-69321428D01*
X118871071Y-69321428D01*
X119005000Y-69250000D01*
X92326428Y-65977857D02*
X92174642Y-65906428D01*
X91888928Y-65906428D01*
X91755000Y-65977857D01*
X91701428Y-66120714D01*
X91772857Y-66692142D01*
X91862142Y-66835000D01*
X92013928Y-66906428D01*
X92299642Y-66906428D01*
X92433571Y-66835000D01*
X92487142Y-66692142D01*
X92469285Y-66549285D01*
X91737142Y-66406428D01*
X93049642Y-66049285D02*
X93112142Y-65977857D01*
X93031785Y-65906428D01*
X92969285Y-65977857D01*
X93049642Y-66049285D01*
X93031785Y-65906428D01*
X93147857Y-66835000D02*
X93210357Y-66763571D01*
X93130000Y-66692142D01*
X93067500Y-66763571D01*
X93147857Y-66835000D01*
X93130000Y-66692142D01*
X95540714Y-65977857D02*
X95388928Y-65906428D01*
X95103214Y-65906428D01*
X94969285Y-65977857D01*
X94906785Y-66049285D01*
X94853214Y-66192142D01*
X94906785Y-66620714D01*
X94996071Y-66763571D01*
X95076428Y-66835000D01*
X95228214Y-66906428D01*
X95513928Y-66906428D01*
X95647857Y-66835000D01*
X96174642Y-65906428D02*
X96362142Y-67406428D01*
X96817500Y-65906428D02*
X96915714Y-66692142D01*
X96862142Y-66835000D01*
X96728214Y-66906428D01*
X96513928Y-66906428D01*
X96362142Y-66835000D01*
X96281785Y-66763571D01*
X98112142Y-65977857D02*
X97960357Y-65906428D01*
X97674642Y-65906428D01*
X97540714Y-65977857D01*
X97487142Y-66120714D01*
X97558571Y-66692142D01*
X97647857Y-66835000D01*
X97799642Y-66906428D01*
X98085357Y-66906428D01*
X98219285Y-66835000D01*
X98272857Y-66692142D01*
X98255000Y-66549285D01*
X97522857Y-66406428D01*
X99397857Y-65977857D02*
X99246071Y-65906428D01*
X98960357Y-65906428D01*
X98826428Y-65977857D01*
X98772857Y-66120714D01*
X98844285Y-66692142D01*
X98933571Y-66835000D01*
X99085357Y-66906428D01*
X99371071Y-66906428D01*
X99505000Y-66835000D01*
X99558571Y-66692142D01*
X99540714Y-66549285D01*
X98808571Y-66406428D01*
X100013928Y-66906428D02*
X100585357Y-66906428D01*
X100290714Y-67406428D02*
X100130000Y-66120714D01*
X100183571Y-65977857D01*
X100317500Y-65906428D01*
X100460357Y-65906428D01*
X101603214Y-65906428D02*
X101701428Y-66692142D01*
X101647857Y-66835000D01*
X101513928Y-66906428D01*
X101228214Y-66906428D01*
X101076428Y-66835000D01*
X101612142Y-65977857D02*
X101460357Y-65906428D01*
X101103214Y-65906428D01*
X100969285Y-65977857D01*
X100915714Y-66120714D01*
X100933571Y-66263571D01*
X101022857Y-66406428D01*
X101174642Y-66477857D01*
X101531785Y-66477857D01*
X101683571Y-66549285D01*
X102317500Y-65906428D02*
X102505000Y-67406428D01*
X102960357Y-65906428D02*
X103058571Y-66692142D01*
X103005000Y-66835000D01*
X102871071Y-66906428D01*
X102656785Y-66906428D01*
X102505000Y-66835000D01*
X102424642Y-66763571D01*
X103299642Y-65763571D02*
X104442500Y-65763571D01*
X104817500Y-65906428D02*
X105005000Y-67406428D01*
X105460357Y-65906428D02*
X105558571Y-66692142D01*
X105505000Y-66835000D01*
X105371071Y-66906428D01*
X105156785Y-66906428D01*
X105005000Y-66835000D01*
X104924642Y-66763571D01*
X106755000Y-65977857D02*
X106603214Y-65906428D01*
X106317500Y-65906428D01*
X106183571Y-65977857D01*
X106130000Y-66120714D01*
X106201428Y-66692142D01*
X106290714Y-66835000D01*
X106442500Y-66906428D01*
X106728214Y-66906428D01*
X106862142Y-66835000D01*
X106915714Y-66692142D01*
X106897857Y-66549285D01*
X106165714Y-66406428D01*
X107585357Y-66906428D02*
X107460357Y-65906428D01*
X107567500Y-66763571D02*
X107647857Y-66835000D01*
X107799642Y-66906428D01*
X108013928Y-66906428D01*
X108147857Y-66835000D01*
X108201428Y-66692142D01*
X108103214Y-65906428D01*
X108817500Y-65906428D02*
X108942500Y-66906428D01*
X108906785Y-66620714D02*
X108996071Y-66763571D01*
X109076428Y-66835000D01*
X109228214Y-66906428D01*
X109371071Y-66906428D01*
X109728214Y-66906428D02*
X109960357Y-65906428D01*
X110442500Y-66906428D02*
X109960357Y-65906428D01*
X109772857Y-65549285D01*
X109692500Y-65477857D01*
X109540714Y-65406428D01*
X111906785Y-66620714D02*
X111844285Y-66692142D01*
X111710357Y-66763571D01*
X111567500Y-66763571D01*
X111415714Y-66692142D01*
X111335357Y-66620714D01*
X111246071Y-66477857D01*
X111228214Y-66335000D01*
X111281785Y-66192142D01*
X111344285Y-66120714D01*
X111478214Y-66049285D01*
X111621071Y-66049285D01*
X111772857Y-66120714D01*
X111853214Y-66192142D01*
X111924642Y-66763571D02*
X111853214Y-66192142D01*
X111915714Y-66120714D01*
X111987142Y-66120714D01*
X112138928Y-66192142D01*
X112228214Y-66335000D01*
X112272857Y-66692142D01*
X112156785Y-66906428D01*
X111960357Y-67049285D01*
X111683571Y-67120714D01*
X111388928Y-67049285D01*
X111156785Y-66906428D01*
X110987142Y-66692142D01*
X110880000Y-66406428D01*
X110915714Y-66120714D01*
X111031785Y-65906428D01*
X111228214Y-65763571D01*
X111505000Y-65692142D01*
X111799642Y-65763571D01*
X112031785Y-65906428D01*
X112817500Y-65906428D02*
X113005000Y-67406428D01*
X113460357Y-65906428D02*
X113558571Y-66692142D01*
X113505000Y-66835000D01*
X113371071Y-66906428D01*
X113156785Y-66906428D01*
X113005000Y-66835000D01*
X112924642Y-66763571D01*
X114388928Y-65906428D02*
X114255000Y-65977857D01*
X114192500Y-66049285D01*
X114138928Y-66192142D01*
X114192500Y-66620714D01*
X114281785Y-66763571D01*
X114362142Y-66835000D01*
X114513928Y-66906428D01*
X114728214Y-66906428D01*
X114862142Y-66835000D01*
X114924642Y-66763571D01*
X114978214Y-66620714D01*
X114924642Y-66192142D01*
X114835357Y-66049285D01*
X114755000Y-65977857D01*
X114603214Y-65906428D01*
X114388928Y-65906428D01*
X115442500Y-66906428D02*
X116013928Y-66906428D01*
X115719285Y-67406428D02*
X115558571Y-66120714D01*
X115612142Y-65977857D01*
X115746071Y-65906428D01*
X115888928Y-65906428D01*
X116388928Y-65906428D02*
X116513928Y-66906428D01*
X116496071Y-66763571D02*
X116576428Y-66835000D01*
X116728214Y-66906428D01*
X116942500Y-66906428D01*
X117076428Y-66835000D01*
X117130000Y-66692142D01*
X117031785Y-65906428D01*
X117130000Y-66692142D02*
X117219285Y-66835000D01*
X117371071Y-66906428D01*
X117585357Y-66906428D01*
X117719285Y-66835000D01*
X117772857Y-66692142D01*
X117674642Y-65906428D01*
X119031785Y-65906428D02*
X119130000Y-66692142D01*
X119076428Y-66835000D01*
X118942500Y-66906428D01*
X118656785Y-66906428D01*
X118505000Y-66835000D01*
X119040714Y-65977857D02*
X118888928Y-65906428D01*
X118531785Y-65906428D01*
X118397857Y-65977857D01*
X118344285Y-66120714D01*
X118362142Y-66263571D01*
X118451428Y-66406428D01*
X118603214Y-66477857D01*
X118960357Y-66477857D01*
X119112142Y-66549285D01*
X119746071Y-65906428D02*
X119871071Y-66906428D01*
X119933571Y-67406428D02*
X119853214Y-67335000D01*
X119915714Y-67263571D01*
X119996071Y-67335000D01*
X119933571Y-67406428D01*
X119915714Y-67263571D01*
X120674642Y-65906428D02*
X120540714Y-65977857D01*
X120487142Y-66120714D01*
X120647857Y-67406428D01*
X121263928Y-66049285D02*
X121326428Y-65977857D01*
X121246071Y-65906428D01*
X121183571Y-65977857D01*
X121263928Y-66049285D01*
X121246071Y-65906428D01*
X122612142Y-65977857D02*
X122460357Y-65906428D01*
X122174642Y-65906428D01*
X122040714Y-65977857D01*
X121978214Y-66049285D01*
X121924642Y-66192142D01*
X121978214Y-66620714D01*
X122067500Y-66763571D01*
X122147857Y-66835000D01*
X122299642Y-66906428D01*
X122585357Y-66906428D01*
X122719285Y-66835000D01*
X123460357Y-65906428D02*
X123326428Y-65977857D01*
X123263928Y-66049285D01*
X123210357Y-66192142D01*
X123263928Y-66620714D01*
X123353214Y-66763571D01*
X123433571Y-66835000D01*
X123585357Y-66906428D01*
X123799642Y-66906428D01*
X123933571Y-66835000D01*
X123996071Y-66763571D01*
X124049642Y-66620714D01*
X123996071Y-66192142D01*
X123906785Y-66049285D01*
X123826428Y-65977857D01*
X123674642Y-65906428D01*
X123460357Y-65906428D01*
X124603214Y-65906428D02*
X124728214Y-66906428D01*
X124710357Y-66763571D02*
X124790714Y-66835000D01*
X124942500Y-66906428D01*
X125156785Y-66906428D01*
X125290714Y-66835000D01*
X125344285Y-66692142D01*
X125246071Y-65906428D01*
X125344285Y-66692142D02*
X125433571Y-66835000D01*
X125585357Y-66906428D01*
X125799642Y-66906428D01*
X125933571Y-66835000D01*
X125987142Y-66692142D01*
X125888928Y-65906428D01*
D11*
X91576190Y-105552380D02*
X91576190Y-108752380D01*
X91576190Y-107228571D02*
X93404761Y-107228571D01*
X93404761Y-105552380D02*
X93404761Y-108752380D01*
X96147619Y-105704761D02*
X95842857Y-105552380D01*
X95233333Y-105552380D01*
X94928571Y-105704761D01*
X94776190Y-106009523D01*
X94776190Y-107228571D01*
X94928571Y-107533333D01*
X95233333Y-107685714D01*
X95842857Y-107685714D01*
X96147619Y-107533333D01*
X96300000Y-107228571D01*
X96300000Y-106923809D01*
X94776190Y-106619047D01*
X97671428Y-107685714D02*
X97671428Y-105552380D01*
X97671428Y-107380952D02*
X97823809Y-107533333D01*
X98128571Y-107685714D01*
X98585714Y-107685714D01*
X98890476Y-107533333D01*
X99042857Y-107228571D01*
X99042857Y-105552380D01*
X100566666Y-105552380D02*
X100566666Y-107685714D01*
X100566666Y-107076190D02*
X100719047Y-107380952D01*
X100871428Y-107533333D01*
X101176190Y-107685714D01*
X101480952Y-107685714D01*
X102242857Y-107685714D02*
X103004761Y-105552380D01*
X103766666Y-107685714D02*
X103004761Y-105552380D01*
X102700000Y-104790476D01*
X102547619Y-104638095D01*
X102242857Y-104485714D01*
X109252380Y-105857142D02*
X109100000Y-105704761D01*
X108642857Y-105552380D01*
X108338095Y-105552380D01*
X107880952Y-105704761D01*
X107576190Y-106009523D01*
X107423809Y-106314285D01*
X107271428Y-106923809D01*
X107271428Y-107380952D01*
X107423809Y-107990476D01*
X107576190Y-108295238D01*
X107880952Y-108600000D01*
X108338095Y-108752380D01*
X108642857Y-108752380D01*
X109100000Y-108600000D01*
X109252380Y-108447619D01*
X110623809Y-105552380D02*
X110623809Y-108752380D01*
X111995238Y-105552380D02*
X111995238Y-107228571D01*
X111842857Y-107533333D01*
X111538095Y-107685714D01*
X111080952Y-107685714D01*
X110776190Y-107533333D01*
X110623809Y-107380952D01*
X114738095Y-105704761D02*
X114433333Y-105552380D01*
X113823809Y-105552380D01*
X113519047Y-105704761D01*
X113366666Y-106009523D01*
X113366666Y-107228571D01*
X113519047Y-107533333D01*
X113823809Y-107685714D01*
X114433333Y-107685714D01*
X114738095Y-107533333D01*
X114890476Y-107228571D01*
X114890476Y-106923809D01*
X113366666Y-106619047D01*
X117633333Y-107685714D02*
X117633333Y-105552380D01*
X116261904Y-107685714D02*
X116261904Y-106009523D01*
X116414285Y-105704761D01*
X116719047Y-105552380D01*
X117176190Y-105552380D01*
X117480952Y-105704761D01*
X117633333Y-105857142D01*
X119157142Y-107685714D02*
X119157142Y-105552380D01*
X119157142Y-107380952D02*
X119309523Y-107533333D01*
X119614285Y-107685714D01*
X120071428Y-107685714D01*
X120376190Y-107533333D01*
X120528571Y-107228571D01*
X120528571Y-105552380D01*
X123423809Y-107685714D02*
X123423809Y-105095238D01*
X123271428Y-104790476D01*
X123119047Y-104638095D01*
X122814285Y-104485714D01*
X122357142Y-104485714D01*
X122052380Y-104638095D01*
X123423809Y-105704761D02*
X123119047Y-105552380D01*
X122509523Y-105552380D01*
X122204761Y-105704761D01*
X122052380Y-105857142D01*
X121900000Y-106161904D01*
X121900000Y-107076190D01*
X122052380Y-107380952D01*
X122204761Y-107533333D01*
X122509523Y-107685714D01*
X123119047Y-107685714D01*
X123423809Y-107533333D01*
D10*
X91357142Y-103735714D02*
X92385714Y-103735714D01*
X91871428Y-101935714D02*
X91871428Y-103735714D01*
X92985714Y-101935714D02*
X92985714Y-103135714D01*
X92985714Y-103735714D02*
X92899999Y-103650000D01*
X92985714Y-103564285D01*
X93071428Y-103650000D01*
X92985714Y-103735714D01*
X92985714Y-103564285D01*
X93842857Y-103135714D02*
X93842857Y-101935714D01*
X93842857Y-102964285D02*
X93928571Y-103050000D01*
X94100000Y-103135714D01*
X94357142Y-103135714D01*
X94528571Y-103050000D01*
X94614285Y-102878571D01*
X94614285Y-101935714D01*
X95471428Y-101935714D02*
X95471428Y-103735714D01*
X95642857Y-102621428D02*
X96157142Y-101935714D01*
X96157142Y-103135714D02*
X95471428Y-102450000D01*
X97614285Y-102021428D02*
X97442857Y-101935714D01*
X97100000Y-101935714D01*
X96928571Y-102021428D01*
X96842857Y-102192857D01*
X96842857Y-102878571D01*
X96928571Y-103050000D01*
X97100000Y-103135714D01*
X97442857Y-103135714D01*
X97614285Y-103050000D01*
X97700000Y-102878571D01*
X97700000Y-102707142D01*
X96842857Y-102535714D01*
X98471428Y-101935714D02*
X98471428Y-103135714D01*
X98471428Y-102792857D02*
X98557142Y-102964285D01*
X98642857Y-103050000D01*
X98814285Y-103135714D01*
X98985714Y-103135714D01*
X99671428Y-102021428D02*
X99671428Y-101935714D01*
X99585714Y-101764285D01*
X99499999Y-101678571D01*
X102414285Y-102878571D02*
X102671428Y-102792857D01*
X102757142Y-102707142D01*
X102842857Y-102535714D01*
X102842857Y-102278571D01*
X102757142Y-102107142D01*
X102671428Y-102021428D01*
X102499999Y-101935714D01*
X101814285Y-101935714D01*
X101814285Y-103735714D01*
X102414285Y-103735714D01*
X102585714Y-103650000D01*
X102671428Y-103564285D01*
X102757142Y-103392857D01*
X102757142Y-103221428D01*
X102671428Y-103050000D01*
X102585714Y-102964285D01*
X102414285Y-102878571D01*
X101814285Y-102878571D01*
X103871428Y-101935714D02*
X103699999Y-102021428D01*
X103614285Y-102192857D01*
X103614285Y-103735714D01*
X104814285Y-101935714D02*
X104642857Y-102021428D01*
X104557142Y-102107142D01*
X104471428Y-102278571D01*
X104471428Y-102792857D01*
X104557142Y-102964285D01*
X104642857Y-103050000D01*
X104814285Y-103135714D01*
X105071428Y-103135714D01*
X105242857Y-103050000D01*
X105328571Y-102964285D01*
X105414285Y-102792857D01*
X105414285Y-102278571D01*
X105328571Y-102107142D01*
X105242857Y-102021428D01*
X105071428Y-101935714D01*
X104814285Y-101935714D01*
X106957142Y-103135714D02*
X106957142Y-101678571D01*
X106871428Y-101507142D01*
X106785714Y-101421428D01*
X106614285Y-101335714D01*
X106357142Y-101335714D01*
X106185714Y-101421428D01*
X106957142Y-102021428D02*
X106785714Y-101935714D01*
X106442857Y-101935714D01*
X106271428Y-102021428D01*
X106185714Y-102107142D01*
X106099999Y-102278571D01*
X106099999Y-102792857D01*
X106185714Y-102964285D01*
X106271428Y-103050000D01*
X106442857Y-103135714D01*
X106785714Y-103135714D01*
X106957142Y-103050000D01*
X108585714Y-103135714D02*
X108585714Y-101678571D01*
X108499999Y-101507142D01*
X108414285Y-101421428D01*
X108242857Y-101335714D01*
X107985714Y-101335714D01*
X107814285Y-101421428D01*
X108585714Y-102021428D02*
X108414285Y-101935714D01*
X108071428Y-101935714D01*
X107899999Y-102021428D01*
X107814285Y-102107142D01*
X107728571Y-102278571D01*
X107728571Y-102792857D01*
X107814285Y-102964285D01*
X107899999Y-103050000D01*
X108071428Y-103135714D01*
X108414285Y-103135714D01*
X108585714Y-103050000D01*
X110128571Y-102021428D02*
X109957142Y-101935714D01*
X109614285Y-101935714D01*
X109442857Y-102021428D01*
X109357142Y-102192857D01*
X109357142Y-102878571D01*
X109442857Y-103050000D01*
X109614285Y-103135714D01*
X109957142Y-103135714D01*
X110128571Y-103050000D01*
X110214285Y-102878571D01*
X110214285Y-102707142D01*
X109357142Y-102535714D01*
X110985714Y-101935714D02*
X110985714Y-103135714D01*
X110985714Y-102792857D02*
X111071428Y-102964285D01*
X111157142Y-103050000D01*
X111328571Y-103135714D01*
X111499999Y-103135714D01*
X112185714Y-102021428D02*
X112185714Y-101935714D01*
X112099999Y-101764285D01*
X112014285Y-101678571D01*
X114157142Y-103735714D02*
X114585714Y-101935714D01*
X114928571Y-103221428D01*
X115271428Y-101935714D01*
X115699999Y-103735714D01*
X116385714Y-101935714D02*
X116385714Y-103735714D01*
X117157142Y-101935714D02*
X117157142Y-102878571D01*
X117071428Y-103050000D01*
X116899999Y-103135714D01*
X116642857Y-103135714D01*
X116471428Y-103050000D01*
X116385714Y-102964285D01*
X118785714Y-101935714D02*
X118785714Y-102878571D01*
X118699999Y-103050000D01*
X118528571Y-103135714D01*
X118185714Y-103135714D01*
X118014285Y-103050000D01*
X118785714Y-102021428D02*
X118614285Y-101935714D01*
X118185714Y-101935714D01*
X118014285Y-102021428D01*
X117928571Y-102192857D01*
X117928571Y-102364285D01*
X118014285Y-102535714D01*
X118185714Y-102621428D01*
X118614285Y-102621428D01*
X118785714Y-102707142D01*
X119385714Y-103135714D02*
X120071428Y-103135714D01*
X119642857Y-103735714D02*
X119642857Y-102192857D01*
X119728571Y-102021428D01*
X119899999Y-101935714D01*
X120071428Y-101935714D01*
X121357142Y-102021428D02*
X121185714Y-101935714D01*
X120842857Y-101935714D01*
X120671428Y-102021428D01*
X120585714Y-102192857D01*
X120585714Y-102878571D01*
X120671428Y-103050000D01*
X120842857Y-103135714D01*
X121185714Y-103135714D01*
X121357142Y-103050000D01*
X121442857Y-102878571D01*
X121442857Y-102707142D01*
X120585714Y-102535714D01*
X122042857Y-103135714D02*
X122471428Y-101935714D01*
X122899999Y-103135714D01*
X124271428Y-102021428D02*
X124099999Y-101935714D01*
X123757142Y-101935714D01*
X123585714Y-102021428D01*
X123499999Y-102192857D01*
X123499999Y-102878571D01*
X123585714Y-103050000D01*
X123757142Y-103135714D01*
X124099999Y-103135714D01*
X124271428Y-103050000D01*
X124357142Y-102878571D01*
X124357142Y-102707142D01*
X123499999Y-102535714D01*
X125128571Y-101935714D02*
X125128571Y-103135714D01*
X125128571Y-102792857D02*
X125214285Y-102964285D01*
X125299999Y-103050000D01*
X125471428Y-103135714D01*
X125642857Y-103135714D01*
%TO.C,G\u002A\u002A\u002A*%
G36*
X163466667Y-72730000D02*
G01*
X161942667Y-72730000D01*
X161942667Y-71130611D01*
X161540500Y-71104805D01*
X161347132Y-71089664D01*
X161198641Y-71050006D01*
X161136187Y-70953362D01*
X161112056Y-70761500D01*
X161085778Y-70444000D01*
X163466667Y-70444000D01*
X163466667Y-72730000D01*
G37*
G36*
X163466667Y-67913736D02*
G01*
X163117548Y-67887701D01*
X163009772Y-67878763D01*
X162842135Y-67842008D01*
X162772315Y-67746260D01*
X162749592Y-67544166D01*
X162730755Y-67226666D01*
X163466667Y-67226666D01*
X163466667Y-67913736D01*
G37*
G36*
X153730000Y-70444000D02*
G01*
X154492000Y-70444000D01*
X154492000Y-71883333D01*
X153052667Y-71883333D01*
X153052667Y-68835333D01*
X153730000Y-68835333D01*
X153730000Y-70444000D01*
G37*
G36*
X157694857Y-69689768D02*
G01*
X157700658Y-69908258D01*
X157705241Y-70244051D01*
X157708251Y-70671176D01*
X157709334Y-71163666D01*
X157709334Y-72730000D01*
X157417639Y-72730000D01*
X157279098Y-72726520D01*
X157169789Y-72688130D01*
X157121911Y-72570150D01*
X157100139Y-72327833D01*
X157074334Y-71925666D01*
X156143000Y-71925666D01*
X156117195Y-72327833D01*
X156102434Y-72518536D01*
X156065137Y-72665847D01*
X155975999Y-72721419D01*
X155799695Y-72730000D01*
X155508000Y-72730000D01*
X155508000Y-70444000D01*
X156270000Y-70444000D01*
X156270000Y-69688848D01*
X156968500Y-69660324D01*
X157079817Y-69655570D01*
X157383434Y-69640228D01*
X157599896Y-69625690D01*
X157688167Y-69614567D01*
X157688192Y-69614547D01*
X157694857Y-69689768D01*
G37*
G36*
X153491266Y-72899996D02*
G01*
X153656443Y-72921617D01*
X153719747Y-73005935D01*
X153730000Y-73195666D01*
X153729243Y-73283107D01*
X153704533Y-73427637D01*
X153608170Y-73483029D01*
X153391334Y-73492000D01*
X153291401Y-73491337D01*
X153126224Y-73469716D01*
X153062920Y-73385398D01*
X153052667Y-73195666D01*
X153053424Y-73108226D01*
X153078134Y-72963696D01*
X153174497Y-72908304D01*
X153391334Y-72899333D01*
X153491266Y-72899996D01*
G37*
G36*
X150512667Y-74338666D02*
G01*
X149666000Y-74338666D01*
X149666000Y-75100666D01*
X148904000Y-75100666D01*
X148904000Y-75947333D01*
X146533334Y-75947333D01*
X146533334Y-75270000D01*
X148226667Y-75270000D01*
X148226667Y-74517278D01*
X148628834Y-74491472D01*
X149031000Y-74465666D01*
X149045298Y-74127000D01*
X149048217Y-74059776D01*
X149058785Y-73843532D01*
X149066465Y-73724833D01*
X149079875Y-73713216D01*
X149215893Y-73686686D01*
X149466723Y-73668245D01*
X149793000Y-73661333D01*
X150512667Y-73661333D01*
X150512667Y-74338666D01*
G37*
G36*
X152121334Y-76878666D02*
G01*
X152121334Y-82466666D01*
X146533334Y-82466666D01*
X146533334Y-79634077D01*
X147210667Y-79634077D01*
X147210911Y-79892593D01*
X147214394Y-80490887D01*
X147222829Y-80945287D01*
X147237265Y-81274389D01*
X147258754Y-81496791D01*
X147288344Y-81631091D01*
X147327087Y-81695886D01*
X147339300Y-81703694D01*
X147473964Y-81735718D01*
X147740249Y-81758006D01*
X148147531Y-81770887D01*
X148705185Y-81774693D01*
X149422587Y-81769753D01*
X151401667Y-81747000D01*
X151424313Y-79651500D01*
X151446958Y-77556000D01*
X149385257Y-77556000D01*
X148969038Y-77557157D01*
X148432888Y-77562334D01*
X147970804Y-77571085D01*
X147606603Y-77582777D01*
X147364100Y-77596775D01*
X147267111Y-77612444D01*
X147257637Y-77649801D01*
X147242547Y-77834085D01*
X147229623Y-78149091D01*
X147219547Y-78570383D01*
X147213001Y-79073524D01*
X147210667Y-79634077D01*
X146533334Y-79634077D01*
X146533334Y-76878666D01*
X152121334Y-76878666D01*
G37*
G36*
X159318000Y-65955053D02*
G01*
X159319298Y-66082739D01*
X159339827Y-66280587D01*
X159402632Y-66379889D01*
X159529667Y-66429899D01*
X159697587Y-66451017D01*
X159953000Y-66429899D01*
X160054418Y-66409309D01*
X160130034Y-66433898D01*
X160159600Y-66552083D01*
X160164667Y-66801720D01*
X160164667Y-67226666D01*
X161764056Y-67226666D01*
X161789861Y-67628833D01*
X161815667Y-68031000D01*
X162183564Y-68037755D01*
X162551460Y-68044511D01*
X162551942Y-68757422D01*
X162552423Y-69470333D01*
X162247545Y-69496611D01*
X161942667Y-69522888D01*
X161942667Y-68666000D01*
X157868445Y-68666000D01*
X157894723Y-68354497D01*
X157908365Y-68220239D01*
X157952438Y-68096074D01*
X158067211Y-68047808D01*
X158302000Y-68036997D01*
X158683000Y-68031000D01*
X158706430Y-66782166D01*
X158729860Y-65533333D01*
X159318000Y-65533333D01*
X159318000Y-65955053D01*
G37*
G36*
X152883334Y-74338666D02*
G01*
X151444000Y-74338666D01*
X151444000Y-73661333D01*
X152883334Y-73661333D01*
X152883334Y-74338666D01*
G37*
G36*
X161773334Y-80773333D02*
G01*
X159487334Y-80773333D01*
X159487334Y-79686778D01*
X159487418Y-79627124D01*
X159492688Y-79220839D01*
X159504953Y-78882275D01*
X159522541Y-78645299D01*
X159543778Y-78543778D01*
X159548498Y-78540683D01*
X159670782Y-78519851D01*
X159923835Y-78502901D01*
X160273789Y-78491504D01*
X160686778Y-78487333D01*
X161773334Y-78487333D01*
X161773334Y-80773333D01*
G37*
G36*
X153746742Y-65977833D02*
G01*
X153772334Y-66422333D01*
X154132167Y-66415026D01*
X154492000Y-66407718D01*
X154492000Y-67904000D01*
X153052667Y-67904000D01*
X153052667Y-65533333D01*
X153721151Y-65533333D01*
X153746742Y-65977833D01*
G37*
G36*
X159865746Y-69665629D02*
G01*
X160164667Y-69700526D01*
X160164667Y-72043389D01*
X160561452Y-72069194D01*
X160746479Y-72083601D01*
X160894124Y-72120995D01*
X160949613Y-72211382D01*
X160957957Y-72391333D01*
X160957675Y-72687666D01*
X159841504Y-72711291D01*
X158725334Y-72734915D01*
X158725334Y-70444000D01*
X159487334Y-70444000D01*
X159487334Y-70077111D01*
X159488700Y-69980498D01*
X159502744Y-69772131D01*
X159527079Y-69670477D01*
X159534184Y-69665876D01*
X159657115Y-69652546D01*
X159865746Y-69665629D01*
G37*
G36*
X155338667Y-79164666D02*
G01*
X154661334Y-79164666D01*
X154661334Y-78487333D01*
X155338667Y-78487333D01*
X155338667Y-79164666D01*
G37*
G36*
X150493958Y-68348500D02*
G01*
X150470334Y-69470333D01*
X149348500Y-69493957D01*
X148226667Y-69517581D01*
X148226667Y-67226666D01*
X150517582Y-67226666D01*
X150493958Y-68348500D01*
G37*
G36*
X161773334Y-74508000D02*
G01*
X162237387Y-74508000D01*
X162434595Y-74505215D01*
X162616956Y-74481880D01*
X162708083Y-74418609D01*
X162754566Y-74296333D01*
X162775684Y-74128413D01*
X162754566Y-73873000D01*
X162737080Y-73794357D01*
X162748561Y-73703727D01*
X162851200Y-73667750D01*
X163084054Y-73661333D01*
X163466667Y-73661333D01*
X163466667Y-75094535D01*
X162641167Y-75118767D01*
X161815667Y-75143000D01*
X161789861Y-75545166D01*
X161764056Y-75947333D01*
X161096000Y-75947333D01*
X161096000Y-74338666D01*
X160164667Y-74338666D01*
X160164667Y-75100666D01*
X159487334Y-75100666D01*
X159487334Y-74338666D01*
X158725334Y-74338666D01*
X158725334Y-73661333D01*
X161773334Y-73661333D01*
X161773334Y-74508000D01*
G37*
G36*
X149666000Y-72730000D02*
G01*
X148904000Y-72730000D01*
X148904000Y-73482722D01*
X148501834Y-73508528D01*
X148099667Y-73534333D01*
X148073861Y-73936500D01*
X148048056Y-74338666D01*
X146533334Y-74338666D01*
X146533334Y-72052666D01*
X149666000Y-72052666D01*
X149666000Y-72730000D01*
G37*
G36*
X157544870Y-74510350D02*
G01*
X157660134Y-74544042D01*
X157703007Y-74654897D01*
X157709334Y-74889000D01*
X157709334Y-75270000D01*
X158556000Y-75270000D01*
X158556000Y-75947333D01*
X157116667Y-75947333D01*
X157116667Y-74508000D01*
X157413000Y-74508000D01*
X157544870Y-74510350D01*
G37*
G36*
X154509990Y-80117166D02*
G01*
X154534334Y-80900333D01*
X155465667Y-80900333D01*
X155490011Y-80117166D01*
X155514355Y-79334000D01*
X155807511Y-79334000D01*
X155936733Y-79336346D01*
X156051445Y-79370036D01*
X156094271Y-79480894D01*
X156100667Y-79715000D01*
X156100667Y-80096000D01*
X156947334Y-80096000D01*
X156947334Y-80764055D01*
X156545167Y-80789861D01*
X156143000Y-80815666D01*
X156117502Y-81257466D01*
X156109041Y-81448366D01*
X156122128Y-81622325D01*
X156182304Y-81708032D01*
X156308002Y-81753478D01*
X156481879Y-81775371D01*
X156735667Y-81754565D01*
X156814309Y-81737079D01*
X156904940Y-81748561D01*
X156940917Y-81851200D01*
X156947334Y-82084053D01*
X156947334Y-82466666D01*
X155516849Y-82466666D01*
X155491258Y-82022167D01*
X155465667Y-81577666D01*
X154534334Y-81577666D01*
X154508742Y-82022166D01*
X154489960Y-82274892D01*
X154451080Y-82409809D01*
X154362566Y-82459546D01*
X154194308Y-82466666D01*
X153905465Y-82466666D01*
X153881233Y-81641166D01*
X153857000Y-80815666D01*
X153454834Y-80789861D01*
X153052667Y-80764055D01*
X153052667Y-80096000D01*
X153899334Y-80096000D01*
X153899334Y-79715000D01*
X153901139Y-79547056D01*
X153927061Y-79397970D01*
X154012359Y-79342312D01*
X154192490Y-79334000D01*
X154485646Y-79334000D01*
X154509990Y-80117166D01*
G37*
G36*
X149348500Y-78506042D02*
G01*
X150470334Y-78529666D01*
X150493958Y-79651500D01*
X150517582Y-80773333D01*
X148226667Y-80773333D01*
X148226667Y-78482418D01*
X149348500Y-78506042D01*
G37*
G36*
X152121334Y-72730000D02*
G01*
X151274667Y-72730000D01*
X151274667Y-73492000D01*
X150639667Y-73492066D01*
X150657087Y-72793533D01*
X150659900Y-72682361D01*
X150668053Y-72378660D01*
X150674573Y-72162132D01*
X150678254Y-72073833D01*
X150691169Y-72069949D01*
X150825964Y-72061111D01*
X151075846Y-72054969D01*
X151401667Y-72052666D01*
X152121334Y-72052666D01*
X152121334Y-72730000D01*
G37*
G36*
X152121334Y-65533333D02*
G01*
X152121334Y-71121333D01*
X146533334Y-71121333D01*
X146533334Y-67711663D01*
X147225238Y-67711663D01*
X147230247Y-68422587D01*
X147253000Y-70401666D01*
X149349982Y-70424315D01*
X151446965Y-70446964D01*
X151401667Y-66253000D01*
X149402449Y-66230328D01*
X148979900Y-66226156D01*
X148418637Y-66223909D01*
X147995742Y-66228032D01*
X147692089Y-66239392D01*
X147488558Y-66258858D01*
X147366023Y-66287298D01*
X147305363Y-66325582D01*
X147293914Y-66345162D01*
X147262671Y-66486628D01*
X147241066Y-66754393D01*
X147228716Y-67159168D01*
X147225238Y-67711663D01*
X146533334Y-67711663D01*
X146533334Y-65533333D01*
X152121334Y-65533333D01*
G37*
G36*
X156947334Y-68656722D02*
G01*
X156545167Y-68682528D01*
X156143000Y-68708333D01*
X156117195Y-69110500D01*
X156091389Y-69512666D01*
X155338667Y-69512666D01*
X155338667Y-70274666D01*
X154661334Y-70274666D01*
X154661334Y-68835333D01*
X155508000Y-68835333D01*
X155508000Y-67226666D01*
X156270000Y-67226666D01*
X156270000Y-65533333D01*
X156947334Y-65533333D01*
X156947334Y-68656722D01*
G37*
G36*
X163466667Y-66210666D02*
G01*
X163096034Y-66210666D01*
X162916896Y-66220251D01*
X162672190Y-66300953D01*
X162558602Y-66476373D01*
X162561382Y-66761716D01*
X162609354Y-67057333D01*
X161942667Y-67057333D01*
X161942667Y-65533333D01*
X163466667Y-65533333D01*
X163466667Y-66210666D01*
G37*
G36*
X163466667Y-76878666D02*
G01*
X163466667Y-82466666D01*
X157878667Y-82466666D01*
X157878667Y-77553035D01*
X158553036Y-77553035D01*
X158575685Y-79650018D01*
X158598334Y-81747000D01*
X160597551Y-81769671D01*
X161020100Y-81773844D01*
X161581363Y-81776090D01*
X162004259Y-81771968D01*
X162307911Y-81760608D01*
X162511443Y-81741142D01*
X162633977Y-81712702D01*
X162694637Y-81674418D01*
X162706086Y-81654838D01*
X162737329Y-81513372D01*
X162758934Y-81245607D01*
X162771284Y-80840832D01*
X162774762Y-80288337D01*
X162769753Y-79577413D01*
X162747000Y-77598333D01*
X158553036Y-77553035D01*
X157878667Y-77553035D01*
X157878667Y-76878666D01*
X163466667Y-76878666D01*
G37*
G36*
X155338667Y-74508000D02*
G01*
X156094312Y-74508000D01*
X156118656Y-75291166D01*
X156143000Y-76074333D01*
X156545167Y-76100139D01*
X156947334Y-76125944D01*
X156947334Y-79164666D01*
X156270000Y-79164666D01*
X156270000Y-76709333D01*
X155508000Y-76709333D01*
X155508000Y-75947333D01*
X154492000Y-75947333D01*
X154492000Y-76709333D01*
X153730000Y-76709333D01*
X153730000Y-77556000D01*
X153052667Y-77556000D01*
X153052667Y-75947333D01*
X149835334Y-75947333D01*
X149835334Y-75270000D01*
X150699051Y-75270000D01*
X150638447Y-74508000D01*
X151274667Y-74508000D01*
X151274667Y-75270000D01*
X153052667Y-75270000D01*
X153052667Y-74508000D01*
X153730000Y-74508000D01*
X153730000Y-75270000D01*
X154661334Y-75270000D01*
X154661334Y-72899333D01*
X155338667Y-72899333D01*
X155338667Y-74508000D01*
G37*
G36*
X155338667Y-77556000D02*
G01*
X154661334Y-77556000D01*
X154661334Y-76878666D01*
X155338667Y-76878666D01*
X155338667Y-77556000D01*
G37*
G36*
X156947334Y-74338666D02*
G01*
X156270000Y-74338666D01*
X156270000Y-73661333D01*
X156947334Y-73661333D01*
X156947334Y-74338666D01*
G37*
%TD*%
M02*
