  0
SECTION
  2
HEADER
  9
$ANGBASE
  50
0.0
  9
$ANGDIR
  70
1
  9
$MEASUREMENT
  70
1
  0
ENDSEC
  0
SECTION
  2
TABLES
  0
TABLE
  2
LTYPE
  70
4
  0
LTYPE
  5
40F
  2
CONTINUOUS
  70
0
  3
Solid line
  72
65
  73
0
  40
0.0
  0
LTYPE
  5
410
  2
DASHDOT
 70
0
  3
Dash Dot ____ _ ____ _
 72
65
 73
4
 40
2.0
 49
1.25
 49
-0.25
 49
0.25
 49
-0.25
  0
LTYPE
  5
411
  2
DASHED
 70
0
  3
Dashed __ __ __ __ __
 72
65
 73
2
 40
0.75
 49
0.5
 49
-0.25
  0
LTYPE
  5
43B
  2
DOTTED
 70
0
  3
Dotted .  .  .  .
 72
65
 73
2
 40
0.2
 49
0.0
 49
-0.2
  0
ENDTAB
  0
TABLE
  2
STYLE
  70
4
  0
STYLE
  2
KICAD
  70
0
  40
0
  41
1
  42
1
  50
0
  71
0
  3
isocp.shx
  0
STYLE
  2
KICADB
  70
0
  40
0
  41
1
  42
1
  50
0
  71
0
  3
isocp.shx
  0
STYLE
  2
KICADI
  70
0
  40
0
  41
1
  42
1
  50
15
  71
0
  3
isocp.shx
  0
STYLE
  2
KICADBI
  70
0
  40
0
  41
1
  42
1
  50
15
  71
0
  3
isocp.shx
  0
ENDTAB
  0
TABLE
  2
LAYER
  70
1
  0
LAYER
  2
BLACK
  70
0
  62
7
  6
CONTINUOUS
  0
ENDTAB
  0
ENDSEC
  0
SECTION
  2
ENTITIES
0
LINE
8
BLACK
6
CONTINUOUS
10
171.5
20
-62
11
171.5
21
-112
0
ARC
8
BLACK
10
169.5
20
-112
40
2
50
-90
51
-0
0
LINE
8
BLACK
6
CONTINUOUS
10
88
20
-60
11
169.5
21
-60
0
ARC
8
BLACK
10
169.5
20
-62
40
2
50
-0
51
90
0
LINE
8
BLACK
6
CONTINUOUS
10
169.5
20
-114
11
88
21
-114
0
ARC
8
BLACK
10
88
20
-62
40
2
50
90
51
180
0
LINE
8
BLACK
6
CONTINUOUS
10
86
20
-112
11
86
21
-62
0
ARC
8
BLACK
10
88
20
-112
40
2
50
-180
51
-90
0
LINE
8
BLACK
6
CONTINUOUS
10
87.8
20
-61.8
11
88.2
21
-62.2
0
LINE
8
BLACK
6
CONTINUOUS
10
88.2
20
-61.8
11
87.8
21
-62.2
0
LINE
8
BLACK
6
CONTINUOUS
10
87.8
20
-71.8
11
88.2
21
-72.2
0
LINE
8
BLACK
6
CONTINUOUS
10
88.2
20
-71.8
11
87.8
21
-72.2
0
LINE
8
BLACK
6
CONTINUOUS
10
87.8
20
-81.8
11
88.2
21
-82.2
0
LINE
8
BLACK
6
CONTINUOUS
10
88.2
20
-81.8
11
87.8
21
-82.2
0
LINE
8
BLACK
6
CONTINUOUS
10
87.8
20
-91.8
11
88.2
21
-92.2
0
LINE
8
BLACK
6
CONTINUOUS
10
88.2
20
-91.8
11
87.8
21
-92.2
0
LINE
8
BLACK
6
CONTINUOUS
10
87.8
20
-101.8
11
88.2
21
-102.2
0
LINE
8
BLACK
6
CONTINUOUS
10
88.2
20
-101.8
11
87.8
21
-102.2
0
LINE
8
BLACK
6
CONTINUOUS
10
87.8
20
-111.8
11
88.2
21
-112.2
0
LINE
8
BLACK
6
CONTINUOUS
10
88.2
20
-111.8
11
87.8
21
-112.2
0
LINE
8
BLACK
6
CONTINUOUS
10
98.8
20
-61.8
11
99.2
21
-62.2
0
LINE
8
BLACK
6
CONTINUOUS
10
99.2
20
-61.8
11
98.8
21
-62.2
0
LINE
8
BLACK
6
CONTINUOUS
10
98.8
20
-111.8
11
99.2
21
-112.2
0
LINE
8
BLACK
6
CONTINUOUS
10
99.2
20
-111.8
11
98.8
21
-112.2
0
LINE
8
BLACK
6
CONTINUOUS
10
99.05
20
-82.8
11
99.45
21
-83.2
0
LINE
8
BLACK
6
CONTINUOUS
10
99.45
20
-82.8
11
99.05
21
-83.2
0
LINE
8
BLACK
6
CONTINUOUS
10
100.05
20
-82.05
11
100.45
21
-82.45
0
LINE
8
BLACK
6
CONTINUOUS
10
100.45
20
-82.05
11
100.05
21
-82.45
0
LINE
8
BLACK
6
CONTINUOUS
10
100.05
20
-83.8
11
100.45
21
-84.2
0
LINE
8
BLACK
6
CONTINUOUS
10
100.45
20
-83.8
11
100.05
21
-84.2
0
LINE
8
BLACK
6
CONTINUOUS
10
101.05
20
-81.3
11
101.45
21
-81.7
0
LINE
8
BLACK
6
CONTINUOUS
10
101.45
20
-81.3
11
101.05
21
-81.7
0
LINE
8
BLACK
6
CONTINUOUS
10
106.05
20
-91.8
11
106.45
21
-92.2
0
LINE
8
BLACK
6
CONTINUOUS
10
106.45
20
-91.8
11
106.05
21
-92.2
0
LINE
8
BLACK
6
CONTINUOUS
10
106.1
20
-86.8
11
106.5
21
-87.2
0
LINE
8
BLACK
6
CONTINUOUS
10
106.5
20
-86.8
11
106.1
21
-87.2
0
LINE
8
BLACK
6
CONTINUOUS
10
108.7
20
-84.2
11
109.1
21
-84.6
0
LINE
8
BLACK
6
CONTINUOUS
10
109.1
20
-84.2
11
108.7
21
-84.6
0
LINE
8
BLACK
6
CONTINUOUS
10
108.8
20
-61.8
11
109.2
21
-62.2
0
LINE
8
BLACK
6
CONTINUOUS
10
109.2
20
-61.8
11
108.8
21
-62.2
0
LINE
8
BLACK
6
CONTINUOUS
10
108.8
20
-111.8
11
109.2
21
-112.2
0
LINE
8
BLACK
6
CONTINUOUS
10
109.2
20
-111.8
11
108.8
21
-112.2
0
LINE
8
BLACK
6
CONTINUOUS
10
110.8
20
-86.3
11
111.2
21
-86.7
0
LINE
8
BLACK
6
CONTINUOUS
10
111.2
20
-86.3
11
110.8
21
-86.7
0
LINE
8
BLACK
6
CONTINUOUS
10
113
20
-89
11
113.4
21
-89.4
0
LINE
8
BLACK
6
CONTINUOUS
10
113.4
20
-89
11
113
21
-89.4
0
LINE
8
BLACK
6
CONTINUOUS
10
117.8
20
-111.8
11
118.2
21
-112.2
0
LINE
8
BLACK
6
CONTINUOUS
10
118.2
20
-111.8
11
117.8
21
-112.2
0
LINE
8
BLACK
6
CONTINUOUS
10
118.7
20
-81.7
11
119.1
21
-82.1
0
LINE
8
BLACK
6
CONTINUOUS
10
119.1
20
-81.7
11
118.7
21
-82.1
0
LINE
8
BLACK
6
CONTINUOUS
10
118.7
20
-85.1
11
119.1
21
-85.5
0
LINE
8
BLACK
6
CONTINUOUS
10
119.1
20
-85.1
11
118.7
21
-85.5
0
LINE
8
BLACK
6
CONTINUOUS
10
118.7
20
-88.5
11
119.1
21
-88.9
0
LINE
8
BLACK
6
CONTINUOUS
10
119.1
20
-88.5
11
118.7
21
-88.9
0
LINE
8
BLACK
6
CONTINUOUS
10
118.7
20
-91.9
11
119.1
21
-92.3
0
LINE
8
BLACK
6
CONTINUOUS
10
119.1
20
-91.9
11
118.7
21
-92.3
0
LINE
8
BLACK
6
CONTINUOUS
10
118.8
20
-61.8
11
119.2
21
-62.2
0
LINE
8
BLACK
6
CONTINUOUS
10
119.2
20
-61.8
11
118.8
21
-62.2
0
LINE
8
BLACK
6
CONTINUOUS
10
121.3
20
-79.8
11
121.7
21
-80.2
0
LINE
8
BLACK
6
CONTINUOUS
10
121.7
20
-79.8
11
121.3
21
-80.2
0
LINE
8
BLACK
6
CONTINUOUS
10
123.3
20
-85.1
11
123.7
21
-85.5
0
LINE
8
BLACK
6
CONTINUOUS
10
123.7
20
-85.1
11
123.3
21
-85.5
0
LINE
8
BLACK
6
CONTINUOUS
10
123.3
20
-88.5
11
123.7
21
-88.9
0
LINE
8
BLACK
6
CONTINUOUS
10
123.7
20
-88.5
11
123.3
21
-88.9
0
LINE
8
BLACK
6
CONTINUOUS
10
124.3
20
-80.6
11
124.7
21
-81
0
LINE
8
BLACK
6
CONTINUOUS
10
124.7
20
-80.6
11
124.3
21
-81
0
LINE
8
BLACK
6
CONTINUOUS
10
124.3
20
-91.9
11
124.7
21
-92.3
0
LINE
8
BLACK
6
CONTINUOUS
10
124.7
20
-91.9
11
124.3
21
-92.3
0
LINE
8
BLACK
6
CONTINUOUS
10
124.3
20
-94.55
11
124.7
21
-94.95
0
LINE
8
BLACK
6
CONTINUOUS
10
124.7
20
-94.55
11
124.3
21
-94.95
0
LINE
8
BLACK
6
CONTINUOUS
10
126.9
20
-81.7
11
127.3
21
-82.1
0
LINE
8
BLACK
6
CONTINUOUS
10
127.3
20
-81.7
11
126.9
21
-82.1
0
LINE
8
BLACK
6
CONTINUOUS
10
128.8
20
-61.8
11
129.2
21
-62.2
0
LINE
8
BLACK
6
CONTINUOUS
10
129.2
20
-61.8
11
128.8
21
-62.2
0
LINE
8
BLACK
6
CONTINUOUS
10
128.8
20
-101.8
11
129.2
21
-102.2
0
LINE
8
BLACK
6
CONTINUOUS
10
129.2
20
-101.8
11
128.8
21
-102.2
0
LINE
8
BLACK
6
CONTINUOUS
10
128.8
20
-111.8
11
129.2
21
-112.2
0
LINE
8
BLACK
6
CONTINUOUS
10
129.2
20
-111.8
11
128.8
21
-112.2
0
LINE
8
BLACK
6
CONTINUOUS
10
129.588
20
-81.7
11
129.987
21
-82.1
0
LINE
8
BLACK
6
CONTINUOUS
10
129.987
20
-81.7
11
129.588
21
-82.1
0
LINE
8
BLACK
6
CONTINUOUS
10
130
20
-68.6
11
130.4
21
-69
0
LINE
8
BLACK
6
CONTINUOUS
10
130.4
20
-68.6
11
130
21
-69
0
LINE
8
BLACK
6
CONTINUOUS
10
136.8
20
-86.8
11
137.2
21
-87.2
0
LINE
8
BLACK
6
CONTINUOUS
10
137.2
20
-86.8
11
136.8
21
-87.2
0
LINE
8
BLACK
6
CONTINUOUS
10
139.8
20
-61.8
11
140.2
21
-62.2
0
LINE
8
BLACK
6
CONTINUOUS
10
140.2
20
-61.8
11
139.8
21
-62.2
0
LINE
8
BLACK
6
CONTINUOUS
10
139.8
20
-111.8
11
140.2
21
-112.2
0
LINE
8
BLACK
6
CONTINUOUS
10
140.2
20
-111.8
11
139.8
21
-112.2
0
LINE
8
BLACK
6
CONTINUOUS
10
143.8
20
-82.8
11
144.2
21
-83.2
0
LINE
8
BLACK
6
CONTINUOUS
10
144.2
20
-82.8
11
143.8
21
-83.2
0
LINE
8
BLACK
6
CONTINUOUS
10
143.8
20
-90.8
11
144.2
21
-91.2
0
LINE
8
BLACK
6
CONTINUOUS
10
144.2
20
-90.8
11
143.8
21
-91.2
0
LINE
8
BLACK
6
CONTINUOUS
10
149.8
20
-61.8
11
150.2
21
-62.2
0
LINE
8
BLACK
6
CONTINUOUS
10
150.2
20
-61.8
11
149.8
21
-62.2
0
LINE
8
BLACK
6
CONTINUOUS
10
149.8
20
-111.8
11
150.2
21
-112.2
0
LINE
8
BLACK
6
CONTINUOUS
10
150.2
20
-111.8
11
149.8
21
-112.2
0
LINE
8
BLACK
6
CONTINUOUS
10
151.8
20
-82.8
11
152.2
21
-83.2
0
LINE
8
BLACK
6
CONTINUOUS
10
152.2
20
-82.8
11
151.8
21
-83.2
0
LINE
8
BLACK
6
CONTINUOUS
10
151.8
20
-90.8
11
152.2
21
-91.2
0
LINE
8
BLACK
6
CONTINUOUS
10
152.2
20
-90.8
11
151.8
21
-91.2
0
LINE
8
BLACK
6
CONTINUOUS
10
158.9
20
-86.8
11
159.3
21
-87.2
0
LINE
8
BLACK
6
CONTINUOUS
10
159.3
20
-86.8
11
158.9
21
-87.2
0
LINE
8
BLACK
6
CONTINUOUS
10
159.8
20
-61.8
11
160.2
21
-62.2
0
LINE
8
BLACK
6
CONTINUOUS
10
160.2
20
-61.8
11
159.8
21
-62.2
0
LINE
8
BLACK
6
CONTINUOUS
10
159.8
20
-111.8
11
160.2
21
-112.2
0
LINE
8
BLACK
6
CONTINUOUS
10
160.2
20
-111.8
11
159.8
21
-112.2
0
LINE
8
BLACK
6
CONTINUOUS
10
168.8
20
-111.8
11
169.2
21
-112.2
0
LINE
8
BLACK
6
CONTINUOUS
10
169.2
20
-111.8
11
168.8
21
-112.2
0
LINE
8
BLACK
6
CONTINUOUS
10
169.8
20
-61.8
11
170.2
21
-62.2
0
LINE
8
BLACK
6
CONTINUOUS
10
170.2
20
-61.8
11
169.8
21
-62.2
0
LINE
8
BLACK
6
CONTINUOUS
10
169.8
20
-71.8
11
170.2
21
-72.2
0
LINE
8
BLACK
6
CONTINUOUS
10
170.2
20
-71.8
11
169.8
21
-72.2
0
LINE
8
BLACK
6
CONTINUOUS
10
169.8
20
-81.8
11
170.2
21
-82.2
0
LINE
8
BLACK
6
CONTINUOUS
10
170.2
20
-81.8
11
169.8
21
-82.2
0
LINE
8
BLACK
6
CONTINUOUS
10
169.8
20
-91.8
11
170.2
21
-92.2
0
LINE
8
BLACK
6
CONTINUOUS
10
170.2
20
-91.8
11
169.8
21
-92.2
0
LINE
8
BLACK
6
CONTINUOUS
10
169.8
20
-101.8
11
170.2
21
-102.2
0
LINE
8
BLACK
6
CONTINUOUS
10
170.2
20
-101.8
11
169.8
21
-102.2
0
CIRCLE
8
BLACK
10
126.25
20
-64.25
40
0.4
0
CIRCLE
8
BLACK
10
129.25
20
-64.25
40
0.4
0
LINE
8
BLACK
6
CONTINUOUS
10
88.5262
20
-117.155
11
88.5262
21
-115.155
0
LINE
8
BLACK
6
CONTINUOUS
10
88.5262
20
-115.155
11
89.0024
21
-115.155
0
LINE
8
BLACK
6
CONTINUOUS
10
89.0024
20
-115.155
11
89.2881
21
-115.25
0
LINE
8
BLACK
6
CONTINUOUS
10
89.2881
20
-115.25
11
89.4786
21
-115.44
0
LINE
8
BLACK
6
CONTINUOUS
10
89.4786
20
-115.44
11
89.5738
21
-115.631
0
LINE
8
BLACK
6
CONTINUOUS
10
89.5738
20
-115.631
11
89.669
21
-116.012
0
LINE
8
BLACK
6
CONTINUOUS
10
89.669
20
-116.012
11
89.669
21
-116.298
0
LINE
8
BLACK
6
CONTINUOUS
10
89.669
20
-116.298
11
89.5738
21
-116.679
0
LINE
8
BLACK
6
CONTINUOUS
10
89.5738
20
-116.679
11
89.4786
21
-116.869
0
LINE
8
BLACK
6
CONTINUOUS
10
89.4786
20
-116.869
11
89.2881
21
-117.06
0
LINE
8
BLACK
6
CONTINUOUS
10
89.2881
20
-117.06
11
89.0024
21
-117.155
0
LINE
8
BLACK
6
CONTINUOUS
10
89.0024
20
-117.155
11
88.5262
21
-117.155
0
LINE
8
BLACK
6
CONTINUOUS
10
90.5262
20
-117.155
11
90.5262
21
-115.821
0
LINE
8
BLACK
6
CONTINUOUS
10
90.5262
20
-116.202
11
90.6214
21
-116.012
0
LINE
8
BLACK
6
CONTINUOUS
10
90.6214
20
-116.012
11
90.7167
21
-115.917
0
LINE
8
BLACK
6
CONTINUOUS
10
90.7167
20
-115.917
11
90.9071
21
-115.821
0
LINE
8
BLACK
6
CONTINUOUS
10
90.9071
20
-115.821
11
91.0976
21
-115.821
0
LINE
8
BLACK
6
CONTINUOUS
10
91.7643
20
-117.155
11
91.7643
21
-115.821
0
LINE
8
BLACK
6
CONTINUOUS
10
91.7643
20
-115.155
11
91.669
21
-115.25
0
LINE
8
BLACK
6
CONTINUOUS
10
91.669
20
-115.25
11
91.7643
21
-115.345
0
LINE
8
BLACK
6
CONTINUOUS
10
91.7643
20
-115.345
11
91.8595
21
-115.25
0
LINE
8
BLACK
6
CONTINUOUS
10
91.8595
20
-115.25
11
91.7643
21
-115.155
0
LINE
8
BLACK
6
CONTINUOUS
10
91.7643
20
-115.155
11
91.7643
21
-115.345
0
LINE
8
BLACK
6
CONTINUOUS
10
93.0024
20
-117.155
11
92.8119
21
-117.06
0
LINE
8
BLACK
6
CONTINUOUS
10
92.8119
20
-117.06
11
92.7167
21
-116.869
0
LINE
8
BLACK
6
CONTINUOUS
10
92.7167
20
-116.869
11
92.7167
21
-115.155
0
LINE
8
BLACK
6
CONTINUOUS
10
94.05
20
-117.155
11
93.8595
21
-117.06
0
LINE
8
BLACK
6
CONTINUOUS
10
93.8595
20
-117.06
11
93.7643
21
-116.869
0
LINE
8
BLACK
6
CONTINUOUS
10
93.7643
20
-116.869
11
93.7643
21
-115.155
0
LINE
8
BLACK
6
CONTINUOUS
10
96.3357
20
-117.155
11
96.3357
21
-115.155
0
LINE
8
BLACK
6
CONTINUOUS
10
96.3357
20
-115.155
11
97.0024
21
-116.583
0
LINE
8
BLACK
6
CONTINUOUS
10
97.0024
20
-116.583
11
97.669
21
-115.155
0
LINE
8
BLACK
6
CONTINUOUS
10
97.669
20
-115.155
11
97.669
21
-117.155
0
LINE
8
BLACK
6
CONTINUOUS
10
99.4786
20
-117.155
11
99.4786
21
-116.107
0
LINE
8
BLACK
6
CONTINUOUS
10
99.4786
20
-116.107
11
99.3833
21
-115.917
0
LINE
8
BLACK
6
CONTINUOUS
10
99.3833
20
-115.917
11
99.1929
21
-115.821
0
LINE
8
BLACK
6
CONTINUOUS
10
99.1929
20
-115.821
11
98.8119
21
-115.821
0
LINE
8
BLACK
6
CONTINUOUS
10
98.8119
20
-115.821
11
98.6214
21
-115.917
0
LINE
8
BLACK
6
CONTINUOUS
10
99.4786
20
-117.06
11
99.2881
21
-117.155
0
LINE
8
BLACK
6
CONTINUOUS
10
99.2881
20
-117.155
11
98.8119
21
-117.155
0
LINE
8
BLACK
6
CONTINUOUS
10
98.8119
20
-117.155
11
98.6214
21
-117.06
0
LINE
8
BLACK
6
CONTINUOUS
10
98.6214
20
-117.06
11
98.5262
21
-116.869
0
LINE
8
BLACK
6
CONTINUOUS
10
98.5262
20
-116.869
11
98.5262
21
-116.679
0
LINE
8
BLACK
6
CONTINUOUS
10
98.5262
20
-116.679
11
98.6214
21
-116.488
0
LINE
8
BLACK
6
CONTINUOUS
10
98.6214
20
-116.488
11
98.8119
21
-116.393
0
LINE
8
BLACK
6
CONTINUOUS
10
98.8119
20
-116.393
11
99.2881
21
-116.393
0
LINE
8
BLACK
6
CONTINUOUS
10
99.2881
20
-116.393
11
99.4786
21
-116.298
0
LINE
8
BLACK
6
CONTINUOUS
10
100.431
20
-115.821
11
100.431
21
-117.821
0
LINE
8
BLACK
6
CONTINUOUS
10
100.431
20
-115.917
11
100.621
21
-115.821
0
LINE
8
BLACK
6
CONTINUOUS
10
100.621
20
-115.821
11
101.002
21
-115.821
0
LINE
8
BLACK
6
CONTINUOUS
10
101.002
20
-115.821
11
101.193
21
-115.917
0
LINE
8
BLACK
6
CONTINUOUS
10
101.193
20
-115.917
11
101.288
21
-116.012
0
LINE
8
BLACK
6
CONTINUOUS
10
101.288
20
-116.012
11
101.383
21
-116.202
0
LINE
8
BLACK
6
CONTINUOUS
10
101.383
20
-116.202
11
101.383
21
-116.774
0
LINE
8
BLACK
6
CONTINUOUS
10
101.383
20
-116.774
11
101.288
21
-116.964
0
LINE
8
BLACK
6
CONTINUOUS
10
101.288
20
-116.964
11
101.193
21
-117.06
0
LINE
8
BLACK
6
CONTINUOUS
10
101.193
20
-117.06
11
101.002
21
-117.155
0
LINE
8
BLACK
6
CONTINUOUS
10
101.002
20
-117.155
11
100.621
21
-117.155
0
LINE
8
BLACK
6
CONTINUOUS
10
100.621
20
-117.155
11
100.431
21
-117.06
0
LINE
8
BLACK
6
CONTINUOUS
10
102.24
20
-116.964
11
102.336
21
-117.06
0
LINE
8
BLACK
6
CONTINUOUS
10
102.336
20
-117.06
11
102.24
21
-117.155
0
LINE
8
BLACK
6
CONTINUOUS
10
102.24
20
-117.155
11
102.145
21
-117.06
0
LINE
8
BLACK
6
CONTINUOUS
10
102.145
20
-117.06
11
102.24
21
-116.964
0
LINE
8
BLACK
6
CONTINUOUS
10
102.24
20
-116.964
11
102.24
21
-117.155
0
LINE
8
BLACK
6
CONTINUOUS
10
102.24
20
-115.917
11
102.336
21
-116.012
0
LINE
8
BLACK
6
CONTINUOUS
10
102.336
20
-116.012
11
102.24
21
-116.107
0
LINE
8
BLACK
6
CONTINUOUS
10
102.24
20
-116.107
11
102.145
21
-116.012
0
LINE
8
BLACK
6
CONTINUOUS
10
102.145
20
-116.012
11
102.24
21
-115.917
0
LINE
8
BLACK
6
CONTINUOUS
10
102.24
20
-115.917
11
102.24
21
-116.107
0
LINE
8
BLACK
6
CONTINUOUS
10
85.55
20
-120.25
11
85.95
21
-120.65
0
LINE
8
BLACK
6
CONTINUOUS
10
85.95
20
-120.25
11
85.55
21
-120.65
0
LINE
8
BLACK
6
CONTINUOUS
10
88.9071
20
-119.355
11
89.0976
21
-119.355
0
LINE
8
BLACK
6
CONTINUOUS
10
89.0976
20
-119.355
11
89.2881
21
-119.45
0
LINE
8
BLACK
6
CONTINUOUS
10
89.2881
20
-119.45
11
89.3833
21
-119.545
0
LINE
8
BLACK
6
CONTINUOUS
10
89.3833
20
-119.545
11
89.4786
21
-119.736
0
LINE
8
BLACK
6
CONTINUOUS
10
89.4786
20
-119.736
11
89.5738
21
-120.117
0
LINE
8
BLACK
6
CONTINUOUS
10
89.5738
20
-120.117
11
89.5738
21
-120.593
0
LINE
8
BLACK
6
CONTINUOUS
10
89.5738
20
-120.593
11
89.4786
21
-120.974
0
LINE
8
BLACK
6
CONTINUOUS
10
89.4786
20
-120.974
11
89.3833
21
-121.164
0
LINE
8
BLACK
6
CONTINUOUS
10
89.3833
20
-121.164
11
89.2881
21
-121.26
0
LINE
8
BLACK
6
CONTINUOUS
10
89.2881
20
-121.26
11
89.0976
21
-121.355
0
LINE
8
BLACK
6
CONTINUOUS
10
89.0976
20
-121.355
11
88.9071
21
-121.355
0
LINE
8
BLACK
6
CONTINUOUS
10
88.9071
20
-121.355
11
88.7167
21
-121.26
0
LINE
8
BLACK
6
CONTINUOUS
10
88.7167
20
-121.26
11
88.6214
21
-121.164
0
LINE
8
BLACK
6
CONTINUOUS
10
88.6214
20
-121.164
11
88.5262
21
-120.974
0
LINE
8
BLACK
6
CONTINUOUS
10
88.5262
20
-120.974
11
88.431
21
-120.593
0
LINE
8
BLACK
6
CONTINUOUS
10
88.431
20
-120.593
11
88.431
21
-120.117
0
LINE
8
BLACK
6
CONTINUOUS
10
88.431
20
-120.117
11
88.5262
21
-119.736
0
LINE
8
BLACK
6
CONTINUOUS
10
88.5262
20
-119.736
11
88.6214
21
-119.545
0
LINE
8
BLACK
6
CONTINUOUS
10
88.6214
20
-119.545
11
88.7167
21
-119.45
0
LINE
8
BLACK
6
CONTINUOUS
10
88.7167
20
-119.45
11
88.9071
21
-119.355
0
LINE
8
BLACK
6
CONTINUOUS
10
90.431
20
-121.164
11
90.5262
21
-121.26
0
LINE
8
BLACK
6
CONTINUOUS
10
90.5262
20
-121.26
11
90.431
21
-121.355
0
LINE
8
BLACK
6
CONTINUOUS
10
90.431
20
-121.355
11
90.3357
21
-121.26
0
LINE
8
BLACK
6
CONTINUOUS
10
90.3357
20
-121.26
11
90.431
21
-121.164
0
LINE
8
BLACK
6
CONTINUOUS
10
90.431
20
-121.164
11
90.431
21
-121.355
0
LINE
8
BLACK
6
CONTINUOUS
10
92.2405
20
-120.021
11
92.2405
21
-121.355
0
LINE
8
BLACK
6
CONTINUOUS
10
91.7643
20
-119.26
11
91.2881
21
-120.688
0
LINE
8
BLACK
6
CONTINUOUS
10
91.2881
20
-120.688
11
92.5262
21
-120.688
0
LINE
8
BLACK
6
CONTINUOUS
10
93.669
20
-119.355
11
93.8595
21
-119.355
0
LINE
8
BLACK
6
CONTINUOUS
10
93.8595
20
-119.355
11
94.05
21
-119.45
0
LINE
8
BLACK
6
CONTINUOUS
10
94.05
20
-119.45
11
94.1452
21
-119.545
0
LINE
8
BLACK
6
CONTINUOUS
10
94.1452
20
-119.545
11
94.2405
21
-119.736
0
LINE
8
BLACK
6
CONTINUOUS
10
94.2405
20
-119.736
11
94.3357
21
-120.117
0
LINE
8
BLACK
6
CONTINUOUS
10
94.3357
20
-120.117
11
94.3357
21
-120.593
0
LINE
8
BLACK
6
CONTINUOUS
10
94.3357
20
-120.593
11
94.2405
21
-120.974
0
LINE
8
BLACK
6
CONTINUOUS
10
94.2405
20
-120.974
11
94.1452
21
-121.164
0
LINE
8
BLACK
6
CONTINUOUS
10
94.1452
20
-121.164
11
94.05
21
-121.26
0
LINE
8
BLACK
6
CONTINUOUS
10
94.05
20
-121.26
11
93.8595
21
-121.355
0
LINE
8
BLACK
6
CONTINUOUS
10
93.8595
20
-121.355
11
93.669
21
-121.355
0
LINE
8
BLACK
6
CONTINUOUS
10
93.669
20
-121.355
11
93.4786
21
-121.26
0
LINE
8
BLACK
6
CONTINUOUS
10
93.4786
20
-121.26
11
93.3833
21
-121.164
0
LINE
8
BLACK
6
CONTINUOUS
10
93.3833
20
-121.164
11
93.2881
21
-120.974
0
LINE
8
BLACK
6
CONTINUOUS
10
93.2881
20
-120.974
11
93.1929
21
-120.593
0
LINE
8
BLACK
6
CONTINUOUS
10
93.1929
20
-120.593
11
93.1929
21
-120.117
0
LINE
8
BLACK
6
CONTINUOUS
10
93.1929
20
-120.117
11
93.2881
21
-119.736
0
LINE
8
BLACK
6
CONTINUOUS
10
93.2881
20
-119.736
11
93.3833
21
-119.545
0
LINE
8
BLACK
6
CONTINUOUS
10
93.3833
20
-119.545
11
93.4786
21
-119.45
0
LINE
8
BLACK
6
CONTINUOUS
10
93.4786
20
-119.45
11
93.669
21
-119.355
0
LINE
8
BLACK
6
CONTINUOUS
10
95.5738
20
-119.355
11
95.7643
21
-119.355
0
LINE
8
BLACK
6
CONTINUOUS
10
95.7643
20
-119.355
11
95.9548
21
-119.45
0
LINE
8
BLACK
6
CONTINUOUS
10
95.9548
20
-119.45
11
96.05
21
-119.545
0
LINE
8
BLACK
6
CONTINUOUS
10
96.05
20
-119.545
11
96.1452
21
-119.736
0
LINE
8
BLACK
6
CONTINUOUS
10
96.1452
20
-119.736
11
96.2405
21
-120.117
0
LINE
8
BLACK
6
CONTINUOUS
10
96.2405
20
-120.117
11
96.2405
21
-120.593
0
LINE
8
BLACK
6
CONTINUOUS
10
96.2405
20
-120.593
11
96.1452
21
-120.974
0
LINE
8
BLACK
6
CONTINUOUS
10
96.1452
20
-120.974
11
96.05
21
-121.164
0
LINE
8
BLACK
6
CONTINUOUS
10
96.05
20
-121.164
11
95.9548
21
-121.26
0
LINE
8
BLACK
6
CONTINUOUS
10
95.9548
20
-121.26
11
95.7643
21
-121.355
0
LINE
8
BLACK
6
CONTINUOUS
10
95.7643
20
-121.355
11
95.5738
21
-121.355
0
LINE
8
BLACK
6
CONTINUOUS
10
95.5738
20
-121.355
11
95.3833
21
-121.26
0
LINE
8
BLACK
6
CONTINUOUS
10
95.3833
20
-121.26
11
95.2881
21
-121.164
0
LINE
8
BLACK
6
CONTINUOUS
10
95.2881
20
-121.164
11
95.1929
21
-120.974
0
LINE
8
BLACK
6
CONTINUOUS
10
95.1929
20
-120.974
11
95.0976
21
-120.593
0
LINE
8
BLACK
6
CONTINUOUS
10
95.0976
20
-120.593
11
95.0976
21
-120.117
0
LINE
8
BLACK
6
CONTINUOUS
10
95.0976
20
-120.117
11
95.1929
21
-119.736
0
LINE
8
BLACK
6
CONTINUOUS
10
95.1929
20
-119.736
11
95.2881
21
-119.545
0
LINE
8
BLACK
6
CONTINUOUS
10
95.2881
20
-119.545
11
95.3833
21
-119.45
0
LINE
8
BLACK
6
CONTINUOUS
10
95.3833
20
-119.45
11
95.5738
21
-119.355
0
LINE
8
BLACK
6
CONTINUOUS
10
97.0976
20
-121.355
11
97.0976
21
-120.021
0
LINE
8
BLACK
6
CONTINUOUS
10
97.0976
20
-120.212
11
97.1929
21
-120.117
0
LINE
8
BLACK
6
CONTINUOUS
10
97.1929
20
-120.117
11
97.3833
21
-120.021
0
LINE
8
BLACK
6
CONTINUOUS
10
97.3833
20
-120.021
11
97.669
21
-120.021
0
LINE
8
BLACK
6
CONTINUOUS
10
97.669
20
-120.021
11
97.8595
21
-120.117
0
LINE
8
BLACK
6
CONTINUOUS
10
97.8595
20
-120.117
11
97.9548
21
-120.307
0
LINE
8
BLACK
6
CONTINUOUS
10
97.9548
20
-120.307
11
97.9548
21
-121.355
0
LINE
8
BLACK
6
CONTINUOUS
10
97.9548
20
-120.307
11
98.05
21
-120.117
0
LINE
8
BLACK
6
CONTINUOUS
10
98.05
20
-120.117
11
98.2405
21
-120.021
0
LINE
8
BLACK
6
CONTINUOUS
10
98.2405
20
-120.021
11
98.5262
21
-120.021
0
LINE
8
BLACK
6
CONTINUOUS
10
98.5262
20
-120.021
11
98.7167
21
-120.117
0
LINE
8
BLACK
6
CONTINUOUS
10
98.7167
20
-120.117
11
98.8119
21
-120.307
0
LINE
8
BLACK
6
CONTINUOUS
10
98.8119
20
-120.307
11
98.8119
21
-121.355
0
LINE
8
BLACK
6
CONTINUOUS
10
99.7643
20
-121.355
11
99.7643
21
-120.021
0
LINE
8
BLACK
6
CONTINUOUS
10
99.7643
20
-120.212
11
99.8595
21
-120.117
0
LINE
8
BLACK
6
CONTINUOUS
10
99.8595
20
-120.117
11
100.05
21
-120.021
0
LINE
8
BLACK
6
CONTINUOUS
10
100.05
20
-120.021
11
100.336
21
-120.021
0
LINE
8
BLACK
6
CONTINUOUS
10
100.336
20
-120.021
11
100.526
21
-120.117
0
LINE
8
BLACK
6
CONTINUOUS
10
100.526
20
-120.117
11
100.621
21
-120.307
0
LINE
8
BLACK
6
CONTINUOUS
10
100.621
20
-120.307
11
100.621
21
-121.355
0
LINE
8
BLACK
6
CONTINUOUS
10
100.621
20
-120.307
11
100.717
21
-120.117
0
LINE
8
BLACK
6
CONTINUOUS
10
100.717
20
-120.117
11
100.907
21
-120.021
0
LINE
8
BLACK
6
CONTINUOUS
10
100.907
20
-120.021
11
101.193
21
-120.021
0
LINE
8
BLACK
6
CONTINUOUS
10
101.193
20
-120.021
11
101.383
21
-120.117
0
LINE
8
BLACK
6
CONTINUOUS
10
101.383
20
-120.117
11
101.479
21
-120.307
0
LINE
8
BLACK
6
CONTINUOUS
10
101.479
20
-120.307
11
101.479
21
-121.355
0
LINE
8
BLACK
6
CONTINUOUS
10
105.383
20
-119.26
11
103.669
21
-121.831
0
LINE
8
BLACK
6
CONTINUOUS
10
107.955
20
-119.355
11
108.145
21
-119.355
0
LINE
8
BLACK
6
CONTINUOUS
10
108.145
20
-119.355
11
108.336
21
-119.45
0
LINE
8
BLACK
6
CONTINUOUS
10
108.336
20
-119.45
11
108.431
21
-119.545
0
LINE
8
BLACK
6
CONTINUOUS
10
108.431
20
-119.545
11
108.526
21
-119.736
0
LINE
8
BLACK
6
CONTINUOUS
10
108.526
20
-119.736
11
108.621
21
-120.117
0
LINE
8
BLACK
6
CONTINUOUS
10
108.621
20
-120.117
11
108.621
21
-120.593
0
LINE
8
BLACK
6
CONTINUOUS
10
108.621
20
-120.593
11
108.526
21
-120.974
0
LINE
8
BLACK
6
CONTINUOUS
10
108.526
20
-120.974
11
108.431
21
-121.164
0
LINE
8
BLACK
6
CONTINUOUS
10
108.431
20
-121.164
11
108.336
21
-121.26
0
LINE
8
BLACK
6
CONTINUOUS
10
108.336
20
-121.26
11
108.145
21
-121.355
0
LINE
8
BLACK
6
CONTINUOUS
10
108.145
20
-121.355
11
107.955
21
-121.355
0
LINE
8
BLACK
6
CONTINUOUS
10
107.955
20
-121.355
11
107.764
21
-121.26
0
LINE
8
BLACK
6
CONTINUOUS
10
107.764
20
-121.26
11
107.669
21
-121.164
0
LINE
8
BLACK
6
CONTINUOUS
10
107.669
20
-121.164
11
107.574
21
-120.974
0
LINE
8
BLACK
6
CONTINUOUS
10
107.574
20
-120.974
11
107.479
21
-120.593
0
LINE
8
BLACK
6
CONTINUOUS
10
107.479
20
-120.593
11
107.479
21
-120.117
0
LINE
8
BLACK
6
CONTINUOUS
10
107.479
20
-120.117
11
107.574
21
-119.736
0
LINE
8
BLACK
6
CONTINUOUS
10
107.574
20
-119.736
11
107.669
21
-119.545
0
LINE
8
BLACK
6
CONTINUOUS
10
107.669
20
-119.545
11
107.764
21
-119.45
0
LINE
8
BLACK
6
CONTINUOUS
10
107.764
20
-119.45
11
107.955
21
-119.355
0
LINE
8
BLACK
6
CONTINUOUS
10
109.479
20
-121.164
11
109.574
21
-121.26
0
LINE
8
BLACK
6
CONTINUOUS
10
109.574
20
-121.26
11
109.479
21
-121.355
0
LINE
8
BLACK
6
CONTINUOUS
10
109.479
20
-121.355
11
109.383
21
-121.26
0
LINE
8
BLACK
6
CONTINUOUS
10
109.383
20
-121.26
11
109.479
21
-121.164
0
LINE
8
BLACK
6
CONTINUOUS
10
109.479
20
-121.164
11
109.479
21
-121.355
0
LINE
8
BLACK
6
CONTINUOUS
10
110.812
20
-119.355
11
111.002
21
-119.355
0
LINE
8
BLACK
6
CONTINUOUS
10
111.002
20
-119.355
11
111.193
21
-119.45
0
LINE
8
BLACK
6
CONTINUOUS
10
111.193
20
-119.45
11
111.288
21
-119.545
0
LINE
8
BLACK
6
CONTINUOUS
10
111.288
20
-119.545
11
111.383
21
-119.736
0
LINE
8
BLACK
6
CONTINUOUS
10
111.383
20
-119.736
11
111.479
21
-120.117
0
LINE
8
BLACK
6
CONTINUOUS
10
111.479
20
-120.117
11
111.479
21
-120.593
0
LINE
8
BLACK
6
CONTINUOUS
10
111.479
20
-120.593
11
111.383
21
-120.974
0
LINE
8
BLACK
6
CONTINUOUS
10
111.383
20
-120.974
11
111.288
21
-121.164
0
LINE
8
BLACK
6
CONTINUOUS
10
111.288
20
-121.164
11
111.193
21
-121.26
0
LINE
8
BLACK
6
CONTINUOUS
10
111.193
20
-121.26
11
111.002
21
-121.355
0
LINE
8
BLACK
6
CONTINUOUS
10
111.002
20
-121.355
11
110.812
21
-121.355
0
LINE
8
BLACK
6
CONTINUOUS
10
110.812
20
-121.355
11
110.621
21
-121.26
0
LINE
8
BLACK
6
CONTINUOUS
10
110.621
20
-121.26
11
110.526
21
-121.164
0
LINE
8
BLACK
6
CONTINUOUS
10
110.526
20
-121.164
11
110.431
21
-120.974
0
LINE
8
BLACK
6
CONTINUOUS
10
110.431
20
-120.974
11
110.336
21
-120.593
0
LINE
8
BLACK
6
CONTINUOUS
10
110.336
20
-120.593
11
110.336
21
-120.117
0
LINE
8
BLACK
6
CONTINUOUS
10
110.336
20
-120.117
11
110.431
21
-119.736
0
LINE
8
BLACK
6
CONTINUOUS
10
110.431
20
-119.736
11
110.526
21
-119.545
0
LINE
8
BLACK
6
CONTINUOUS
10
110.526
20
-119.545
11
110.621
21
-119.45
0
LINE
8
BLACK
6
CONTINUOUS
10
110.621
20
-119.45
11
110.812
21
-119.355
0
LINE
8
BLACK
6
CONTINUOUS
10
113.383
20
-121.355
11
112.24
21
-121.355
0
LINE
8
BLACK
6
CONTINUOUS
10
112.812
20
-121.355
11
112.812
21
-119.355
0
LINE
8
BLACK
6
CONTINUOUS
10
112.812
20
-119.355
11
112.621
21
-119.64
0
LINE
8
BLACK
6
CONTINUOUS
10
112.621
20
-119.64
11
112.431
21
-119.831
0
LINE
8
BLACK
6
CONTINUOUS
10
112.431
20
-119.831
11
112.24
21
-119.926
0
LINE
8
BLACK
6
CONTINUOUS
10
115.193
20
-119.355
11
114.24
21
-119.355
0
LINE
8
BLACK
6
CONTINUOUS
10
114.24
20
-119.355
11
114.145
21
-120.307
0
LINE
8
BLACK
6
CONTINUOUS
10
114.145
20
-120.307
11
114.24
21
-120.212
0
LINE
8
BLACK
6
CONTINUOUS
10
114.24
20
-120.212
11
114.431
21
-120.117
0
LINE
8
BLACK
6
CONTINUOUS
10
114.431
20
-120.117
11
114.907
21
-120.117
0
LINE
8
BLACK
6
CONTINUOUS
10
114.907
20
-120.117
11
115.098
21
-120.212
0
LINE
8
BLACK
6
CONTINUOUS
10
115.098
20
-120.212
11
115.193
21
-120.307
0
LINE
8
BLACK
6
CONTINUOUS
10
115.193
20
-120.307
11
115.288
21
-120.498
0
LINE
8
BLACK
6
CONTINUOUS
10
115.288
20
-120.498
11
115.288
21
-120.974
0
LINE
8
BLACK
6
CONTINUOUS
10
115.288
20
-120.974
11
115.193
21
-121.164
0
LINE
8
BLACK
6
CONTINUOUS
10
115.193
20
-121.164
11
115.098
21
-121.26
0
LINE
8
BLACK
6
CONTINUOUS
10
115.098
20
-121.26
11
114.907
21
-121.355
0
LINE
8
BLACK
6
CONTINUOUS
10
114.907
20
-121.355
11
114.431
21
-121.355
0
LINE
8
BLACK
6
CONTINUOUS
10
114.431
20
-121.355
11
114.24
21
-121.26
0
LINE
8
BLACK
6
CONTINUOUS
10
114.24
20
-121.26
11
114.145
21
-121.164
0
LINE
8
BLACK
6
CONTINUOUS
10
115.955
20
-119.355
11
117.288
21
-119.355
0
LINE
8
BLACK
6
CONTINUOUS
10
117.288
20
-119.355
11
116.431
21
-121.355
0
LINE
8
BLACK
6
CONTINUOUS
10
117.955
20
-119.355
11
117.955
21
-119.736
0
LINE
8
BLACK
6
CONTINUOUS
10
118.717
20
-119.355
11
118.717
21
-119.736
0
LINE
8
BLACK
6
CONTINUOUS
10
121.669
20
-122.117
11
121.574
21
-122.021
0
LINE
8
BLACK
6
CONTINUOUS
10
121.574
20
-122.021
11
121.383
21
-121.736
0
LINE
8
BLACK
6
CONTINUOUS
10
121.383
20
-121.736
11
121.288
21
-121.545
0
LINE
8
BLACK
6
CONTINUOUS
10
121.288
20
-121.545
11
121.193
21
-121.26
0
LINE
8
BLACK
6
CONTINUOUS
10
121.193
20
-121.26
11
121.098
21
-120.783
0
LINE
8
BLACK
6
CONTINUOUS
10
121.098
20
-120.783
11
121.098
21
-120.402
0
LINE
8
BLACK
6
CONTINUOUS
10
121.098
20
-120.402
11
121.193
21
-119.926
0
LINE
8
BLACK
6
CONTINUOUS
10
121.193
20
-119.926
11
121.288
21
-119.64
0
LINE
8
BLACK
6
CONTINUOUS
10
121.288
20
-119.64
11
121.383
21
-119.45
0
LINE
8
BLACK
6
CONTINUOUS
10
121.383
20
-119.45
11
121.574
21
-119.164
0
LINE
8
BLACK
6
CONTINUOUS
10
121.574
20
-119.164
11
121.669
21
-119.069
0
LINE
8
BLACK
6
CONTINUOUS
10
123.383
20
-119.355
11
122.431
21
-119.355
0
LINE
8
BLACK
6
CONTINUOUS
10
122.431
20
-119.355
11
122.336
21
-120.307
0
LINE
8
BLACK
6
CONTINUOUS
10
122.336
20
-120.307
11
122.431
21
-120.212
0
LINE
8
BLACK
6
CONTINUOUS
10
122.431
20
-120.212
11
122.621
21
-120.117
0
LINE
8
BLACK
6
CONTINUOUS
10
122.621
20
-120.117
11
123.098
21
-120.117
0
LINE
8
BLACK
6
CONTINUOUS
10
123.098
20
-120.117
11
123.288
21
-120.212
0
LINE
8
BLACK
6
CONTINUOUS
10
123.288
20
-120.212
11
123.383
21
-120.307
0
LINE
8
BLACK
6
CONTINUOUS
10
123.383
20
-120.307
11
123.479
21
-120.498
0
LINE
8
BLACK
6
CONTINUOUS
10
123.479
20
-120.498
11
123.479
21
-120.974
0
LINE
8
BLACK
6
CONTINUOUS
10
123.479
20
-120.974
11
123.383
21
-121.164
0
LINE
8
BLACK
6
CONTINUOUS
10
123.383
20
-121.164
11
123.288
21
-121.26
0
LINE
8
BLACK
6
CONTINUOUS
10
123.288
20
-121.26
11
123.098
21
-121.355
0
LINE
8
BLACK
6
CONTINUOUS
10
123.098
20
-121.355
11
122.621
21
-121.355
0
LINE
8
BLACK
6
CONTINUOUS
10
122.621
20
-121.355
11
122.431
21
-121.26
0
LINE
8
BLACK
6
CONTINUOUS
10
122.431
20
-121.26
11
122.336
21
-121.164
0
LINE
8
BLACK
6
CONTINUOUS
10
125.288
20
-119.355
11
124.336
21
-119.355
0
LINE
8
BLACK
6
CONTINUOUS
10
124.336
20
-119.355
11
124.24
21
-120.307
0
LINE
8
BLACK
6
CONTINUOUS
10
124.24
20
-120.307
11
124.336
21
-120.212
0
LINE
8
BLACK
6
CONTINUOUS
10
124.336
20
-120.212
11
124.526
21
-120.117
0
LINE
8
BLACK
6
CONTINUOUS
10
124.526
20
-120.117
11
125.002
21
-120.117
0
LINE
8
BLACK
6
CONTINUOUS
10
125.002
20
-120.117
11
125.193
21
-120.212
0
LINE
8
BLACK
6
CONTINUOUS
10
125.193
20
-120.212
11
125.288
21
-120.307
0
LINE
8
BLACK
6
CONTINUOUS
10
125.288
20
-120.307
11
125.383
21
-120.498
0
LINE
8
BLACK
6
CONTINUOUS
10
125.383
20
-120.498
11
125.383
21
-120.974
0
LINE
8
BLACK
6
CONTINUOUS
10
125.383
20
-120.974
11
125.288
21
-121.164
0
LINE
8
BLACK
6
CONTINUOUS
10
125.288
20
-121.164
11
125.193
21
-121.26
0
LINE
8
BLACK
6
CONTINUOUS
10
125.193
20
-121.26
11
125.002
21
-121.355
0
LINE
8
BLACK
6
CONTINUOUS
10
125.002
20
-121.355
11
124.526
21
-121.355
0
LINE
8
BLACK
6
CONTINUOUS
10
124.526
20
-121.355
11
124.336
21
-121.26
0
LINE
8
BLACK
6
CONTINUOUS
10
124.336
20
-121.26
11
124.24
21
-121.164
0
LINE
8
BLACK
6
CONTINUOUS
10
127.764
20
-121.355
11
127.764
21
-119.355
0
LINE
8
BLACK
6
CONTINUOUS
10
128.621
20
-121.355
11
128.621
21
-120.307
0
LINE
8
BLACK
6
CONTINUOUS
10
128.621
20
-120.307
11
128.526
21
-120.117
0
LINE
8
BLACK
6
CONTINUOUS
10
128.526
20
-120.117
11
128.336
21
-120.021
0
LINE
8
BLACK
6
CONTINUOUS
10
128.336
20
-120.021
11
128.05
21
-120.021
0
LINE
8
BLACK
6
CONTINUOUS
10
128.05
20
-120.021
11
127.86
21
-120.117
0
LINE
8
BLACK
6
CONTINUOUS
10
127.86
20
-120.117
11
127.764
21
-120.212
0
LINE
8
BLACK
6
CONTINUOUS
10
129.86
20
-121.355
11
129.669
21
-121.26
0
LINE
8
BLACK
6
CONTINUOUS
10
129.669
20
-121.26
11
129.574
21
-121.164
0
LINE
8
BLACK
6
CONTINUOUS
10
129.574
20
-121.164
11
129.479
21
-120.974
0
LINE
8
BLACK
6
CONTINUOUS
10
129.479
20
-120.974
11
129.479
21
-120.402
0
LINE
8
BLACK
6
CONTINUOUS
10
129.479
20
-120.402
11
129.574
21
-120.212
0
LINE
8
BLACK
6
CONTINUOUS
10
129.574
20
-120.212
11
129.669
21
-120.117
0
LINE
8
BLACK
6
CONTINUOUS
10
129.669
20
-120.117
11
129.86
21
-120.021
0
LINE
8
BLACK
6
CONTINUOUS
10
129.86
20
-120.021
11
130.145
21
-120.021
0
LINE
8
BLACK
6
CONTINUOUS
10
130.145
20
-120.021
11
130.336
21
-120.117
0
LINE
8
BLACK
6
CONTINUOUS
10
130.336
20
-120.117
11
130.431
21
-120.212
0
LINE
8
BLACK
6
CONTINUOUS
10
130.431
20
-120.212
11
130.526
21
-120.402
0
LINE
8
BLACK
6
CONTINUOUS
10
130.526
20
-120.402
11
130.526
21
-120.974
0
LINE
8
BLACK
6
CONTINUOUS
10
130.526
20
-120.974
11
130.431
21
-121.164
0
LINE
8
BLACK
6
CONTINUOUS
10
130.431
20
-121.164
11
130.336
21
-121.26
0
LINE
8
BLACK
6
CONTINUOUS
10
130.336
20
-121.26
11
130.145
21
-121.355
0
LINE
8
BLACK
6
CONTINUOUS
10
130.145
20
-121.355
11
129.86
21
-121.355
0
LINE
8
BLACK
6
CONTINUOUS
10
131.669
20
-121.355
11
131.479
21
-121.26
0
LINE
8
BLACK
6
CONTINUOUS
10
131.479
20
-121.26
11
131.383
21
-121.069
0
LINE
8
BLACK
6
CONTINUOUS
10
131.383
20
-121.069
11
131.383
21
-119.355
0
LINE
8
BLACK
6
CONTINUOUS
10
133.193
20
-121.26
11
133.002
21
-121.355
0
LINE
8
BLACK
6
CONTINUOUS
10
133.002
20
-121.355
11
132.621
21
-121.355
0
LINE
8
BLACK
6
CONTINUOUS
10
132.621
20
-121.355
11
132.431
21
-121.26
0
LINE
8
BLACK
6
CONTINUOUS
10
132.431
20
-121.26
11
132.336
21
-121.069
0
LINE
8
BLACK
6
CONTINUOUS
10
132.336
20
-121.069
11
132.336
21
-120.307
0
LINE
8
BLACK
6
CONTINUOUS
10
132.336
20
-120.307
11
132.431
21
-120.117
0
LINE
8
BLACK
6
CONTINUOUS
10
132.431
20
-120.117
11
132.621
21
-120.021
0
LINE
8
BLACK
6
CONTINUOUS
10
132.621
20
-120.021
11
133.002
21
-120.021
0
LINE
8
BLACK
6
CONTINUOUS
10
133.002
20
-120.021
11
133.193
21
-120.117
0
LINE
8
BLACK
6
CONTINUOUS
10
133.193
20
-120.117
11
133.288
21
-120.307
0
LINE
8
BLACK
6
CONTINUOUS
10
133.288
20
-120.307
11
133.288
21
-120.498
0
LINE
8
BLACK
6
CONTINUOUS
10
133.288
20
-120.498
11
132.336
21
-120.688
0
LINE
8
BLACK
6
CONTINUOUS
10
134.05
20
-121.26
11
134.24
21
-121.355
0
LINE
8
BLACK
6
CONTINUOUS
10
134.24
20
-121.355
11
134.621
21
-121.355
0
LINE
8
BLACK
6
CONTINUOUS
10
134.621
20
-121.355
11
134.812
21
-121.26
0
LINE
8
BLACK
6
CONTINUOUS
10
134.812
20
-121.26
11
134.907
21
-121.069
0
LINE
8
BLACK
6
CONTINUOUS
10
134.907
20
-121.069
11
134.907
21
-120.974
0
LINE
8
BLACK
6
CONTINUOUS
10
134.907
20
-120.974
11
134.812
21
-120.783
0
LINE
8
BLACK
6
CONTINUOUS
10
134.812
20
-120.783
11
134.621
21
-120.688
0
LINE
8
BLACK
6
CONTINUOUS
10
134.621
20
-120.688
11
134.336
21
-120.688
0
LINE
8
BLACK
6
CONTINUOUS
10
134.336
20
-120.688
11
134.145
21
-120.593
0
LINE
8
BLACK
6
CONTINUOUS
10
134.145
20
-120.593
11
134.05
21
-120.402
0
LINE
8
BLACK
6
CONTINUOUS
10
134.05
20
-120.402
11
134.05
21
-120.307
0
LINE
8
BLACK
6
CONTINUOUS
10
134.05
20
-120.307
11
134.145
21
-120.117
0
LINE
8
BLACK
6
CONTINUOUS
10
134.145
20
-120.117
11
134.336
21
-120.021
0
LINE
8
BLACK
6
CONTINUOUS
10
134.336
20
-120.021
11
134.621
21
-120.021
0
LINE
8
BLACK
6
CONTINUOUS
10
134.621
20
-120.021
11
134.812
21
-120.117
0
LINE
8
BLACK
6
CONTINUOUS
10
135.574
20
-122.117
11
135.669
21
-122.021
0
LINE
8
BLACK
6
CONTINUOUS
10
135.669
20
-122.021
11
135.86
21
-121.736
0
LINE
8
BLACK
6
CONTINUOUS
10
135.86
20
-121.736
11
135.955
21
-121.545
0
LINE
8
BLACK
6
CONTINUOUS
10
135.955
20
-121.545
11
136.05
21
-121.26
0
LINE
8
BLACK
6
CONTINUOUS
10
136.05
20
-121.26
11
136.145
21
-120.783
0
LINE
8
BLACK
6
CONTINUOUS
10
136.145
20
-120.783
11
136.145
21
-120.402
0
LINE
8
BLACK
6
CONTINUOUS
10
136.145
20
-120.402
11
136.05
21
-119.926
0
LINE
8
BLACK
6
CONTINUOUS
10
136.05
20
-119.926
11
135.955
21
-119.64
0
LINE
8
BLACK
6
CONTINUOUS
10
135.955
20
-119.64
11
135.86
21
-119.45
0
LINE
8
BLACK
6
CONTINUOUS
10
135.86
20
-119.45
11
135.669
21
-119.164
0
LINE
8
BLACK
6
CONTINUOUS
10
135.669
20
-119.164
11
135.574
21
-119.069
0
CIRCLE
8
BLACK
10
85.55
20
-123.09
40
0.4
0
LINE
8
BLACK
6
CONTINUOUS
10
88.9071
20
-121.995
11
89.0976
21
-121.995
0
LINE
8
BLACK
6
CONTINUOUS
10
89.0976
20
-121.995
11
89.2881
21
-122.09
0
LINE
8
BLACK
6
CONTINUOUS
10
89.2881
20
-122.09
11
89.3833
21
-122.185
0
LINE
8
BLACK
6
CONTINUOUS
10
89.3833
20
-122.185
11
89.4786
21
-122.376
0
LINE
8
BLACK
6
CONTINUOUS
10
89.4786
20
-122.376
11
89.5738
21
-122.757
0
LINE
8
BLACK
6
CONTINUOUS
10
89.5738
20
-122.757
11
89.5738
21
-123.233
0
LINE
8
BLACK
6
CONTINUOUS
10
89.5738
20
-123.233
11
89.4786
21
-123.614
0
LINE
8
BLACK
6
CONTINUOUS
10
89.4786
20
-123.614
11
89.3833
21
-123.804
0
LINE
8
BLACK
6
CONTINUOUS
10
89.3833
20
-123.804
11
89.2881
21
-123.9
0
LINE
8
BLACK
6
CONTINUOUS
10
89.2881
20
-123.9
11
89.0976
21
-123.995
0
LINE
8
BLACK
6
CONTINUOUS
10
89.0976
20
-123.995
11
88.9071
21
-123.995
0
LINE
8
BLACK
6
CONTINUOUS
10
88.9071
20
-123.995
11
88.7167
21
-123.9
0
LINE
8
BLACK
6
CONTINUOUS
10
88.7167
20
-123.9
11
88.6214
21
-123.804
0
LINE
8
BLACK
6
CONTINUOUS
10
88.6214
20
-123.804
11
88.5262
21
-123.614
0
LINE
8
BLACK
6
CONTINUOUS
10
88.5262
20
-123.614
11
88.431
21
-123.233
0
LINE
8
BLACK
6
CONTINUOUS
10
88.431
20
-123.233
11
88.431
21
-122.757
0
LINE
8
BLACK
6
CONTINUOUS
10
88.431
20
-122.757
11
88.5262
21
-122.376
0
LINE
8
BLACK
6
CONTINUOUS
10
88.5262
20
-122.376
11
88.6214
21
-122.185
0
LINE
8
BLACK
6
CONTINUOUS
10
88.6214
20
-122.185
11
88.7167
21
-122.09
0
LINE
8
BLACK
6
CONTINUOUS
10
88.7167
20
-122.09
11
88.9071
21
-121.995
0
LINE
8
BLACK
6
CONTINUOUS
10
90.431
20
-123.804
11
90.5262
21
-123.9
0
LINE
8
BLACK
6
CONTINUOUS
10
90.5262
20
-123.9
11
90.431
21
-123.995
0
LINE
8
BLACK
6
CONTINUOUS
10
90.431
20
-123.995
11
90.3357
21
-123.9
0
LINE
8
BLACK
6
CONTINUOUS
10
90.3357
20
-123.9
11
90.431
21
-123.804
0
LINE
8
BLACK
6
CONTINUOUS
10
90.431
20
-123.804
11
90.431
21
-123.995
0
LINE
8
BLACK
6
CONTINUOUS
10
91.669
20
-122.852
11
91.4786
21
-122.757
0
LINE
8
BLACK
6
CONTINUOUS
10
91.4786
20
-122.757
11
91.3833
21
-122.661
0
LINE
8
BLACK
6
CONTINUOUS
10
91.3833
20
-122.661
11
91.2881
21
-122.471
0
LINE
8
BLACK
6
CONTINUOUS
10
91.2881
20
-122.471
11
91.2881
21
-122.376
0
LINE
8
BLACK
6
CONTINUOUS
10
91.2881
20
-122.376
11
91.3833
21
-122.185
0
LINE
8
BLACK
6
CONTINUOUS
10
91.3833
20
-122.185
11
91.4786
21
-122.09
0
LINE
8
BLACK
6
CONTINUOUS
10
91.4786
20
-122.09
11
91.669
21
-121.995
0
LINE
8
BLACK
6
CONTINUOUS
10
91.669
20
-121.995
11
92.05
21
-121.995
0
LINE
8
BLACK
6
CONTINUOUS
10
92.05
20
-121.995
11
92.2405
21
-122.09
0
LINE
8
BLACK
6
CONTINUOUS
10
92.2405
20
-122.09
11
92.3357
21
-122.185
0
LINE
8
BLACK
6
CONTINUOUS
10
92.3357
20
-122.185
11
92.431
21
-122.376
0
LINE
8
BLACK
6
CONTINUOUS
10
92.431
20
-122.376
11
92.431
21
-122.471
0
LINE
8
BLACK
6
CONTINUOUS
10
92.431
20
-122.471
11
92.3357
21
-122.661
0
LINE
8
BLACK
6
CONTINUOUS
10
92.3357
20
-122.661
11
92.2405
21
-122.757
0
LINE
8
BLACK
6
CONTINUOUS
10
92.2405
20
-122.757
11
92.05
21
-122.852
0
LINE
8
BLACK
6
CONTINUOUS
10
92.05
20
-122.852
11
91.669
21
-122.852
0
LINE
8
BLACK
6
CONTINUOUS
10
91.669
20
-122.852
11
91.4786
21
-122.947
0
LINE
8
BLACK
6
CONTINUOUS
10
91.4786
20
-122.947
11
91.3833
21
-123.042
0
LINE
8
BLACK
6
CONTINUOUS
10
91.3833
20
-123.042
11
91.2881
21
-123.233
0
LINE
8
BLACK
6
CONTINUOUS
10
91.2881
20
-123.233
11
91.2881
21
-123.614
0
LINE
8
BLACK
6
CONTINUOUS
10
91.2881
20
-123.614
11
91.3833
21
-123.804
0
LINE
8
BLACK
6
CONTINUOUS
10
91.3833
20
-123.804
11
91.4786
21
-123.9
0
LINE
8
BLACK
6
CONTINUOUS
10
91.4786
20
-123.9
11
91.669
21
-123.995
0
LINE
8
BLACK
6
CONTINUOUS
10
91.669
20
-123.995
11
92.05
21
-123.995
0
LINE
8
BLACK
6
CONTINUOUS
10
92.05
20
-123.995
11
92.2405
21
-123.9
0
LINE
8
BLACK
6
CONTINUOUS
10
92.2405
20
-123.9
11
92.3357
21
-123.804
0
LINE
8
BLACK
6
CONTINUOUS
10
92.3357
20
-123.804
11
92.431
21
-123.614
0
LINE
8
BLACK
6
CONTINUOUS
10
92.431
20
-123.614
11
92.431
21
-123.233
0
LINE
8
BLACK
6
CONTINUOUS
10
92.431
20
-123.233
11
92.3357
21
-123.042
0
LINE
8
BLACK
6
CONTINUOUS
10
92.3357
20
-123.042
11
92.2405
21
-122.947
0
LINE
8
BLACK
6
CONTINUOUS
10
92.2405
20
-122.947
11
92.05
21
-122.852
0
LINE
8
BLACK
6
CONTINUOUS
10
93.669
20
-121.995
11
93.8595
21
-121.995
0
LINE
8
BLACK
6
CONTINUOUS
10
93.8595
20
-121.995
11
94.05
21
-122.09
0
LINE
8
BLACK
6
CONTINUOUS
10
94.05
20
-122.09
11
94.1452
21
-122.185
0
LINE
8
BLACK
6
CONTINUOUS
10
94.1452
20
-122.185
11
94.2405
21
-122.376
0
LINE
8
BLACK
6
CONTINUOUS
10
94.2405
20
-122.376
11
94.3357
21
-122.757
0
LINE
8
BLACK
6
CONTINUOUS
10
94.3357
20
-122.757
11
94.3357
21
-123.233
0
LINE
8
BLACK
6
CONTINUOUS
10
94.3357
20
-123.233
11
94.2405
21
-123.614
0
LINE
8
BLACK
6
CONTINUOUS
10
94.2405
20
-123.614
11
94.1452
21
-123.804
0
LINE
8
BLACK
6
CONTINUOUS
10
94.1452
20
-123.804
11
94.05
21
-123.9
0
LINE
8
BLACK
6
CONTINUOUS
10
94.05
20
-123.9
11
93.8595
21
-123.995
0
LINE
8
BLACK
6
CONTINUOUS
10
93.8595
20
-123.995
11
93.669
21
-123.995
0
LINE
8
BLACK
6
CONTINUOUS
10
93.669
20
-123.995
11
93.4786
21
-123.9
0
LINE
8
BLACK
6
CONTINUOUS
10
93.4786
20
-123.9
11
93.3833
21
-123.804
0
LINE
8
BLACK
6
CONTINUOUS
10
93.3833
20
-123.804
11
93.2881
21
-123.614
0
LINE
8
BLACK
6
CONTINUOUS
10
93.2881
20
-123.614
11
93.1929
21
-123.233
0
LINE
8
BLACK
6
CONTINUOUS
10
93.1929
20
-123.233
11
93.1929
21
-122.757
0
LINE
8
BLACK
6
CONTINUOUS
10
93.1929
20
-122.757
11
93.2881
21
-122.376
0
LINE
8
BLACK
6
CONTINUOUS
10
93.2881
20
-122.376
11
93.3833
21
-122.185
0
LINE
8
BLACK
6
CONTINUOUS
10
93.3833
20
-122.185
11
93.4786
21
-122.09
0
LINE
8
BLACK
6
CONTINUOUS
10
93.4786
20
-122.09
11
93.669
21
-121.995
0
LINE
8
BLACK
6
CONTINUOUS
10
95.5738
20
-121.995
11
95.7643
21
-121.995
0
LINE
8
BLACK
6
CONTINUOUS
10
95.7643
20
-121.995
11
95.9548
21
-122.09
0
LINE
8
BLACK
6
CONTINUOUS
10
95.9548
20
-122.09
11
96.05
21
-122.185
0
LINE
8
BLACK
6
CONTINUOUS
10
96.05
20
-122.185
11
96.1452
21
-122.376
0
LINE
8
BLACK
6
CONTINUOUS
10
96.1452
20
-122.376
11
96.2405
21
-122.757
0
LINE
8
BLACK
6
CONTINUOUS
10
96.2405
20
-122.757
11
96.2405
21
-123.233
0
LINE
8
BLACK
6
CONTINUOUS
10
96.2405
20
-123.233
11
96.1452
21
-123.614
0
LINE
8
BLACK
6
CONTINUOUS
10
96.1452
20
-123.614
11
96.05
21
-123.804
0
LINE
8
BLACK
6
CONTINUOUS
10
96.05
20
-123.804
11
95.9548
21
-123.9
0
LINE
8
BLACK
6
CONTINUOUS
10
95.9548
20
-123.9
11
95.7643
21
-123.995
0
LINE
8
BLACK
6
CONTINUOUS
10
95.7643
20
-123.995
11
95.5738
21
-123.995
0
LINE
8
BLACK
6
CONTINUOUS
10
95.5738
20
-123.995
11
95.3833
21
-123.9
0
LINE
8
BLACK
6
CONTINUOUS
10
95.3833
20
-123.9
11
95.2881
21
-123.804
0
LINE
8
BLACK
6
CONTINUOUS
10
95.2881
20
-123.804
11
95.1929
21
-123.614
0
LINE
8
BLACK
6
CONTINUOUS
10
95.1929
20
-123.614
11
95.0976
21
-123.233
0
LINE
8
BLACK
6
CONTINUOUS
10
95.0976
20
-123.233
11
95.0976
21
-122.757
0
LINE
8
BLACK
6
CONTINUOUS
10
95.0976
20
-122.757
11
95.1929
21
-122.376
0
LINE
8
BLACK
6
CONTINUOUS
10
95.1929
20
-122.376
11
95.2881
21
-122.185
0
LINE
8
BLACK
6
CONTINUOUS
10
95.2881
20
-122.185
11
95.3833
21
-122.09
0
LINE
8
BLACK
6
CONTINUOUS
10
95.3833
20
-122.09
11
95.5738
21
-121.995
0
LINE
8
BLACK
6
CONTINUOUS
10
97.0976
20
-123.995
11
97.0976
21
-122.661
0
LINE
8
BLACK
6
CONTINUOUS
10
97.0976
20
-122.852
11
97.1929
21
-122.757
0
LINE
8
BLACK
6
CONTINUOUS
10
97.1929
20
-122.757
11
97.3833
21
-122.661
0
LINE
8
BLACK
6
CONTINUOUS
10
97.3833
20
-122.661
11
97.669
21
-122.661
0
LINE
8
BLACK
6
CONTINUOUS
10
97.669
20
-122.661
11
97.8595
21
-122.757
0
LINE
8
BLACK
6
CONTINUOUS
10
97.8595
20
-122.757
11
97.9548
21
-122.947
0
LINE
8
BLACK
6
CONTINUOUS
10
97.9548
20
-122.947
11
97.9548
21
-123.995
0
LINE
8
BLACK
6
CONTINUOUS
10
97.9548
20
-122.947
11
98.05
21
-122.757
0
LINE
8
BLACK
6
CONTINUOUS
10
98.05
20
-122.757
11
98.2405
21
-122.661
0
LINE
8
BLACK
6
CONTINUOUS
10
98.2405
20
-122.661
11
98.5262
21
-122.661
0
LINE
8
BLACK
6
CONTINUOUS
10
98.5262
20
-122.661
11
98.7167
21
-122.757
0
LINE
8
BLACK
6
CONTINUOUS
10
98.7167
20
-122.757
11
98.8119
21
-122.947
0
LINE
8
BLACK
6
CONTINUOUS
10
98.8119
20
-122.947
11
98.8119
21
-123.995
0
LINE
8
BLACK
6
CONTINUOUS
10
99.7643
20
-123.995
11
99.7643
21
-122.661
0
LINE
8
BLACK
6
CONTINUOUS
10
99.7643
20
-122.852
11
99.8595
21
-122.757
0
LINE
8
BLACK
6
CONTINUOUS
10
99.8595
20
-122.757
11
100.05
21
-122.661
0
LINE
8
BLACK
6
CONTINUOUS
10
100.05
20
-122.661
11
100.336
21
-122.661
0
LINE
8
BLACK
6
CONTINUOUS
10
100.336
20
-122.661
11
100.526
21
-122.757
0
LINE
8
BLACK
6
CONTINUOUS
10
100.526
20
-122.757
11
100.621
21
-122.947
0
LINE
8
BLACK
6
CONTINUOUS
10
100.621
20
-122.947
11
100.621
21
-123.995
0
LINE
8
BLACK
6
CONTINUOUS
10
100.621
20
-122.947
11
100.717
21
-122.757
0
LINE
8
BLACK
6
CONTINUOUS
10
100.717
20
-122.757
11
100.907
21
-122.661
0
LINE
8
BLACK
6
CONTINUOUS
10
100.907
20
-122.661
11
101.193
21
-122.661
0
LINE
8
BLACK
6
CONTINUOUS
10
101.193
20
-122.661
11
101.383
21
-122.757
0
LINE
8
BLACK
6
CONTINUOUS
10
101.383
20
-122.757
11
101.479
21
-122.947
0
LINE
8
BLACK
6
CONTINUOUS
10
101.479
20
-122.947
11
101.479
21
-123.995
0
LINE
8
BLACK
6
CONTINUOUS
10
105.383
20
-121.9
11
103.669
21
-124.471
0
LINE
8
BLACK
6
CONTINUOUS
10
107.955
20
-121.995
11
108.145
21
-121.995
0
LINE
8
BLACK
6
CONTINUOUS
10
108.145
20
-121.995
11
108.336
21
-122.09
0
LINE
8
BLACK
6
CONTINUOUS
10
108.336
20
-122.09
11
108.431
21
-122.185
0
LINE
8
BLACK
6
CONTINUOUS
10
108.431
20
-122.185
11
108.526
21
-122.376
0
LINE
8
BLACK
6
CONTINUOUS
10
108.526
20
-122.376
11
108.621
21
-122.757
0
LINE
8
BLACK
6
CONTINUOUS
10
108.621
20
-122.757
11
108.621
21
-123.233
0
LINE
8
BLACK
6
CONTINUOUS
10
108.621
20
-123.233
11
108.526
21
-123.614
0
LINE
8
BLACK
6
CONTINUOUS
10
108.526
20
-123.614
11
108.431
21
-123.804
0
LINE
8
BLACK
6
CONTINUOUS
10
108.431
20
-123.804
11
108.336
21
-123.9
0
LINE
8
BLACK
6
CONTINUOUS
10
108.336
20
-123.9
11
108.145
21
-123.995
0
LINE
8
BLACK
6
CONTINUOUS
10
108.145
20
-123.995
11
107.955
21
-123.995
0
LINE
8
BLACK
6
CONTINUOUS
10
107.955
20
-123.995
11
107.764
21
-123.9
0
LINE
8
BLACK
6
CONTINUOUS
10
107.764
20
-123.9
11
107.669
21
-123.804
0
LINE
8
BLACK
6
CONTINUOUS
10
107.669
20
-123.804
11
107.574
21
-123.614
0
LINE
8
BLACK
6
CONTINUOUS
10
107.574
20
-123.614
11
107.479
21
-123.233
0
LINE
8
BLACK
6
CONTINUOUS
10
107.479
20
-123.233
11
107.479
21
-122.757
0
LINE
8
BLACK
6
CONTINUOUS
10
107.479
20
-122.757
11
107.574
21
-122.376
0
LINE
8
BLACK
6
CONTINUOUS
10
107.574
20
-122.376
11
107.669
21
-122.185
0
LINE
8
BLACK
6
CONTINUOUS
10
107.669
20
-122.185
11
107.764
21
-122.09
0
LINE
8
BLACK
6
CONTINUOUS
10
107.764
20
-122.09
11
107.955
21
-121.995
0
LINE
8
BLACK
6
CONTINUOUS
10
109.479
20
-123.804
11
109.574
21
-123.9
0
LINE
8
BLACK
6
CONTINUOUS
10
109.574
20
-123.9
11
109.479
21
-123.995
0
LINE
8
BLACK
6
CONTINUOUS
10
109.479
20
-123.995
11
109.383
21
-123.9
0
LINE
8
BLACK
6
CONTINUOUS
10
109.383
20
-123.9
11
109.479
21
-123.804
0
LINE
8
BLACK
6
CONTINUOUS
10
109.479
20
-123.804
11
109.479
21
-123.995
0
LINE
8
BLACK
6
CONTINUOUS
10
110.812
20
-121.995
11
111.002
21
-121.995
0
LINE
8
BLACK
6
CONTINUOUS
10
111.002
20
-121.995
11
111.193
21
-122.09
0
LINE
8
BLACK
6
CONTINUOUS
10
111.193
20
-122.09
11
111.288
21
-122.185
0
LINE
8
BLACK
6
CONTINUOUS
10
111.288
20
-122.185
11
111.383
21
-122.376
0
LINE
8
BLACK
6
CONTINUOUS
10
111.383
20
-122.376
11
111.479
21
-122.757
0
LINE
8
BLACK
6
CONTINUOUS
10
111.479
20
-122.757
11
111.479
21
-123.233
0
LINE
8
BLACK
6
CONTINUOUS
10
111.479
20
-123.233
11
111.383
21
-123.614
0
LINE
8
BLACK
6
CONTINUOUS
10
111.383
20
-123.614
11
111.288
21
-123.804
0
LINE
8
BLACK
6
CONTINUOUS
10
111.288
20
-123.804
11
111.193
21
-123.9
0
LINE
8
BLACK
6
CONTINUOUS
10
111.193
20
-123.9
11
111.002
21
-123.995
0
LINE
8
BLACK
6
CONTINUOUS
10
111.002
20
-123.995
11
110.812
21
-123.995
0
LINE
8
BLACK
6
CONTINUOUS
10
110.812
20
-123.995
11
110.621
21
-123.9
0
LINE
8
BLACK
6
CONTINUOUS
10
110.621
20
-123.9
11
110.526
21
-123.804
0
LINE
8
BLACK
6
CONTINUOUS
10
110.526
20
-123.804
11
110.431
21
-123.614
0
LINE
8
BLACK
6
CONTINUOUS
10
110.431
20
-123.614
11
110.336
21
-123.233
0
LINE
8
BLACK
6
CONTINUOUS
10
110.336
20
-123.233
11
110.336
21
-122.757
0
LINE
8
BLACK
6
CONTINUOUS
10
110.336
20
-122.757
11
110.431
21
-122.376
0
LINE
8
BLACK
6
CONTINUOUS
10
110.431
20
-122.376
11
110.526
21
-122.185
0
LINE
8
BLACK
6
CONTINUOUS
10
110.526
20
-122.185
11
110.621
21
-122.09
0
LINE
8
BLACK
6
CONTINUOUS
10
110.621
20
-122.09
11
110.812
21
-121.995
0
LINE
8
BLACK
6
CONTINUOUS
10
112.145
20
-121.995
11
113.383
21
-121.995
0
LINE
8
BLACK
6
CONTINUOUS
10
113.383
20
-121.995
11
112.717
21
-122.757
0
LINE
8
BLACK
6
CONTINUOUS
10
112.717
20
-122.757
11
113.002
21
-122.757
0
LINE
8
BLACK
6
CONTINUOUS
10
113.002
20
-122.757
11
113.193
21
-122.852
0
LINE
8
BLACK
6
CONTINUOUS
10
113.193
20
-122.852
11
113.288
21
-122.947
0
LINE
8
BLACK
6
CONTINUOUS
10
113.288
20
-122.947
11
113.383
21
-123.138
0
LINE
8
BLACK
6
CONTINUOUS
10
113.383
20
-123.138
11
113.383
21
-123.614
0
LINE
8
BLACK
6
CONTINUOUS
10
113.383
20
-123.614
11
113.288
21
-123.804
0
LINE
8
BLACK
6
CONTINUOUS
10
113.288
20
-123.804
11
113.193
21
-123.9
0
LINE
8
BLACK
6
CONTINUOUS
10
113.193
20
-123.9
11
113.002
21
-123.995
0
LINE
8
BLACK
6
CONTINUOUS
10
113.002
20
-123.995
11
112.431
21
-123.995
0
LINE
8
BLACK
6
CONTINUOUS
10
112.431
20
-123.995
11
112.24
21
-123.9
0
LINE
8
BLACK
6
CONTINUOUS
10
112.24
20
-123.9
11
112.145
21
-123.804
0
LINE
8
BLACK
6
CONTINUOUS
10
115.288
20
-123.995
11
114.145
21
-123.995
0
LINE
8
BLACK
6
CONTINUOUS
10
114.717
20
-123.995
11
114.717
21
-121.995
0
LINE
8
BLACK
6
CONTINUOUS
10
114.717
20
-121.995
11
114.526
21
-122.28
0
LINE
8
BLACK
6
CONTINUOUS
10
114.526
20
-122.28
11
114.336
21
-122.471
0
LINE
8
BLACK
6
CONTINUOUS
10
114.336
20
-122.471
11
114.145
21
-122.566
0
LINE
8
BLACK
6
CONTINUOUS
10
117.098
20
-121.995
11
116.145
21
-121.995
0
LINE
8
BLACK
6
CONTINUOUS
10
116.145
20
-121.995
11
116.05
21
-122.947
0
LINE
8
BLACK
6
CONTINUOUS
10
116.05
20
-122.947
11
116.145
21
-122.852
0
LINE
8
BLACK
6
CONTINUOUS
10
116.145
20
-122.852
11
116.336
21
-122.757
0
LINE
8
BLACK
6
CONTINUOUS
10
116.336
20
-122.757
11
116.812
21
-122.757
0
LINE
8
BLACK
6
CONTINUOUS
10
116.812
20
-122.757
11
117.002
21
-122.852
0
LINE
8
BLACK
6
CONTINUOUS
10
117.002
20
-122.852
11
117.098
21
-122.947
0
LINE
8
BLACK
6
CONTINUOUS
10
117.098
20
-122.947
11
117.193
21
-123.138
0
LINE
8
BLACK
6
CONTINUOUS
10
117.193
20
-123.138
11
117.193
21
-123.614
0
LINE
8
BLACK
6
CONTINUOUS
10
117.193
20
-123.614
11
117.098
21
-123.804
0
LINE
8
BLACK
6
CONTINUOUS
10
117.098
20
-123.804
11
117.002
21
-123.9
0
LINE
8
BLACK
6
CONTINUOUS
10
117.002
20
-123.9
11
116.812
21
-123.995
0
LINE
8
BLACK
6
CONTINUOUS
10
116.812
20
-123.995
11
116.336
21
-123.995
0
LINE
8
BLACK
6
CONTINUOUS
10
116.336
20
-123.995
11
116.145
21
-123.9
0
LINE
8
BLACK
6
CONTINUOUS
10
116.145
20
-123.9
11
116.05
21
-123.804
0
LINE
8
BLACK
6
CONTINUOUS
10
117.955
20
-121.995
11
117.955
21
-122.376
0
LINE
8
BLACK
6
CONTINUOUS
10
118.717
20
-121.995
11
118.717
21
-122.376
0
LINE
8
BLACK
6
CONTINUOUS
10
121.669
20
-124.757
11
121.574
21
-124.661
0
LINE
8
BLACK
6
CONTINUOUS
10
121.574
20
-124.661
11
121.383
21
-124.376
0
LINE
8
BLACK
6
CONTINUOUS
10
121.383
20
-124.376
11
121.288
21
-124.185
0
LINE
8
BLACK
6
CONTINUOUS
10
121.288
20
-124.185
11
121.193
21
-123.9
0
LINE
8
BLACK
6
CONTINUOUS
10
121.193
20
-123.9
11
121.098
21
-123.423
0
LINE
8
BLACK
6
CONTINUOUS
10
121.098
20
-123.423
11
121.098
21
-123.042
0
LINE
8
BLACK
6
CONTINUOUS
10
121.098
20
-123.042
11
121.193
21
-122.566
0
LINE
8
BLACK
6
CONTINUOUS
10
121.193
20
-122.566
11
121.288
21
-122.28
0
LINE
8
BLACK
6
CONTINUOUS
10
121.288
20
-122.28
11
121.383
21
-122.09
0
LINE
8
BLACK
6
CONTINUOUS
10
121.383
20
-122.09
11
121.574
21
-121.804
0
LINE
8
BLACK
6
CONTINUOUS
10
121.574
20
-121.804
11
121.669
21
-121.709
0
LINE
8
BLACK
6
CONTINUOUS
10
122.336
20
-122.185
11
122.431
21
-122.09
0
LINE
8
BLACK
6
CONTINUOUS
10
122.431
20
-122.09
11
122.621
21
-121.995
0
LINE
8
BLACK
6
CONTINUOUS
10
122.621
20
-121.995
11
123.098
21
-121.995
0
LINE
8
BLACK
6
CONTINUOUS
10
123.098
20
-121.995
11
123.288
21
-122.09
0
LINE
8
BLACK
6
CONTINUOUS
10
123.288
20
-122.09
11
123.383
21
-122.185
0
LINE
8
BLACK
6
CONTINUOUS
10
123.383
20
-122.185
11
123.479
21
-122.376
0
LINE
8
BLACK
6
CONTINUOUS
10
123.479
20
-122.376
11
123.479
21
-122.566
0
LINE
8
BLACK
6
CONTINUOUS
10
123.479
20
-122.566
11
123.383
21
-122.852
0
LINE
8
BLACK
6
CONTINUOUS
10
123.383
20
-122.852
11
122.24
21
-123.995
0
LINE
8
BLACK
6
CONTINUOUS
10
122.24
20
-123.995
11
123.479
21
-123.995
0
LINE
8
BLACK
6
CONTINUOUS
10
125.86
20
-123.995
11
125.86
21
-121.995
0
LINE
8
BLACK
6
CONTINUOUS
10
126.717
20
-123.995
11
126.717
21
-122.947
0
LINE
8
BLACK
6
CONTINUOUS
10
126.717
20
-122.947
11
126.621
21
-122.757
0
LINE
8
BLACK
6
CONTINUOUS
10
126.621
20
-122.757
11
126.431
21
-122.661
0
LINE
8
BLACK
6
CONTINUOUS
10
126.431
20
-122.661
11
126.145
21
-122.661
0
LINE
8
BLACK
6
CONTINUOUS
10
126.145
20
-122.661
11
125.955
21
-122.757
0
LINE
8
BLACK
6
CONTINUOUS
10
125.955
20
-122.757
11
125.86
21
-122.852
0
LINE
8
BLACK
6
CONTINUOUS
10
127.955
20
-123.995
11
127.764
21
-123.9
0
LINE
8
BLACK
6
CONTINUOUS
10
127.764
20
-123.9
11
127.669
21
-123.804
0
LINE
8
BLACK
6
CONTINUOUS
10
127.669
20
-123.804
11
127.574
21
-123.614
0
LINE
8
BLACK
6
CONTINUOUS
10
127.574
20
-123.614
11
127.574
21
-123.042
0
LINE
8
BLACK
6
CONTINUOUS
10
127.574
20
-123.042
11
127.669
21
-122.852
0
LINE
8
BLACK
6
CONTINUOUS
10
127.669
20
-122.852
11
127.764
21
-122.757
0
LINE
8
BLACK
6
CONTINUOUS
10
127.764
20
-122.757
11
127.955
21
-122.661
0
LINE
8
BLACK
6
CONTINUOUS
10
127.955
20
-122.661
11
128.24
21
-122.661
0
LINE
8
BLACK
6
CONTINUOUS
10
128.24
20
-122.661
11
128.431
21
-122.757
0
LINE
8
BLACK
6
CONTINUOUS
10
128.431
20
-122.757
11
128.526
21
-122.852
0
LINE
8
BLACK
6
CONTINUOUS
10
128.526
20
-122.852
11
128.621
21
-123.042
0
LINE
8
BLACK
6
CONTINUOUS
10
128.621
20
-123.042
11
128.621
21
-123.614
0
LINE
8
BLACK
6
CONTINUOUS
10
128.621
20
-123.614
11
128.526
21
-123.804
0
LINE
8
BLACK
6
CONTINUOUS
10
128.526
20
-123.804
11
128.431
21
-123.9
0
LINE
8
BLACK
6
CONTINUOUS
10
128.431
20
-123.9
11
128.24
21
-123.995
0
LINE
8
BLACK
6
CONTINUOUS
10
128.24
20
-123.995
11
127.955
21
-123.995
0
LINE
8
BLACK
6
CONTINUOUS
10
129.764
20
-123.995
11
129.574
21
-123.9
0
LINE
8
BLACK
6
CONTINUOUS
10
129.574
20
-123.9
11
129.479
21
-123.709
0
LINE
8
BLACK
6
CONTINUOUS
10
129.479
20
-123.709
11
129.479
21
-121.995
0
LINE
8
BLACK
6
CONTINUOUS
10
131.288
20
-123.9
11
131.098
21
-123.995
0
LINE
8
BLACK
6
CONTINUOUS
10
131.098
20
-123.995
11
130.717
21
-123.995
0
LINE
8
BLACK
6
CONTINUOUS
10
130.717
20
-123.995
11
130.526
21
-123.9
0
LINE
8
BLACK
6
CONTINUOUS
10
130.526
20
-123.9
11
130.431
21
-123.709
0
LINE
8
BLACK
6
CONTINUOUS
10
130.431
20
-123.709
11
130.431
21
-122.947
0
LINE
8
BLACK
6
CONTINUOUS
10
130.431
20
-122.947
11
130.526
21
-122.757
0
LINE
8
BLACK
6
CONTINUOUS
10
130.526
20
-122.757
11
130.717
21
-122.661
0
LINE
8
BLACK
6
CONTINUOUS
10
130.717
20
-122.661
11
131.098
21
-122.661
0
LINE
8
BLACK
6
CONTINUOUS
10
131.098
20
-122.661
11
131.288
21
-122.757
0
LINE
8
BLACK
6
CONTINUOUS
10
131.288
20
-122.757
11
131.383
21
-122.947
0
LINE
8
BLACK
6
CONTINUOUS
10
131.383
20
-122.947
11
131.383
21
-123.138
0
LINE
8
BLACK
6
CONTINUOUS
10
131.383
20
-123.138
11
130.431
21
-123.328
0
LINE
8
BLACK
6
CONTINUOUS
10
132.145
20
-123.9
11
132.336
21
-123.995
0
LINE
8
BLACK
6
CONTINUOUS
10
132.336
20
-123.995
11
132.717
21
-123.995
0
LINE
8
BLACK
6
CONTINUOUS
10
132.717
20
-123.995
11
132.907
21
-123.9
0
LINE
8
BLACK
6
CONTINUOUS
10
132.907
20
-123.9
11
133.002
21
-123.709
0
LINE
8
BLACK
6
CONTINUOUS
10
133.002
20
-123.709
11
133.002
21
-123.614
0
LINE
8
BLACK
6
CONTINUOUS
10
133.002
20
-123.614
11
132.907
21
-123.423
0
LINE
8
BLACK
6
CONTINUOUS
10
132.907
20
-123.423
11
132.717
21
-123.328
0
LINE
8
BLACK
6
CONTINUOUS
10
132.717
20
-123.328
11
132.431
21
-123.328
0
LINE
8
BLACK
6
CONTINUOUS
10
132.431
20
-123.328
11
132.24
21
-123.233
0
LINE
8
BLACK
6
CONTINUOUS
10
132.24
20
-123.233
11
132.145
21
-123.042
0
LINE
8
BLACK
6
CONTINUOUS
10
132.145
20
-123.042
11
132.145
21
-122.947
0
LINE
8
BLACK
6
CONTINUOUS
10
132.145
20
-122.947
11
132.24
21
-122.757
0
LINE
8
BLACK
6
CONTINUOUS
10
132.24
20
-122.757
11
132.431
21
-122.661
0
LINE
8
BLACK
6
CONTINUOUS
10
132.431
20
-122.661
11
132.717
21
-122.661
0
LINE
8
BLACK
6
CONTINUOUS
10
132.717
20
-122.661
11
132.907
21
-122.757
0
LINE
8
BLACK
6
CONTINUOUS
10
133.669
20
-124.757
11
133.764
21
-124.661
0
LINE
8
BLACK
6
CONTINUOUS
10
133.764
20
-124.661
11
133.955
21
-124.376
0
LINE
8
BLACK
6
CONTINUOUS
10
133.955
20
-124.376
11
134.05
21
-124.185
0
LINE
8
BLACK
6
CONTINUOUS
10
134.05
20
-124.185
11
134.145
21
-123.9
0
LINE
8
BLACK
6
CONTINUOUS
10
134.145
20
-123.9
11
134.24
21
-123.423
0
LINE
8
BLACK
6
CONTINUOUS
10
134.24
20
-123.423
11
134.24
21
-123.042
0
LINE
8
BLACK
6
CONTINUOUS
10
134.24
20
-123.042
11
134.145
21
-122.566
0
LINE
8
BLACK
6
CONTINUOUS
10
134.145
20
-122.566
11
134.05
21
-122.28
0
LINE
8
BLACK
6
CONTINUOUS
10
134.05
20
-122.28
11
133.955
21
-122.09
0
LINE
8
BLACK
6
CONTINUOUS
10
133.955
20
-122.09
11
133.764
21
-121.804
0
LINE
8
BLACK
6
CONTINUOUS
10
133.764
20
-121.804
11
133.669
21
-121.709
0
LINE
8
BLACK
6
CONTINUOUS
10
137.288
20
-124.757
11
137.193
21
-124.661
0
LINE
8
BLACK
6
CONTINUOUS
10
137.193
20
-124.661
11
137.002
21
-124.376
0
LINE
8
BLACK
6
CONTINUOUS
10
137.002
20
-124.376
11
136.907
21
-124.185
0
LINE
8
BLACK
6
CONTINUOUS
10
136.907
20
-124.185
11
136.812
21
-123.9
0
LINE
8
BLACK
6
CONTINUOUS
10
136.812
20
-123.9
11
136.717
21
-123.423
0
LINE
8
BLACK
6
CONTINUOUS
10
136.717
20
-123.423
11
136.717
21
-123.042
0
LINE
8
BLACK
6
CONTINUOUS
10
136.717
20
-123.042
11
136.812
21
-122.566
0
LINE
8
BLACK
6
CONTINUOUS
10
136.812
20
-122.566
11
136.907
21
-122.28
0
LINE
8
BLACK
6
CONTINUOUS
10
136.907
20
-122.28
11
137.002
21
-122.09
0
LINE
8
BLACK
6
CONTINUOUS
10
137.002
20
-122.09
11
137.193
21
-121.804
0
LINE
8
BLACK
6
CONTINUOUS
10
137.193
20
-121.804
11
137.288
21
-121.709
0
LINE
8
BLACK
6
CONTINUOUS
10
138.05
20
-122.661
11
138.05
21
-123.995
0
LINE
8
BLACK
6
CONTINUOUS
10
138.05
20
-122.852
11
138.145
21
-122.757
0
LINE
8
BLACK
6
CONTINUOUS
10
138.145
20
-122.757
11
138.336
21
-122.661
0
LINE
8
BLACK
6
CONTINUOUS
10
138.336
20
-122.661
11
138.621
21
-122.661
0
LINE
8
BLACK
6
CONTINUOUS
10
138.621
20
-122.661
11
138.812
21
-122.757
0
LINE
8
BLACK
6
CONTINUOUS
10
138.812
20
-122.757
11
138.907
21
-122.947
0
LINE
8
BLACK
6
CONTINUOUS
10
138.907
20
-122.947
11
138.907
21
-123.995
0
LINE
8
BLACK
6
CONTINUOUS
10
140.145
20
-123.995
11
139.955
21
-123.9
0
LINE
8
BLACK
6
CONTINUOUS
10
139.955
20
-123.9
11
139.86
21
-123.804
0
LINE
8
BLACK
6
CONTINUOUS
10
139.86
20
-123.804
11
139.764
21
-123.614
0
LINE
8
BLACK
6
CONTINUOUS
10
139.764
20
-123.614
11
139.764
21
-123.042
0
LINE
8
BLACK
6
CONTINUOUS
10
139.764
20
-123.042
11
139.86
21
-122.852
0
LINE
8
BLACK
6
CONTINUOUS
10
139.86
20
-122.852
11
139.955
21
-122.757
0
LINE
8
BLACK
6
CONTINUOUS
10
139.955
20
-122.757
11
140.145
21
-122.661
0
LINE
8
BLACK
6
CONTINUOUS
10
140.145
20
-122.661
11
140.431
21
-122.661
0
LINE
8
BLACK
6
CONTINUOUS
10
140.431
20
-122.661
11
140.621
21
-122.757
0
LINE
8
BLACK
6
CONTINUOUS
10
140.621
20
-122.757
11
140.717
21
-122.852
0
LINE
8
BLACK
6
CONTINUOUS
10
140.717
20
-122.852
11
140.812
21
-123.042
0
LINE
8
BLACK
6
CONTINUOUS
10
140.812
20
-123.042
11
140.812
21
-123.614
0
LINE
8
BLACK
6
CONTINUOUS
10
140.812
20
-123.614
11
140.717
21
-123.804
0
LINE
8
BLACK
6
CONTINUOUS
10
140.717
20
-123.804
11
140.621
21
-123.9
0
LINE
8
BLACK
6
CONTINUOUS
10
140.621
20
-123.9
11
140.431
21
-123.995
0
LINE
8
BLACK
6
CONTINUOUS
10
140.431
20
-123.995
11
140.145
21
-123.995
0
LINE
8
BLACK
6
CONTINUOUS
10
141.383
20
-122.661
11
142.145
21
-122.661
0
LINE
8
BLACK
6
CONTINUOUS
10
141.669
20
-121.995
11
141.669
21
-123.709
0
LINE
8
BLACK
6
CONTINUOUS
10
141.669
20
-123.709
11
141.764
21
-123.9
0
LINE
8
BLACK
6
CONTINUOUS
10
141.764
20
-123.9
11
141.955
21
-123.995
0
LINE
8
BLACK
6
CONTINUOUS
10
141.955
20
-123.995
11
142.145
21
-123.995
0
LINE
8
BLACK
6
CONTINUOUS
10
144.336
20
-122.661
11
144.336
21
-124.661
0
LINE
8
BLACK
6
CONTINUOUS
10
144.336
20
-122.757
11
144.526
21
-122.661
0
LINE
8
BLACK
6
CONTINUOUS
10
144.526
20
-122.661
11
144.907
21
-122.661
0
LINE
8
BLACK
6
CONTINUOUS
10
144.907
20
-122.661
11
145.098
21
-122.757
0
LINE
8
BLACK
6
CONTINUOUS
10
145.098
20
-122.757
11
145.193
21
-122.852
0
LINE
8
BLACK
6
CONTINUOUS
10
145.193
20
-122.852
11
145.288
21
-123.042
0
LINE
8
BLACK
6
CONTINUOUS
10
145.288
20
-123.042
11
145.288
21
-123.614
0
LINE
8
BLACK
6
CONTINUOUS
10
145.288
20
-123.614
11
145.193
21
-123.804
0
LINE
8
BLACK
6
CONTINUOUS
10
145.193
20
-123.804
11
145.098
21
-123.9
0
LINE
8
BLACK
6
CONTINUOUS
10
145.098
20
-123.9
11
144.907
21
-123.995
0
LINE
8
BLACK
6
CONTINUOUS
10
144.907
20
-123.995
11
144.526
21
-123.995
0
LINE
8
BLACK
6
CONTINUOUS
10
144.526
20
-123.995
11
144.336
21
-123.9
0
LINE
8
BLACK
6
CONTINUOUS
10
146.431
20
-123.995
11
146.24
21
-123.9
0
LINE
8
BLACK
6
CONTINUOUS
10
146.24
20
-123.9
11
146.145
21
-123.709
0
LINE
8
BLACK
6
CONTINUOUS
10
146.145
20
-123.709
11
146.145
21
-121.995
0
LINE
8
BLACK
6
CONTINUOUS
10
148.05
20
-123.995
11
148.05
21
-122.947
0
LINE
8
BLACK
6
CONTINUOUS
10
148.05
20
-122.947
11
147.955
21
-122.757
0
LINE
8
BLACK
6
CONTINUOUS
10
147.955
20
-122.757
11
147.764
21
-122.661
0
LINE
8
BLACK
6
CONTINUOUS
10
147.764
20
-122.661
11
147.383
21
-122.661
0
LINE
8
BLACK
6
CONTINUOUS
10
147.383
20
-122.661
11
147.193
21
-122.757
0
LINE
8
BLACK
6
CONTINUOUS
10
148.05
20
-123.9
11
147.86
21
-123.995
0
LINE
8
BLACK
6
CONTINUOUS
10
147.86
20
-123.995
11
147.383
21
-123.995
0
LINE
8
BLACK
6
CONTINUOUS
10
147.383
20
-123.995
11
147.193
21
-123.9
0
LINE
8
BLACK
6
CONTINUOUS
10
147.193
20
-123.9
11
147.098
21
-123.709
0
LINE
8
BLACK
6
CONTINUOUS
10
147.098
20
-123.709
11
147.098
21
-123.519
0
LINE
8
BLACK
6
CONTINUOUS
10
147.098
20
-123.519
11
147.193
21
-123.328
0
LINE
8
BLACK
6
CONTINUOUS
10
147.193
20
-123.328
11
147.383
21
-123.233
0
LINE
8
BLACK
6
CONTINUOUS
10
147.383
20
-123.233
11
147.86
21
-123.233
0
LINE
8
BLACK
6
CONTINUOUS
10
147.86
20
-123.233
11
148.05
21
-123.138
0
LINE
8
BLACK
6
CONTINUOUS
10
148.717
20
-122.661
11
149.479
21
-122.661
0
LINE
8
BLACK
6
CONTINUOUS
10
149.002
20
-121.995
11
149.002
21
-123.709
0
LINE
8
BLACK
6
CONTINUOUS
10
149.002
20
-123.709
11
149.098
21
-123.9
0
LINE
8
BLACK
6
CONTINUOUS
10
149.098
20
-123.9
11
149.288
21
-123.995
0
LINE
8
BLACK
6
CONTINUOUS
10
149.288
20
-123.995
11
149.479
21
-123.995
0
LINE
8
BLACK
6
CONTINUOUS
10
150.907
20
-123.9
11
150.717
21
-123.995
0
LINE
8
BLACK
6
CONTINUOUS
10
150.717
20
-123.995
11
150.336
21
-123.995
0
LINE
8
BLACK
6
CONTINUOUS
10
150.336
20
-123.995
11
150.145
21
-123.9
0
LINE
8
BLACK
6
CONTINUOUS
10
150.145
20
-123.9
11
150.05
21
-123.709
0
LINE
8
BLACK
6
CONTINUOUS
10
150.05
20
-123.709
11
150.05
21
-122.947
0
LINE
8
BLACK
6
CONTINUOUS
10
150.05
20
-122.947
11
150.145
21
-122.757
0
LINE
8
BLACK
6
CONTINUOUS
10
150.145
20
-122.757
11
150.336
21
-122.661
0
LINE
8
BLACK
6
CONTINUOUS
10
150.336
20
-122.661
11
150.717
21
-122.661
0
LINE
8
BLACK
6
CONTINUOUS
10
150.717
20
-122.661
11
150.907
21
-122.757
0
LINE
8
BLACK
6
CONTINUOUS
10
150.907
20
-122.757
11
151.002
21
-122.947
0
LINE
8
BLACK
6
CONTINUOUS
10
151.002
20
-122.947
11
151.002
21
-123.138
0
LINE
8
BLACK
6
CONTINUOUS
10
151.002
20
-123.138
11
150.05
21
-123.328
0
LINE
8
BLACK
6
CONTINUOUS
10
152.717
20
-123.995
11
152.717
21
-121.995
0
LINE
8
BLACK
6
CONTINUOUS
10
152.717
20
-123.9
11
152.526
21
-123.995
0
LINE
8
BLACK
6
CONTINUOUS
10
152.526
20
-123.995
11
152.145
21
-123.995
0
LINE
8
BLACK
6
CONTINUOUS
10
152.145
20
-123.995
11
151.955
21
-123.9
0
LINE
8
BLACK
6
CONTINUOUS
10
151.955
20
-123.9
11
151.86
21
-123.804
0
LINE
8
BLACK
6
CONTINUOUS
10
151.86
20
-123.804
11
151.764
21
-123.614
0
LINE
8
BLACK
6
CONTINUOUS
10
151.764
20
-123.614
11
151.764
21
-123.042
0
LINE
8
BLACK
6
CONTINUOUS
10
151.764
20
-123.042
11
151.86
21
-122.852
0
LINE
8
BLACK
6
CONTINUOUS
10
151.86
20
-122.852
11
151.955
21
-122.757
0
LINE
8
BLACK
6
CONTINUOUS
10
151.955
20
-122.757
11
152.145
21
-122.661
0
LINE
8
BLACK
6
CONTINUOUS
10
152.145
20
-122.661
11
152.526
21
-122.661
0
LINE
8
BLACK
6
CONTINUOUS
10
152.526
20
-122.661
11
152.717
21
-122.757
0
LINE
8
BLACK
6
CONTINUOUS
10
153.479
20
-124.757
11
153.574
21
-124.661
0
LINE
8
BLACK
6
CONTINUOUS
10
153.574
20
-124.661
11
153.764
21
-124.376
0
LINE
8
BLACK
6
CONTINUOUS
10
153.764
20
-124.376
11
153.86
21
-124.185
0
LINE
8
BLACK
6
CONTINUOUS
10
153.86
20
-124.185
11
153.955
21
-123.9
0
LINE
8
BLACK
6
CONTINUOUS
10
153.955
20
-123.9
11
154.05
21
-123.423
0
LINE
8
BLACK
6
CONTINUOUS
10
154.05
20
-123.423
11
154.05
21
-123.042
0
LINE
8
BLACK
6
CONTINUOUS
10
154.05
20
-123.042
11
153.955
21
-122.566
0
LINE
8
BLACK
6
CONTINUOUS
10
153.955
20
-122.566
11
153.86
21
-122.28
0
LINE
8
BLACK
6
CONTINUOUS
10
153.86
20
-122.28
11
153.764
21
-122.09
0
LINE
8
BLACK
6
CONTINUOUS
10
153.764
20
-122.09
11
153.574
21
-121.804
0
LINE
8
BLACK
6
CONTINUOUS
10
153.574
20
-121.804
11
153.479
21
-121.709
  0
ENDSEC
  0
EOF
