%TF.GenerationSoftware,KiCad,Pcbnew,(6.0.11-0)*%
%TF.CreationDate,2024-05-30T12:09:28+08:00*%
%TF.ProjectId,tinyAVR-business-card,74696e79-4156-4522-9d62-7573696e6573,rev?*%
%TF.SameCoordinates,Original*%
%TF.FileFunction,Copper,L1,Top*%
%TF.FilePolarity,Positive*%
%FSLAX46Y46*%
G04 Gerber Fmt 4.6, Leading zero omitted, Abs format (unit mm)*
G04 Created by KiCad (PCBNEW (6.0.11-0)) date 2024-05-30 12:09:28*
%MOMM*%
%LPD*%
G01*
G04 APERTURE LIST*
G04 Aperture macros list*
%AMRoundRect*
0 Rectangle with rounded corners*
0 $1 Rounding radius*
0 $2 $3 $4 $5 $6 $7 $8 $9 X,Y pos of 4 corners*
0 Add a 4 corners polygon primitive as box body*
4,1,4,$2,$3,$4,$5,$6,$7,$8,$9,$2,$3,0*
0 Add four circle primitives for the rounded corners*
1,1,$1+$1,$2,$3*
1,1,$1+$1,$4,$5*
1,1,$1+$1,$6,$7*
1,1,$1+$1,$8,$9*
0 Add four rect primitives between the rounded corners*
20,1,$1+$1,$2,$3,$4,$5,0*
20,1,$1+$1,$4,$5,$6,$7,0*
20,1,$1+$1,$6,$7,$8,$9,0*
20,1,$1+$1,$8,$9,$2,$3,0*%
%AMRotRect*
0 Rectangle, with rotation*
0 The origin of the aperture is its center*
0 $1 length*
0 $2 width*
0 $3 Rotation angle, in degrees counterclockwise*
0 Add horizontal line*
21,1,$1,$2,0,0,$3*%
G04 Aperture macros list end*
%TA.AperFunction,SMDPad,CuDef*%
%ADD10RoundRect,0.218750X-0.317568X-0.112544X0.061318X-0.331294X0.317568X0.112544X-0.061318X0.331294X0*%
%TD*%
%TA.AperFunction,SMDPad,CuDef*%
%ADD11R,1.350000X2.000000*%
%TD*%
%TA.AperFunction,SMDPad,CuDef*%
%ADD12RoundRect,0.062500X0.203293X0.291682X-0.291682X-0.203293X-0.203293X-0.291682X0.291682X0.203293X0*%
%TD*%
%TA.AperFunction,SMDPad,CuDef*%
%ADD13RoundRect,0.062500X-0.203293X0.291682X-0.291682X0.203293X0.203293X-0.291682X0.291682X-0.203293X0*%
%TD*%
%TA.AperFunction,SMDPad,CuDef*%
%ADD14RotRect,2.600000X2.600000X225.000000*%
%TD*%
%TA.AperFunction,SMDPad,CuDef*%
%ADD15RoundRect,0.225000X-0.250000X0.225000X-0.250000X-0.225000X0.250000X-0.225000X0.250000X0.225000X0*%
%TD*%
%TA.AperFunction,SMDPad,CuDef*%
%ADD16RoundRect,0.200000X-0.200000X-0.275000X0.200000X-0.275000X0.200000X0.275000X-0.200000X0.275000X0*%
%TD*%
%TA.AperFunction,SMDPad,CuDef*%
%ADD17RoundRect,0.218750X0.331294X-0.061318X0.112544X0.317568X-0.331294X0.061318X-0.112544X-0.317568X0*%
%TD*%
%TA.AperFunction,SMDPad,CuDef*%
%ADD18R,1.000000X2.000000*%
%TD*%
%TA.AperFunction,SMDPad,CuDef*%
%ADD19RoundRect,0.218750X-0.256250X0.218750X-0.256250X-0.218750X0.256250X-0.218750X0.256250X0.218750X0*%
%TD*%
%TA.AperFunction,SMDPad,CuDef*%
%ADD20RoundRect,0.225000X0.225000X0.250000X-0.225000X0.250000X-0.225000X-0.250000X0.225000X-0.250000X0*%
%TD*%
%TA.AperFunction,SMDPad,CuDef*%
%ADD21RoundRect,0.218750X-0.218750X-0.256250X0.218750X-0.256250X0.218750X0.256250X-0.218750X0.256250X0*%
%TD*%
%TA.AperFunction,SMDPad,CuDef*%
%ADD22RoundRect,0.218750X0.061318X0.331294X-0.317568X0.112544X-0.061318X-0.331294X0.317568X-0.112544X0*%
%TD*%
%TA.AperFunction,SMDPad,CuDef*%
%ADD23RoundRect,0.218750X0.112544X-0.317568X0.331294X0.061318X-0.112544X0.317568X-0.331294X-0.061318X0*%
%TD*%
%TA.AperFunction,SMDPad,CuDef*%
%ADD24RoundRect,0.218750X0.317568X0.112544X-0.061318X0.331294X-0.317568X-0.112544X0.061318X-0.331294X0*%
%TD*%
%TA.AperFunction,SMDPad,CuDef*%
%ADD25R,1.800000X1.000000*%
%TD*%
%TA.AperFunction,SMDPad,CuDef*%
%ADD26C,17.000000*%
%TD*%
%TA.AperFunction,SMDPad,CuDef*%
%ADD27R,1.750000X5.600000*%
%TD*%
%TA.AperFunction,SMDPad,CuDef*%
%ADD28RoundRect,0.218750X-0.112544X0.317568X-0.331294X-0.061318X0.112544X-0.317568X0.331294X0.061318X0*%
%TD*%
%TA.AperFunction,SMDPad,CuDef*%
%ADD29RoundRect,0.218750X-0.331294X0.061318X-0.112544X-0.317568X0.331294X-0.061318X0.112544X0.317568X0*%
%TD*%
%TA.AperFunction,SMDPad,CuDef*%
%ADD30R,1.500000X2.000000*%
%TD*%
%TA.AperFunction,SMDPad,CuDef*%
%ADD31RoundRect,0.218750X-0.061318X-0.331294X0.317568X-0.112544X0.061318X0.331294X-0.317568X0.112544X0*%
%TD*%
%TA.AperFunction,SMDPad,CuDef*%
%ADD32RoundRect,0.218750X0.218750X0.256250X-0.218750X0.256250X-0.218750X-0.256250X0.218750X-0.256250X0*%
%TD*%
%TA.AperFunction,SMDPad,CuDef*%
%ADD33RoundRect,0.218750X0.256250X-0.218750X0.256250X0.218750X-0.256250X0.218750X-0.256250X-0.218750X0*%
%TD*%
%TA.AperFunction,ViaPad*%
%ADD34C,0.800000*%
%TD*%
%TA.AperFunction,Conductor*%
%ADD35C,0.250000*%
%TD*%
%TA.AperFunction,Conductor*%
%ADD36C,0.500000*%
%TD*%
G04 APERTURE END LIST*
D10*
%TO.P,D10,1,K*%
%TO.N,Net-(D1-Pad1)*%
X130943005Y-76972250D03*
%TO.P,D10,2,A*%
%TO.N,Net-(D10-Pad2)*%
X132306995Y-77759750D03*
%TD*%
D11*
%TO.P,SW1,1,1*%
%TO.N,GND*%
X135200000Y-108000000D03*
%TO.P,SW1,2,2*%
%TO.N,PC5*%
X130800000Y-108000000D03*
%TD*%
D12*
%TO.P,U1,1,PA2*%
%TO.N,PA2{slash}RXD*%
X108578903Y-86513864D03*
%TO.P,U1,2,PA3*%
%TO.N,PA3*%
X108225349Y-86160311D03*
%TO.P,U1,3,GND*%
%TO.N,GND*%
X107871796Y-85806757D03*
%TO.P,U1,4,VCC*%
%TO.N,VCC*%
X107518243Y-85453204D03*
%TO.P,U1,5,PA4*%
%TO.N,PA4*%
X107164689Y-85099651D03*
%TO.P,U1,6,PA5*%
%TO.N,PA5*%
X106811136Y-84746097D03*
D13*
%TO.P,U1,7,PA6*%
%TO.N,PA6{slash}DAC*%
X105838864Y-84746097D03*
%TO.P,U1,8,PA7*%
%TO.N,PA7*%
X105485311Y-85099651D03*
%TO.P,U1,9,PB7*%
%TO.N,PB7*%
X105131757Y-85453204D03*
%TO.P,U1,10,PB6*%
%TO.N,PB6*%
X104778204Y-85806757D03*
%TO.P,U1,11,PB5*%
%TO.N,PB5*%
X104424651Y-86160311D03*
%TO.P,U1,12,PB4*%
%TO.N,PB4*%
X104071097Y-86513864D03*
D12*
%TO.P,U1,13,PB3*%
%TO.N,TOSC1*%
X104071097Y-87486136D03*
%TO.P,U1,14,PB2*%
%TO.N,TOSC2*%
X104424651Y-87839689D03*
%TO.P,U1,15,PB1*%
%TO.N,PB1{slash}SDA*%
X104778204Y-88193243D03*
%TO.P,U1,16,PB0*%
%TO.N,PB0{slash}SCL*%
X105131757Y-88546796D03*
%TO.P,U1,17,PC0*%
%TO.N,PC0{slash}SCK*%
X105485311Y-88900349D03*
%TO.P,U1,18,PC1*%
%TO.N,PC1{slash}MISO*%
X105838864Y-89253903D03*
D13*
%TO.P,U1,19,PC2*%
%TO.N,PC2{slash}MOSI*%
X106811136Y-89253903D03*
%TO.P,U1,20,PC3*%
%TO.N,PC3{slash}SS*%
X107164689Y-88900349D03*
%TO.P,U1,21,PC4*%
%TO.N,PC4*%
X107518243Y-88546796D03*
%TO.P,U1,22,PC5*%
%TO.N,PC5*%
X107871796Y-88193243D03*
%TO.P,U1,23,~{RESET}/PA0*%
%TO.N,PA0*%
X108225349Y-87839689D03*
%TO.P,U1,24,PA1*%
%TO.N,PA1{slash}TXD*%
X108578903Y-87486136D03*
D14*
%TO.P,U1,25,GND*%
%TO.N,GND*%
X106325000Y-87000000D03*
%TD*%
D15*
%TO.P,C4,1*%
%TO.N,VCC*%
X114000000Y-86125000D03*
%TO.P,C4,2*%
%TO.N,GND*%
X114000000Y-87675000D03*
%TD*%
D16*
%TO.P,R4,1*%
%TO.N,PB7*%
X119925000Y-81900000D03*
%TO.P,R4,2*%
%TO.N,Net-(D10-Pad2)*%
X121575000Y-81900000D03*
%TD*%
D17*
%TO.P,D11,1,K*%
%TO.N,Net-(D10-Pad2)*%
X138753750Y-71301995D03*
%TO.P,D11,2,A*%
%TO.N,Net-(D1-Pad2)*%
X137966250Y-69938005D03*
%TD*%
D16*
%TO.P,R2,1*%
%TO.N,PB5*%
X119925000Y-88700000D03*
%TO.P,R2,2*%
%TO.N,Net-(D1-Pad1)*%
X121575000Y-88700000D03*
%TD*%
D18*
%TO.P,J1,1,Pin_1*%
%TO.N,Vin*%
X120970000Y-71842500D03*
%TO.P,J1,2,Pin_2*%
%TO.N,PA1{slash}TXD*%
X118430000Y-71842500D03*
%TO.P,J1,3,Pin_3*%
%TO.N,PA2{slash}RXD*%
X115890000Y-71842500D03*
%TO.P,J1,4,Pin_4*%
%TO.N,PA3*%
X113350000Y-71842500D03*
%TO.P,J1,5,Pin_5*%
%TO.N,PA4*%
X110810000Y-71842500D03*
%TO.P,J1,6,Pin_6*%
%TO.N,PA5*%
X108270000Y-71842500D03*
%TO.P,J1,7,Pin_7*%
%TO.N,PA6{slash}DAC*%
X105730000Y-71842500D03*
%TO.P,J1,8,Pin_8*%
%TO.N,PA7*%
X103190000Y-71842500D03*
%TO.P,J1,9,Pin_9*%
%TO.N,PB7*%
X100650000Y-71842500D03*
%TO.P,J1,10,Pin_10*%
%TO.N,PB6*%
X98110000Y-71842500D03*
%TO.P,J1,11,Pin_11*%
%TO.N,PB5*%
X95570000Y-71842500D03*
%TO.P,J1,12,Pin_12*%
%TO.N,PB4*%
X93030000Y-71842500D03*
%TD*%
D16*
%TO.P,R3,1*%
%TO.N,PB6*%
X119925000Y-85300000D03*
%TO.P,R3,2*%
%TO.N,Net-(D3-Pad1)*%
X121575000Y-85300000D03*
%TD*%
%TO.P,R1,1*%
%TO.N,PB4*%
X119925000Y-92100000D03*
%TO.P,R1,2*%
%TO.N,Net-(D1-Pad2)*%
X121575000Y-92100000D03*
%TD*%
D19*
%TO.P,D12,1,K*%
%TO.N,Net-(D1-Pad2)*%
X148000000Y-67212500D03*
%TO.P,D12,2,A*%
%TO.N,Net-(D10-Pad2)*%
X148000000Y-68787500D03*
%TD*%
D20*
%TO.P,C1,1*%
%TO.N,TOSC2*%
X98675000Y-88250000D03*
%TO.P,C1,2*%
%TO.N,GND*%
X97125000Y-88250000D03*
%TD*%
D21*
%TO.P,D3,1,K*%
%TO.N,Net-(D3-Pad1)*%
X166212500Y-87000000D03*
%TO.P,D3,2,A*%
%TO.N,Net-(D1-Pad1)*%
X167787500Y-87000000D03*
%TD*%
D22*
%TO.P,D2,1,K*%
%TO.N,Net-(D1-Pad2)*%
X165051995Y-76966250D03*
%TO.P,D2,2,A*%
%TO.N,Net-(D1-Pad1)*%
X163688005Y-77753750D03*
%TD*%
D23*
%TO.P,D1,1,K*%
%TO.N,Net-(D1-Pad1)*%
X157206250Y-71281995D03*
%TO.P,D1,2,A*%
%TO.N,Net-(D1-Pad2)*%
X157993750Y-69918005D03*
%TD*%
D11*
%TO.P,SW2,1,1*%
%TO.N,GND*%
X165200000Y-108000000D03*
%TO.P,SW2,2,2*%
%TO.N,PC4*%
X160800000Y-108000000D03*
%TD*%
D24*
%TO.P,D4,1,K*%
%TO.N,Net-(D1-Pad1)*%
X165051995Y-97023750D03*
%TO.P,D4,2,A*%
%TO.N,Net-(D3-Pad1)*%
X163688005Y-96236250D03*
%TD*%
D25*
%TO.P,Y1,1,1*%
%TO.N,TOSC2*%
X100700000Y-88250000D03*
%TO.P,Y1,2,2*%
%TO.N,TOSC1*%
X100700000Y-85750000D03*
%TD*%
D26*
%TO.P,BT1,N*%
%TO.N,GND*%
X148000000Y-87000000D03*
D27*
%TO.P,BT1,P1*%
%TO.N,Net-(BT1-PadP1)*%
X159000000Y-87000000D03*
%TO.P,BT1,P2*%
X137000000Y-87000000D03*
%TD*%
D28*
%TO.P,D7,1,K*%
%TO.N,Net-(D3-Pad1)*%
X138763750Y-102688005D03*
%TO.P,D7,2,A*%
%TO.N,Net-(D1-Pad2)*%
X137976250Y-104051995D03*
%TD*%
D29*
%TO.P,D5,1,K*%
%TO.N,Net-(D10-Pad2)*%
X157206250Y-102818005D03*
%TO.P,D5,2,A*%
%TO.N,Net-(D3-Pad1)*%
X157993750Y-104181995D03*
%TD*%
D30*
%TO.P,SW3,1,A*%
%TO.N,Net-(BT1-PadP1)*%
X130250000Y-67000000D03*
%TO.P,SW3,2,B*%
%TO.N,VCC*%
X127750000Y-67000000D03*
%TO.P,SW3,3,C*%
%TO.N,Vin*%
X125250000Y-67000000D03*
%TD*%
D15*
%TO.P,C3,1*%
%TO.N,VCC*%
X112400000Y-86125000D03*
%TO.P,C3,2*%
%TO.N,GND*%
X112400000Y-87675000D03*
%TD*%
D31*
%TO.P,D8,1,K*%
%TO.N,Net-(D1-Pad2)*%
X130938005Y-97023750D03*
%TO.P,D8,2,A*%
%TO.N,Net-(D3-Pad1)*%
X132301995Y-96236250D03*
%TD*%
D32*
%TO.P,D9,1,K*%
%TO.N,Net-(D10-Pad2)*%
X129787500Y-87000000D03*
%TO.P,D9,2,A*%
%TO.N,Net-(D1-Pad1)*%
X128212500Y-87000000D03*
%TD*%
D18*
%TO.P,J2,1,Pin_1*%
%TO.N,PB1{slash}SDA*%
X93030000Y-102257500D03*
%TO.P,J2,2,Pin_2*%
%TO.N,PB0{slash}SCL*%
X95570000Y-102257500D03*
%TO.P,J2,3,Pin_3*%
%TO.N,PC0{slash}SCK*%
X98110000Y-102257500D03*
%TO.P,J2,4,Pin_4*%
%TO.N,PC1{slash}MISO*%
X100650000Y-102257500D03*
%TO.P,J2,5,Pin_5*%
%TO.N,PC2{slash}MOSI*%
X103190000Y-102257500D03*
%TO.P,J2,6,Pin_6*%
%TO.N,GND*%
X105730000Y-102257500D03*
%TO.P,J2,7,Pin_7*%
%TO.N,PC3{slash}SS*%
X108270000Y-102257500D03*
%TO.P,J2,8,Pin_8*%
%TO.N,PC4*%
X110810000Y-102257500D03*
%TO.P,J2,9,Pin_9*%
%TO.N,PC5*%
X113350000Y-102257500D03*
%TO.P,J2,10,Pin_10*%
%TO.N,PA0*%
X115890000Y-102257500D03*
%TO.P,J2,11,Pin_11*%
X118430000Y-102257500D03*
%TO.P,J2,12,Pin_12*%
%TO.N,GND*%
X120970000Y-102257500D03*
%TD*%
D33*
%TO.P,D6,1,K*%
%TO.N,Net-(D3-Pad1)*%
X148000000Y-106787500D03*
%TO.P,D6,2,A*%
%TO.N,Net-(D10-Pad2)*%
X148000000Y-105212500D03*
%TD*%
D20*
%TO.P,C2,1*%
%TO.N,TOSC1*%
X98675000Y-85650000D03*
%TO.P,C2,2*%
%TO.N,GND*%
X97125000Y-85650000D03*
%TD*%
D34*
%TO.N,GND*%
X129000000Y-62000000D03*
X88000000Y-112000000D03*
X160000000Y-62000000D03*
X119000000Y-62000000D03*
X88000000Y-62000000D03*
X129000000Y-102000000D03*
X106300000Y-87000000D03*
X144000000Y-91000000D03*
X160000000Y-112000000D03*
X118000000Y-112000000D03*
X88000000Y-72000000D03*
X88000000Y-82000000D03*
X170000000Y-92000000D03*
X169000000Y-112000000D03*
X170000000Y-62000000D03*
X170000000Y-72000000D03*
X88000000Y-92000000D03*
X109000000Y-62000000D03*
X113200000Y-89200000D03*
X140000000Y-62000000D03*
X106250000Y-92000000D03*
X129000000Y-112000000D03*
X144000000Y-83000000D03*
X170000000Y-102000000D03*
X99000000Y-112000000D03*
X140000000Y-112000000D03*
X150000000Y-112000000D03*
X88000000Y-102000000D03*
X152000000Y-83000000D03*
X150000000Y-62000000D03*
X99000000Y-62000000D03*
X152000000Y-91000000D03*
X121500000Y-80000000D03*
X170000000Y-82000000D03*
X109000000Y-112000000D03*
%TO.N,VCC*%
X111000000Y-86500000D03*
X108900000Y-84400000D03*
%TO.N,Net-(D1-Pad1)*%
X123500000Y-88700000D03*
X124500000Y-94750000D03*
X123500000Y-85300000D03*
%TO.N,Net-(D1-Pad2)*%
X124500000Y-80800000D03*
X124500000Y-92100000D03*
%TO.N,PB7*%
X118900000Y-81900000D03*
X101250000Y-81500000D03*
%TO.N,PB6*%
X118900000Y-85300000D03*
X100250000Y-82250000D03*
%TO.N,PB5*%
X99250000Y-83000000D03*
X118900000Y-88700000D03*
%TO.N,PB4*%
X118900000Y-92100000D03*
X100250000Y-84000000D03*
%TO.N,Net-(BT1-PadP1)*%
X159100000Y-87000000D03*
X130200000Y-68800000D03*
X137000000Y-87000000D03*
%TO.N,Net-(D10-Pad2)*%
X127100000Y-81900000D03*
X129787500Y-81900000D03*
%TD*%
D35*
%TO.N,TOSC2*%
X98675000Y-88250000D02*
X100700000Y-88250000D01*
X100700000Y-88250000D02*
X104014340Y-88250000D01*
X104014340Y-88250000D02*
X104424651Y-87839689D01*
%TO.N,GND*%
X106325000Y-87000000D02*
X106678553Y-87000000D01*
X106678553Y-87000000D02*
X107871796Y-85806757D01*
%TO.N,TOSC1*%
X98675000Y-85650000D02*
X100600000Y-85650000D01*
X104071097Y-87486136D02*
X102334961Y-85750000D01*
X100600000Y-85650000D02*
X100700000Y-85750000D01*
X102334961Y-85750000D02*
X100700000Y-85750000D01*
D36*
%TO.N,VCC*%
X112400000Y-86125000D02*
X111375000Y-86125000D01*
X114000000Y-84300000D02*
X127750000Y-70550000D01*
X127750000Y-70550000D02*
X127750000Y-67000000D01*
X114000000Y-86125000D02*
X112400000Y-86125000D01*
X114000000Y-86125000D02*
X114000000Y-84300000D01*
D35*
X108900000Y-84400000D02*
X108571447Y-84400000D01*
X108571447Y-84400000D02*
X107518243Y-85453204D01*
D36*
X111375000Y-86125000D02*
X111000000Y-86500000D01*
D35*
%TO.N,Net-(D1-Pad1)*%
X167787500Y-94288245D02*
X165051995Y-97023750D01*
X165051995Y-98448005D02*
X155750000Y-107750000D01*
X167787500Y-81853245D02*
X167787500Y-87000000D01*
X121575000Y-88700000D02*
X123500000Y-88700000D01*
X163688005Y-77753750D02*
X167787500Y-81853245D01*
X157206250Y-71281995D02*
X157216250Y-71281995D01*
X167787500Y-87000000D02*
X167787500Y-94288245D01*
X155750000Y-107750000D02*
X139250000Y-107750000D01*
X139250000Y-107750000D02*
X126250000Y-94750000D01*
X126250000Y-94750000D02*
X124500000Y-94750000D01*
X130943005Y-76972250D02*
X128212500Y-79702755D01*
X128212500Y-79702755D02*
X128212500Y-87000000D01*
X157216250Y-71281995D02*
X163688005Y-77753750D01*
X165051995Y-97023750D02*
X165051995Y-98448005D01*
X123500000Y-85300000D02*
X126512500Y-85300000D01*
X126512500Y-85300000D02*
X128212500Y-87000000D01*
%TO.N,Net-(D1-Pad2)*%
X124500000Y-80800000D02*
X135361995Y-69938005D01*
X125850000Y-92100000D02*
X130773750Y-97023750D01*
X130938005Y-97023750D02*
X130948005Y-97023750D01*
X140577128Y-67327128D02*
X137966250Y-69938005D01*
X157993750Y-69918005D02*
X158003750Y-69918005D01*
X135361995Y-69938005D02*
X137966250Y-69938005D01*
X148000000Y-67212500D02*
X155288245Y-67212500D01*
X158003750Y-69918005D02*
X165051995Y-76966250D01*
X121575000Y-92100000D02*
X124500000Y-92100000D01*
X130773750Y-97023750D02*
X130938005Y-97023750D01*
X130948005Y-97023750D02*
X137976250Y-104051995D01*
X124500000Y-92100000D02*
X125850000Y-92100000D01*
X140691756Y-67212500D02*
X140577128Y-67327128D01*
X140691755Y-67212500D02*
X140577128Y-67327128D01*
X148000000Y-67212500D02*
X140691756Y-67212500D01*
X155288245Y-67212500D02*
X157993750Y-69918005D01*
D36*
%TO.N,Vin*%
X120970000Y-71842500D02*
X123257500Y-71842500D01*
X125250000Y-69850000D02*
X125250000Y-67000000D01*
X123257500Y-71842500D02*
X125250000Y-69850000D01*
D35*
%TO.N,PA3*%
X113350000Y-81035660D02*
X108225349Y-86160311D01*
X113350000Y-71842500D02*
X113350000Y-81035660D01*
%TO.N,PA4*%
X110810000Y-71842500D02*
X110810000Y-81390000D01*
X110810000Y-81454340D02*
X107164689Y-85099651D01*
X110810000Y-81390000D02*
X110810000Y-81454340D01*
%TO.N,PA5*%
X108270000Y-83287233D02*
X106811136Y-84746097D01*
X108270000Y-71842500D02*
X108270000Y-83357944D01*
%TO.N,PA6{slash}DAC*%
X105730000Y-84637233D02*
X105838864Y-84746097D01*
X105730000Y-71842500D02*
X105730000Y-84637233D01*
%TO.N,PA7*%
X103190000Y-71842500D02*
X103190000Y-82804340D01*
X103190000Y-82804340D02*
X105485311Y-85099651D01*
%TO.N,PB7*%
X101250000Y-81642156D02*
X104750000Y-85142156D01*
X101250000Y-81500000D02*
X101250000Y-81642156D01*
X100650000Y-80900000D02*
X101250000Y-81500000D01*
X119925000Y-81900000D02*
X118900000Y-81900000D01*
X100650000Y-71842500D02*
X100650000Y-80900000D01*
%TO.N,PB6*%
X104778204Y-85806757D02*
X101221447Y-82250000D01*
X101221447Y-82250000D02*
X100250000Y-82250000D01*
X98110000Y-71842500D02*
X98110000Y-80110000D01*
X119925000Y-85300000D02*
X118900000Y-85300000D01*
X98110000Y-80110000D02*
X100250000Y-82250000D01*
%TO.N,PB5*%
X101264340Y-83000000D02*
X99250000Y-83000000D01*
X95570000Y-79320000D02*
X99250000Y-83000000D01*
X118900000Y-88700000D02*
X119925000Y-88700000D01*
X104424651Y-86160311D02*
X101264340Y-83000000D01*
X95570000Y-71842500D02*
X95570000Y-79320000D01*
%TO.N,PB4*%
X93030000Y-71842500D02*
X93030000Y-79030000D01*
X104071097Y-86513864D02*
X101557233Y-84000000D01*
X119925000Y-92100000D02*
X118900000Y-92100000D01*
X101557233Y-84000000D02*
X100250000Y-84000000D01*
X93030000Y-79030000D02*
X98000000Y-84000000D01*
X100250000Y-84000000D02*
X98000000Y-84000000D01*
%TO.N,PB1{slash}SDA*%
X93030000Y-102257500D02*
X93030000Y-99941447D01*
X93030000Y-99941447D02*
X104778204Y-88193243D01*
%TO.N,PB0{slash}SCL*%
X95570000Y-102257500D02*
X95570000Y-98108553D01*
X95570000Y-98108553D02*
X105131757Y-88546796D01*
%TO.N,PC5*%
X107871796Y-88193243D02*
X111714276Y-92035724D01*
X113350000Y-105350000D02*
X116000000Y-108000000D01*
X111714276Y-92035724D02*
X113350000Y-93671448D01*
X116000000Y-108000000D02*
X130800000Y-108000000D01*
X113350000Y-93671448D02*
X113350000Y-102257500D01*
X113350000Y-102257500D02*
X113350000Y-105350000D01*
%TO.N,PC4*%
X114825000Y-109325000D02*
X156175000Y-109325000D01*
X110810000Y-102257500D02*
X110810000Y-105310000D01*
X110810000Y-105310000D02*
X114825000Y-109325000D01*
X110810000Y-91838553D02*
X110810000Y-102257500D01*
X156175000Y-109325000D02*
X157500000Y-108000000D01*
X157500000Y-108000000D02*
X160800000Y-108000000D01*
X107518243Y-88546796D02*
X110810000Y-91838553D01*
%TO.N,PC3{slash}SS*%
X108270000Y-90005660D02*
X108270000Y-102257500D01*
X107164689Y-88900349D02*
X108270000Y-90005660D01*
%TO.N,PC2{slash}MOSI*%
X103190000Y-92539164D02*
X106475261Y-89253903D01*
X103190000Y-102257500D02*
X103190000Y-92539164D01*
X106475261Y-89253903D02*
X106811136Y-89253903D01*
%TO.N,PC1{slash}MISO*%
X105768153Y-89253903D02*
X105838864Y-89253903D01*
X100650000Y-102257500D02*
X100650000Y-94372056D01*
X100650000Y-94372056D02*
X105768153Y-89253903D01*
%TO.N,PC0{slash}SCK*%
X105485311Y-88900349D02*
X98110000Y-96275660D01*
X98110000Y-96275660D02*
X98110000Y-102257500D01*
D36*
%TO.N,Net-(BT1-PadP1)*%
X130250000Y-68750000D02*
X130200000Y-68800000D01*
X130250000Y-67000000D02*
X130250000Y-68750000D01*
D35*
%TO.N,Net-(D3-Pad1)*%
X132301995Y-96236250D02*
X132311995Y-96236250D01*
X148000000Y-106787500D02*
X155388245Y-106787500D01*
X121575000Y-85509255D02*
X132301995Y-96236250D01*
X142863245Y-106787500D02*
X148000000Y-106787500D01*
X163688005Y-98487740D02*
X163688005Y-96236250D01*
X155388245Y-106787500D02*
X157993750Y-104181995D01*
X166212500Y-93711755D02*
X163688005Y-96236250D01*
X121575000Y-85300000D02*
X121575000Y-85509255D01*
X166212500Y-87000000D02*
X166212500Y-93711755D01*
X138763750Y-102688005D02*
X142863245Y-106787500D01*
X132311995Y-96236250D02*
X138763750Y-102688005D01*
X157993750Y-104181995D02*
X163688005Y-98487740D01*
%TO.N,Net-(D10-Pad2)*%
X147962500Y-105250000D02*
X148000000Y-105212500D01*
X129787500Y-80279245D02*
X132306995Y-77759750D01*
X141268245Y-68787500D02*
X138753750Y-71301995D01*
X154811755Y-105212500D02*
X157206250Y-102818005D01*
X121575000Y-81900000D02*
X127100000Y-81900000D01*
X129787500Y-81900000D02*
X129787500Y-80279245D01*
X129787500Y-91787500D02*
X133000000Y-95000000D01*
X129787500Y-87000000D02*
X129787500Y-91787500D01*
X129787500Y-81900000D02*
X129787500Y-87000000D01*
X143250000Y-105250000D02*
X147962500Y-105250000D01*
X148000000Y-105212500D02*
X154811755Y-105212500D01*
X148000000Y-68787500D02*
X141268245Y-68787500D01*
X133000000Y-95000000D02*
X143250000Y-105250000D01*
X132306995Y-77748750D02*
X138753750Y-71301995D01*
X132306995Y-77759750D02*
X132306995Y-77748750D01*
%TO.N,PA1{slash}TXD*%
X108578903Y-87421097D02*
X118430000Y-77570000D01*
X118430000Y-77570000D02*
X118430000Y-71842500D01*
X108578903Y-87486136D02*
X108578903Y-87421097D01*
%TO.N,PA2{slash}RXD*%
X108578903Y-86513864D02*
X108736136Y-86513864D01*
X115890000Y-79360000D02*
X115890000Y-71842500D01*
X108736136Y-86513864D02*
X115890000Y-79360000D01*
%TO.N,PA0*%
X115890000Y-95490000D02*
X115890000Y-102257500D01*
X115890000Y-102257500D02*
X118430000Y-102257500D01*
X108239689Y-87839689D02*
X115890000Y-95490000D01*
X108225349Y-87839689D02*
X108239689Y-87839689D01*
%TD*%
%TA.AperFunction,Conductor*%
%TO.N,GND*%
G36*
X169470018Y-60510000D02*
G01*
X169484851Y-60512310D01*
X169484855Y-60512310D01*
X169493724Y-60513691D01*
X169508981Y-60511696D01*
X169534302Y-60510953D01*
X169703285Y-60523039D01*
X169721064Y-60525596D01*
X169911392Y-60566999D01*
X169928641Y-60572063D01*
X170111150Y-60640136D01*
X170127502Y-60647604D01*
X170298458Y-60740952D01*
X170313582Y-60750672D01*
X170469514Y-60867402D01*
X170483100Y-60879175D01*
X170620825Y-61016900D01*
X170632598Y-61030486D01*
X170749328Y-61186418D01*
X170759048Y-61201542D01*
X170852396Y-61372498D01*
X170859864Y-61388850D01*
X170927937Y-61571359D01*
X170933001Y-61588607D01*
X170974404Y-61778936D01*
X170976962Y-61796721D01*
X170988540Y-61958601D01*
X170987793Y-61976565D01*
X170987692Y-61984845D01*
X170986309Y-61993724D01*
X170987474Y-62002630D01*
X170990436Y-62025283D01*
X170991500Y-62041621D01*
X170991500Y-111950633D01*
X170990000Y-111970018D01*
X170987690Y-111984851D01*
X170987690Y-111984855D01*
X170986309Y-111993724D01*
X170988136Y-112007693D01*
X170988304Y-112008976D01*
X170989047Y-112034305D01*
X170976962Y-112203279D01*
X170974404Y-112221064D01*
X170956598Y-112302919D01*
X170933001Y-112411392D01*
X170927937Y-112428641D01*
X170859864Y-112611150D01*
X170852396Y-112627502D01*
X170759048Y-112798458D01*
X170749328Y-112813582D01*
X170632598Y-112969514D01*
X170620825Y-112983100D01*
X170483100Y-113120825D01*
X170469514Y-113132598D01*
X170313582Y-113249328D01*
X170298458Y-113259048D01*
X170127502Y-113352396D01*
X170111150Y-113359864D01*
X169928641Y-113427937D01*
X169911393Y-113433001D01*
X169721064Y-113474404D01*
X169703285Y-113476961D01*
X169541395Y-113488540D01*
X169523435Y-113487793D01*
X169515155Y-113487692D01*
X169506276Y-113486309D01*
X169474714Y-113490436D01*
X169458379Y-113491500D01*
X88049367Y-113491500D01*
X88029982Y-113490000D01*
X88015149Y-113487690D01*
X88015145Y-113487690D01*
X88006276Y-113486309D01*
X87991019Y-113488304D01*
X87965698Y-113489047D01*
X87796715Y-113476961D01*
X87778936Y-113474404D01*
X87588607Y-113433001D01*
X87571359Y-113427937D01*
X87388850Y-113359864D01*
X87372498Y-113352396D01*
X87201542Y-113259048D01*
X87186418Y-113249328D01*
X87030486Y-113132598D01*
X87016900Y-113120825D01*
X86879175Y-112983100D01*
X86867402Y-112969514D01*
X86750672Y-112813582D01*
X86740952Y-112798458D01*
X86647604Y-112627502D01*
X86640136Y-112611150D01*
X86572063Y-112428641D01*
X86566999Y-112411392D01*
X86543402Y-112302919D01*
X86525596Y-112221064D01*
X86523038Y-112203278D01*
X86511719Y-112045012D01*
X86512805Y-112022245D01*
X86512334Y-112022203D01*
X86512770Y-112017345D01*
X86513576Y-112012552D01*
X86513729Y-112000000D01*
X86509773Y-111972376D01*
X86508500Y-111954514D01*
X86508500Y-103305634D01*
X92021500Y-103305634D01*
X92028255Y-103367816D01*
X92079385Y-103504205D01*
X92166739Y-103620761D01*
X92283295Y-103708115D01*
X92419684Y-103759245D01*
X92481866Y-103766000D01*
X93578134Y-103766000D01*
X93640316Y-103759245D01*
X93776705Y-103708115D01*
X93893261Y-103620761D01*
X93980615Y-103504205D01*
X94031745Y-103367816D01*
X94038500Y-103305634D01*
X94038500Y-101209366D01*
X94031745Y-101147184D01*
X93980615Y-101010795D01*
X93893261Y-100894239D01*
X93776705Y-100806885D01*
X93768296Y-100803732D01*
X93768293Y-100803731D01*
X93745269Y-100795099D01*
X93688505Y-100752457D01*
X93663806Y-100685895D01*
X93663500Y-100677118D01*
X93663500Y-100256041D01*
X93683502Y-100187920D01*
X93700405Y-100166946D01*
X94721405Y-99145946D01*
X94783717Y-99111920D01*
X94854532Y-99116985D01*
X94911368Y-99159532D01*
X94936179Y-99226052D01*
X94936500Y-99235041D01*
X94936500Y-100677118D01*
X94916498Y-100745239D01*
X94862842Y-100791732D01*
X94854731Y-100795099D01*
X94831707Y-100803731D01*
X94831704Y-100803732D01*
X94823295Y-100806885D01*
X94706739Y-100894239D01*
X94619385Y-101010795D01*
X94568255Y-101147184D01*
X94561500Y-101209366D01*
X94561500Y-103305634D01*
X94568255Y-103367816D01*
X94619385Y-103504205D01*
X94706739Y-103620761D01*
X94823295Y-103708115D01*
X94959684Y-103759245D01*
X95021866Y-103766000D01*
X96118134Y-103766000D01*
X96180316Y-103759245D01*
X96316705Y-103708115D01*
X96433261Y-103620761D01*
X96520615Y-103504205D01*
X96571745Y-103367816D01*
X96578500Y-103305634D01*
X96578500Y-101209366D01*
X96571745Y-101147184D01*
X96520615Y-101010795D01*
X96433261Y-100894239D01*
X96316705Y-100806885D01*
X96308296Y-100803732D01*
X96308293Y-100803731D01*
X96285269Y-100795099D01*
X96228505Y-100752457D01*
X96203806Y-100685895D01*
X96203500Y-100677118D01*
X96203500Y-98423147D01*
X96223502Y-98355026D01*
X96240405Y-98334052D01*
X97261405Y-97313052D01*
X97323717Y-97279026D01*
X97394532Y-97284091D01*
X97451368Y-97326638D01*
X97476179Y-97393158D01*
X97476500Y-97402147D01*
X97476500Y-100677118D01*
X97456498Y-100745239D01*
X97402842Y-100791732D01*
X97394731Y-100795099D01*
X97371707Y-100803731D01*
X97371704Y-100803732D01*
X97363295Y-100806885D01*
X97246739Y-100894239D01*
X97159385Y-101010795D01*
X97108255Y-101147184D01*
X97101500Y-101209366D01*
X97101500Y-103305634D01*
X97108255Y-103367816D01*
X97159385Y-103504205D01*
X97246739Y-103620761D01*
X97363295Y-103708115D01*
X97499684Y-103759245D01*
X97561866Y-103766000D01*
X98658134Y-103766000D01*
X98720316Y-103759245D01*
X98856705Y-103708115D01*
X98973261Y-103620761D01*
X99060615Y-103504205D01*
X99111745Y-103367816D01*
X99118500Y-103305634D01*
X99118500Y-101209366D01*
X99111745Y-101147184D01*
X99060615Y-101010795D01*
X98973261Y-100894239D01*
X98856705Y-100806885D01*
X98848296Y-100803732D01*
X98848293Y-100803731D01*
X98825269Y-100795099D01*
X98768505Y-100752457D01*
X98743806Y-100685895D01*
X98743500Y-100677118D01*
X98743500Y-96590254D01*
X98763502Y-96522133D01*
X98780405Y-96501159D01*
X99801405Y-95480159D01*
X99863717Y-95446133D01*
X99934532Y-95451198D01*
X99991368Y-95493745D01*
X100016179Y-95560265D01*
X100016500Y-95569254D01*
X100016500Y-100677118D01*
X99996498Y-100745239D01*
X99942842Y-100791732D01*
X99934731Y-100795099D01*
X99911707Y-100803731D01*
X99911704Y-100803732D01*
X99903295Y-100806885D01*
X99786739Y-100894239D01*
X99699385Y-101010795D01*
X99648255Y-101147184D01*
X99641500Y-101209366D01*
X99641500Y-103305634D01*
X99648255Y-103367816D01*
X99699385Y-103504205D01*
X99786739Y-103620761D01*
X99903295Y-103708115D01*
X100039684Y-103759245D01*
X100101866Y-103766000D01*
X101198134Y-103766000D01*
X101260316Y-103759245D01*
X101396705Y-103708115D01*
X101513261Y-103620761D01*
X101600615Y-103504205D01*
X101651745Y-103367816D01*
X101658500Y-103305634D01*
X101658500Y-101209366D01*
X101651745Y-101147184D01*
X101600615Y-101010795D01*
X101513261Y-100894239D01*
X101396705Y-100806885D01*
X101388296Y-100803732D01*
X101388293Y-100803731D01*
X101365269Y-100795099D01*
X101308505Y-100752457D01*
X101283806Y-100685895D01*
X101283500Y-100677118D01*
X101283500Y-94686650D01*
X101303502Y-94618529D01*
X101320405Y-94597555D01*
X102341405Y-93576555D01*
X102403717Y-93542529D01*
X102474532Y-93547594D01*
X102531368Y-93590141D01*
X102556179Y-93656661D01*
X102556500Y-93665650D01*
X102556500Y-100677118D01*
X102536498Y-100745239D01*
X102482842Y-100791732D01*
X102474731Y-100795099D01*
X102451707Y-100803731D01*
X102451704Y-100803732D01*
X102443295Y-100806885D01*
X102326739Y-100894239D01*
X102239385Y-101010795D01*
X102188255Y-101147184D01*
X102181500Y-101209366D01*
X102181500Y-103305634D01*
X102188255Y-103367816D01*
X102239385Y-103504205D01*
X102326739Y-103620761D01*
X102443295Y-103708115D01*
X102579684Y-103759245D01*
X102641866Y-103766000D01*
X103738134Y-103766000D01*
X103800316Y-103759245D01*
X103936705Y-103708115D01*
X104053261Y-103620761D01*
X104140615Y-103504205D01*
X104191745Y-103367816D01*
X104198500Y-103305634D01*
X104198500Y-103302169D01*
X104722001Y-103302169D01*
X104722371Y-103308990D01*
X104727895Y-103359852D01*
X104731521Y-103375104D01*
X104776676Y-103495554D01*
X104785214Y-103511149D01*
X104861715Y-103613224D01*
X104874276Y-103625785D01*
X104976351Y-103702286D01*
X104991946Y-103710824D01*
X105112394Y-103755978D01*
X105127649Y-103759605D01*
X105178514Y-103765131D01*
X105185328Y-103765500D01*
X105457885Y-103765500D01*
X105473124Y-103761025D01*
X105474329Y-103759635D01*
X105476000Y-103751952D01*
X105476000Y-103747384D01*
X105984000Y-103747384D01*
X105988475Y-103762623D01*
X105989865Y-103763828D01*
X105997548Y-103765499D01*
X106274669Y-103765499D01*
X106281490Y-103765129D01*
X106332352Y-103759605D01*
X106347604Y-103755979D01*
X106468054Y-103710824D01*
X106483649Y-103702286D01*
X106585724Y-103625785D01*
X106598285Y-103613224D01*
X106674786Y-103511149D01*
X106683324Y-103495554D01*
X106728478Y-103375106D01*
X106732105Y-103359851D01*
X106737631Y-103308986D01*
X106738000Y-103302172D01*
X106738000Y-102529615D01*
X106733525Y-102514376D01*
X106732135Y-102513171D01*
X106724452Y-102511500D01*
X106002115Y-102511500D01*
X105986876Y-102515975D01*
X105985671Y-102517365D01*
X105984000Y-102525048D01*
X105984000Y-103747384D01*
X105476000Y-103747384D01*
X105476000Y-102529615D01*
X105471525Y-102514376D01*
X105470135Y-102513171D01*
X105462452Y-102511500D01*
X104740116Y-102511500D01*
X104724877Y-102515975D01*
X104723672Y-102517365D01*
X104722001Y-102525048D01*
X104722001Y-103302169D01*
X104198500Y-103302169D01*
X104198500Y-101985385D01*
X104722000Y-101985385D01*
X104726475Y-102000624D01*
X104727865Y-102001829D01*
X104735548Y-102003500D01*
X105457885Y-102003500D01*
X105473124Y-101999025D01*
X105474329Y-101997635D01*
X105476000Y-101989952D01*
X105476000Y-101985385D01*
X105984000Y-101985385D01*
X105988475Y-102000624D01*
X105989865Y-102001829D01*
X105997548Y-102003500D01*
X106719884Y-102003500D01*
X106735123Y-101999025D01*
X106736328Y-101997635D01*
X106737999Y-101989952D01*
X106737999Y-101212831D01*
X106737629Y-101206010D01*
X106732105Y-101155148D01*
X106728479Y-101139896D01*
X106683324Y-101019446D01*
X106674786Y-101003851D01*
X106598285Y-100901776D01*
X106585724Y-100889215D01*
X106483649Y-100812714D01*
X106468054Y-100804176D01*
X106347606Y-100759022D01*
X106332351Y-100755395D01*
X106281486Y-100749869D01*
X106274672Y-100749500D01*
X106002115Y-100749500D01*
X105986876Y-100753975D01*
X105985671Y-100755365D01*
X105984000Y-100763048D01*
X105984000Y-101985385D01*
X105476000Y-101985385D01*
X105476000Y-100767616D01*
X105471525Y-100752377D01*
X105470135Y-100751172D01*
X105462452Y-100749501D01*
X105185331Y-100749501D01*
X105178510Y-100749871D01*
X105127648Y-100755395D01*
X105112396Y-100759021D01*
X104991946Y-100804176D01*
X104976351Y-100812714D01*
X104874276Y-100889215D01*
X104861715Y-100901776D01*
X104785214Y-101003851D01*
X104776676Y-101019446D01*
X104731522Y-101139894D01*
X104727895Y-101155149D01*
X104722369Y-101206014D01*
X104722000Y-101212828D01*
X104722000Y-101985385D01*
X104198500Y-101985385D01*
X104198500Y-101209366D01*
X104191745Y-101147184D01*
X104140615Y-101010795D01*
X104053261Y-100894239D01*
X103936705Y-100806885D01*
X103928296Y-100803732D01*
X103928293Y-100803731D01*
X103905269Y-100795099D01*
X103848505Y-100752457D01*
X103823806Y-100685895D01*
X103823500Y-100677118D01*
X103823500Y-92853758D01*
X103843502Y-92785637D01*
X103860405Y-92764663D01*
X106566488Y-90058580D01*
X106628800Y-90024554D01*
X106699615Y-90029619D01*
X106718584Y-90038557D01*
X106719916Y-90039326D01*
X106726466Y-90044352D01*
X106734091Y-90047510D01*
X106734092Y-90047511D01*
X106792058Y-90071521D01*
X106865369Y-90101887D01*
X107014429Y-90121512D01*
X107163490Y-90101887D01*
X107302393Y-90044352D01*
X107303770Y-90047676D01*
X107356606Y-90034747D01*
X107423744Y-90057835D01*
X107439956Y-90071521D01*
X107599595Y-90231160D01*
X107633621Y-90293472D01*
X107636500Y-90320255D01*
X107636500Y-100677118D01*
X107616498Y-100745239D01*
X107562842Y-100791732D01*
X107554731Y-100795099D01*
X107531707Y-100803731D01*
X107531704Y-100803732D01*
X107523295Y-100806885D01*
X107406739Y-100894239D01*
X107319385Y-101010795D01*
X107268255Y-101147184D01*
X107261500Y-101209366D01*
X107261500Y-103305634D01*
X107268255Y-103367816D01*
X107319385Y-103504205D01*
X107406739Y-103620761D01*
X107523295Y-103708115D01*
X107659684Y-103759245D01*
X107721866Y-103766000D01*
X108818134Y-103766000D01*
X108880316Y-103759245D01*
X109016705Y-103708115D01*
X109133261Y-103620761D01*
X109220615Y-103504205D01*
X109271745Y-103367816D01*
X109278500Y-103305634D01*
X109278500Y-101209366D01*
X109271745Y-101147184D01*
X109220615Y-101010795D01*
X109133261Y-100894239D01*
X109016705Y-100806885D01*
X109008296Y-100803732D01*
X109008293Y-100803731D01*
X108985269Y-100795099D01*
X108928505Y-100752457D01*
X108903806Y-100685895D01*
X108903500Y-100677118D01*
X108903500Y-91132147D01*
X108923502Y-91064026D01*
X108977158Y-91017533D01*
X109047432Y-91007429D01*
X109112012Y-91036923D01*
X109118595Y-91043052D01*
X110139595Y-92064052D01*
X110173621Y-92126364D01*
X110176500Y-92153147D01*
X110176500Y-100677118D01*
X110156498Y-100745239D01*
X110102842Y-100791732D01*
X110094731Y-100795099D01*
X110071707Y-100803731D01*
X110071704Y-100803732D01*
X110063295Y-100806885D01*
X109946739Y-100894239D01*
X109859385Y-101010795D01*
X109808255Y-101147184D01*
X109801500Y-101209366D01*
X109801500Y-103305634D01*
X109808255Y-103367816D01*
X109859385Y-103504205D01*
X109946739Y-103620761D01*
X110063295Y-103708115D01*
X110071703Y-103711267D01*
X110071707Y-103711269D01*
X110094731Y-103719901D01*
X110151495Y-103762543D01*
X110176194Y-103829105D01*
X110176500Y-103837882D01*
X110176500Y-105231233D01*
X110175973Y-105242416D01*
X110174298Y-105249909D01*
X110174547Y-105257835D01*
X110174547Y-105257836D01*
X110176438Y-105317986D01*
X110176500Y-105321945D01*
X110176500Y-105349856D01*
X110176997Y-105353790D01*
X110176997Y-105353791D01*
X110177005Y-105353856D01*
X110177938Y-105365693D01*
X110179327Y-105409889D01*
X110184978Y-105429339D01*
X110188987Y-105448700D01*
X110191526Y-105468797D01*
X110194445Y-105476168D01*
X110194445Y-105476170D01*
X110207804Y-105509912D01*
X110211649Y-105521142D01*
X110223982Y-105563593D01*
X110228015Y-105570412D01*
X110228017Y-105570417D01*
X110234293Y-105581028D01*
X110242988Y-105598776D01*
X110250448Y-105617617D01*
X110255110Y-105624033D01*
X110255110Y-105624034D01*
X110276436Y-105653387D01*
X110282952Y-105663307D01*
X110300742Y-105693387D01*
X110305458Y-105701362D01*
X110319779Y-105715683D01*
X110332619Y-105730716D01*
X110344528Y-105747107D01*
X110350634Y-105752158D01*
X110378605Y-105775298D01*
X110387384Y-105783288D01*
X114321343Y-109717247D01*
X114328887Y-109725537D01*
X114333000Y-109732018D01*
X114338777Y-109737443D01*
X114382667Y-109778658D01*
X114385509Y-109781413D01*
X114405230Y-109801134D01*
X114408425Y-109803612D01*
X114417447Y-109811318D01*
X114449679Y-109841586D01*
X114456628Y-109845406D01*
X114467432Y-109851346D01*
X114483956Y-109862199D01*
X114499959Y-109874613D01*
X114540543Y-109892176D01*
X114551173Y-109897383D01*
X114589940Y-109918695D01*
X114597617Y-109920666D01*
X114597622Y-109920668D01*
X114609558Y-109923732D01*
X114628266Y-109930137D01*
X114646855Y-109938181D01*
X114654680Y-109939420D01*
X114654682Y-109939421D01*
X114690519Y-109945097D01*
X114702140Y-109947504D01*
X114733959Y-109955673D01*
X114744970Y-109958500D01*
X114765231Y-109958500D01*
X114784940Y-109960051D01*
X114804943Y-109963219D01*
X114812835Y-109962473D01*
X114818062Y-109961979D01*
X114848954Y-109959059D01*
X114860811Y-109958500D01*
X156096233Y-109958500D01*
X156107416Y-109959027D01*
X156114909Y-109960702D01*
X156122835Y-109960453D01*
X156122836Y-109960453D01*
X156182986Y-109958562D01*
X156186945Y-109958500D01*
X156214856Y-109958500D01*
X156218791Y-109958003D01*
X156218856Y-109957995D01*
X156230693Y-109957062D01*
X156262951Y-109956048D01*
X156266970Y-109955922D01*
X156274889Y-109955673D01*
X156294343Y-109950021D01*
X156313700Y-109946013D01*
X156325930Y-109944468D01*
X156325931Y-109944468D01*
X156333797Y-109943474D01*
X156341168Y-109940555D01*
X156341170Y-109940555D01*
X156374912Y-109927196D01*
X156386142Y-109923351D01*
X156420983Y-109913229D01*
X156420984Y-109913229D01*
X156428593Y-109911018D01*
X156435412Y-109906985D01*
X156435417Y-109906983D01*
X156446028Y-109900707D01*
X156463776Y-109892012D01*
X156482617Y-109884552D01*
X156502987Y-109869753D01*
X156518387Y-109858564D01*
X156528307Y-109852048D01*
X156559535Y-109833580D01*
X156559538Y-109833578D01*
X156566362Y-109829542D01*
X156580683Y-109815221D01*
X156595717Y-109802380D01*
X156597432Y-109801134D01*
X156612107Y-109790472D01*
X156640298Y-109756395D01*
X156648288Y-109747616D01*
X157725500Y-108670405D01*
X157787812Y-108636379D01*
X157814595Y-108633500D01*
X159490500Y-108633500D01*
X159558621Y-108653502D01*
X159605114Y-108707158D01*
X159616500Y-108759500D01*
X159616500Y-109048134D01*
X159623255Y-109110316D01*
X159674385Y-109246705D01*
X159761739Y-109363261D01*
X159878295Y-109450615D01*
X160014684Y-109501745D01*
X160076866Y-109508500D01*
X161523134Y-109508500D01*
X161585316Y-109501745D01*
X161721705Y-109450615D01*
X161838261Y-109363261D01*
X161925615Y-109246705D01*
X161976745Y-109110316D01*
X161983500Y-109048134D01*
X161983500Y-109044669D01*
X164017001Y-109044669D01*
X164017371Y-109051490D01*
X164022895Y-109102352D01*
X164026521Y-109117604D01*
X164071676Y-109238054D01*
X164080214Y-109253649D01*
X164156715Y-109355724D01*
X164169276Y-109368285D01*
X164271351Y-109444786D01*
X164286946Y-109453324D01*
X164407394Y-109498478D01*
X164422649Y-109502105D01*
X164473514Y-109507631D01*
X164480328Y-109508000D01*
X164927885Y-109508000D01*
X164943124Y-109503525D01*
X164944329Y-109502135D01*
X164946000Y-109494452D01*
X164946000Y-109489884D01*
X165454000Y-109489884D01*
X165458475Y-109505123D01*
X165459865Y-109506328D01*
X165467548Y-109507999D01*
X165919669Y-109507999D01*
X165926490Y-109507629D01*
X165977352Y-109502105D01*
X165992604Y-109498479D01*
X166113054Y-109453324D01*
X166128649Y-109444786D01*
X166230724Y-109368285D01*
X166243285Y-109355724D01*
X166319786Y-109253649D01*
X166328324Y-109238054D01*
X166373478Y-109117606D01*
X166377105Y-109102351D01*
X166382631Y-109051486D01*
X166383000Y-109044672D01*
X166383000Y-108272115D01*
X166378525Y-108256876D01*
X166377135Y-108255671D01*
X166369452Y-108254000D01*
X165472115Y-108254000D01*
X165456876Y-108258475D01*
X165455671Y-108259865D01*
X165454000Y-108267548D01*
X165454000Y-109489884D01*
X164946000Y-109489884D01*
X164946000Y-108272115D01*
X164941525Y-108256876D01*
X164940135Y-108255671D01*
X164932452Y-108254000D01*
X164035116Y-108254000D01*
X164019877Y-108258475D01*
X164018672Y-108259865D01*
X164017001Y-108267548D01*
X164017001Y-109044669D01*
X161983500Y-109044669D01*
X161983500Y-107727885D01*
X164017000Y-107727885D01*
X164021475Y-107743124D01*
X164022865Y-107744329D01*
X164030548Y-107746000D01*
X164927885Y-107746000D01*
X164943124Y-107741525D01*
X164944329Y-107740135D01*
X164946000Y-107732452D01*
X164946000Y-107727885D01*
X165454000Y-107727885D01*
X165458475Y-107743124D01*
X165459865Y-107744329D01*
X165467548Y-107746000D01*
X166364884Y-107746000D01*
X166380123Y-107741525D01*
X166381328Y-107740135D01*
X166382999Y-107732452D01*
X166382999Y-106955331D01*
X166382629Y-106948510D01*
X166377105Y-106897648D01*
X166373479Y-106882396D01*
X166328324Y-106761946D01*
X166319786Y-106746351D01*
X166243285Y-106644276D01*
X166230724Y-106631715D01*
X166128649Y-106555214D01*
X166113054Y-106546676D01*
X165992606Y-106501522D01*
X165977351Y-106497895D01*
X165926486Y-106492369D01*
X165919672Y-106492000D01*
X165472115Y-106492000D01*
X165456876Y-106496475D01*
X165455671Y-106497865D01*
X165454000Y-106505548D01*
X165454000Y-107727885D01*
X164946000Y-107727885D01*
X164946000Y-106510116D01*
X164941525Y-106494877D01*
X164940135Y-106493672D01*
X164932452Y-106492001D01*
X164480331Y-106492001D01*
X164473510Y-106492371D01*
X164422648Y-106497895D01*
X164407396Y-106501521D01*
X164286946Y-106546676D01*
X164271351Y-106555214D01*
X164169276Y-106631715D01*
X164156715Y-106644276D01*
X164080214Y-106746351D01*
X164071676Y-106761946D01*
X164026522Y-106882394D01*
X164022895Y-106897649D01*
X164017369Y-106948514D01*
X164017000Y-106955328D01*
X164017000Y-107727885D01*
X161983500Y-107727885D01*
X161983500Y-106951866D01*
X161976745Y-106889684D01*
X161925615Y-106753295D01*
X161838261Y-106636739D01*
X161721705Y-106549385D01*
X161585316Y-106498255D01*
X161523134Y-106491500D01*
X160076866Y-106491500D01*
X160014684Y-106498255D01*
X159878295Y-106549385D01*
X159761739Y-106636739D01*
X159674385Y-106753295D01*
X159623255Y-106889684D01*
X159616500Y-106951866D01*
X159616500Y-107240500D01*
X159596498Y-107308621D01*
X159542842Y-107355114D01*
X159490500Y-107366500D01*
X157578767Y-107366500D01*
X157567584Y-107365973D01*
X157560091Y-107364298D01*
X157552165Y-107364547D01*
X157552164Y-107364547D01*
X157492001Y-107366438D01*
X157488043Y-107366500D01*
X157460144Y-107366500D01*
X157456154Y-107367004D01*
X157444320Y-107367936D01*
X157400111Y-107369326D01*
X157392497Y-107371538D01*
X157392492Y-107371539D01*
X157380659Y-107374977D01*
X157361296Y-107378988D01*
X157357497Y-107379468D01*
X157349062Y-107380533D01*
X157349060Y-107380533D01*
X157343878Y-107381188D01*
X157343876Y-107381188D01*
X157341203Y-107381526D01*
X157341149Y-107381095D01*
X157275245Y-107378834D01*
X157216870Y-107338425D01*
X157189609Y-107272871D01*
X157202116Y-107202985D01*
X157225773Y-107170131D01*
X165444242Y-98951662D01*
X165452532Y-98944118D01*
X165459013Y-98940005D01*
X165505654Y-98890337D01*
X165508408Y-98887496D01*
X165528129Y-98867775D01*
X165530607Y-98864580D01*
X165538313Y-98855558D01*
X165563153Y-98829106D01*
X165568581Y-98823326D01*
X165578341Y-98805573D01*
X165589194Y-98789050D01*
X165596748Y-98779311D01*
X165601608Y-98773046D01*
X165619171Y-98732462D01*
X165624378Y-98721832D01*
X165645690Y-98683065D01*
X165647661Y-98675388D01*
X165647663Y-98675383D01*
X165650727Y-98663447D01*
X165657133Y-98644735D01*
X165662029Y-98633422D01*
X165665176Y-98626150D01*
X165672092Y-98582486D01*
X165674499Y-98570865D01*
X165683523Y-98535716D01*
X165683523Y-98535715D01*
X165685495Y-98528035D01*
X165685495Y-98507774D01*
X165687046Y-98488063D01*
X165688974Y-98475890D01*
X165690214Y-98468062D01*
X165686054Y-98424051D01*
X165685495Y-98412194D01*
X165685495Y-97847601D01*
X165709365Y-97773808D01*
X165718969Y-97760517D01*
X166023541Y-97232983D01*
X166065134Y-97139898D01*
X166099088Y-96973748D01*
X166097751Y-96929994D01*
X166115663Y-96861296D01*
X166134597Y-96837052D01*
X168179747Y-94791902D01*
X168188037Y-94784358D01*
X168194518Y-94780245D01*
X168241159Y-94730577D01*
X168243913Y-94727736D01*
X168263634Y-94708015D01*
X168266112Y-94704820D01*
X168273818Y-94695798D01*
X168298658Y-94669346D01*
X168304086Y-94663566D01*
X168313846Y-94645813D01*
X168324699Y-94629290D01*
X168332253Y-94619551D01*
X168337113Y-94613286D01*
X168354676Y-94572702D01*
X168359883Y-94562072D01*
X168381195Y-94523305D01*
X168383166Y-94515628D01*
X168383168Y-94515623D01*
X168386232Y-94503687D01*
X168392638Y-94484975D01*
X168397533Y-94473664D01*
X168400681Y-94466390D01*
X168401921Y-94458562D01*
X168401923Y-94458555D01*
X168407599Y-94422721D01*
X168410005Y-94411101D01*
X168419028Y-94375956D01*
X168419028Y-94375955D01*
X168421000Y-94368275D01*
X168421000Y-94348021D01*
X168422551Y-94328310D01*
X168424480Y-94316131D01*
X168425720Y-94308302D01*
X168421559Y-94264283D01*
X168421000Y-94252426D01*
X168421000Y-87921647D01*
X168441002Y-87853526D01*
X168461680Y-87830694D01*
X168461055Y-87830071D01*
X168575693Y-87715233D01*
X168580864Y-87710053D01*
X168669849Y-87565692D01*
X168679729Y-87535906D01*
X168721072Y-87411262D01*
X168721072Y-87411260D01*
X168723238Y-87404731D01*
X168733500Y-87304572D01*
X168733500Y-86695428D01*
X168730689Y-86668331D01*
X168728949Y-86651568D01*
X168722978Y-86594018D01*
X168669308Y-86433151D01*
X168580071Y-86288945D01*
X168574616Y-86283499D01*
X168460053Y-86169136D01*
X168461882Y-86167304D01*
X168427840Y-86119277D01*
X168421000Y-86078327D01*
X168421000Y-81932008D01*
X168421527Y-81920824D01*
X168423201Y-81913336D01*
X168421062Y-81845277D01*
X168421000Y-81841320D01*
X168421000Y-81813389D01*
X168420494Y-81809383D01*
X168419561Y-81797537D01*
X168418422Y-81761282D01*
X168418173Y-81753355D01*
X168412522Y-81733903D01*
X168408514Y-81714551D01*
X168406968Y-81702313D01*
X168406967Y-81702311D01*
X168405974Y-81694448D01*
X168389694Y-81653331D01*
X168385859Y-81642130D01*
X168373518Y-81599651D01*
X168369485Y-81592832D01*
X168369483Y-81592827D01*
X168363207Y-81582216D01*
X168354510Y-81564466D01*
X168347052Y-81545628D01*
X168339134Y-81534729D01*
X168321072Y-81509870D01*
X168314553Y-81499946D01*
X168296078Y-81468705D01*
X168296074Y-81468700D01*
X168292042Y-81461882D01*
X168277718Y-81447558D01*
X168264876Y-81432523D01*
X168252972Y-81416138D01*
X168218906Y-81387956D01*
X168210127Y-81379967D01*
X165056152Y-78225992D01*
X165022126Y-78163680D01*
X165027191Y-78092865D01*
X165069738Y-78036029D01*
X165119803Y-78013493D01*
X165213843Y-77994104D01*
X165213846Y-77994103D01*
X165220583Y-77992714D01*
X165226860Y-77989900D01*
X165226862Y-77989899D01*
X165267194Y-77971815D01*
X165312454Y-77951522D01*
X165775036Y-77684450D01*
X165808998Y-77659845D01*
X165852019Y-77628676D01*
X165852021Y-77628675D01*
X165857599Y-77624633D01*
X165870511Y-77610065D01*
X165965224Y-77503198D01*
X165970079Y-77497720D01*
X166050346Y-77348335D01*
X166094095Y-77184492D01*
X166098978Y-77014979D01*
X166067612Y-76862852D01*
X166066123Y-76855628D01*
X166066122Y-76855625D01*
X166064733Y-76848888D01*
X166023541Y-76757017D01*
X165718969Y-76229483D01*
X165659152Y-76146920D01*
X165653997Y-76142351D01*
X165653995Y-76142349D01*
X165537717Y-76039295D01*
X165532239Y-76034440D01*
X165382854Y-75954173D01*
X165300932Y-75932298D01*
X165226082Y-75912312D01*
X165226081Y-75912312D01*
X165219011Y-75910424D01*
X165211698Y-75910213D01*
X165211696Y-75910213D01*
X165141391Y-75908188D01*
X165049498Y-75905541D01*
X165042331Y-75907019D01*
X165042328Y-75907019D01*
X164981449Y-75919571D01*
X164910693Y-75913737D01*
X164866911Y-75885262D01*
X159076414Y-70094764D01*
X159042388Y-70032452D01*
X159042060Y-69980442D01*
X159051242Y-69935508D01*
X159054569Y-69919229D01*
X159050781Y-69795255D01*
X159049614Y-69757040D01*
X159049613Y-69757036D01*
X159049390Y-69749725D01*
X159045028Y-69733500D01*
X159007257Y-69593028D01*
X159005356Y-69585958D01*
X158947450Y-69478639D01*
X158928304Y-69443155D01*
X158928301Y-69443151D01*
X158924828Y-69436714D01*
X158918347Y-69429427D01*
X158816697Y-69315137D01*
X158816695Y-69315135D01*
X158812126Y-69309998D01*
X158730517Y-69251031D01*
X158289147Y-68996206D01*
X158205815Y-68948094D01*
X158205814Y-68948094D01*
X158202983Y-68946459D01*
X158109898Y-68904866D01*
X157943748Y-68870912D01*
X157899994Y-68872249D01*
X157831296Y-68854337D01*
X157807052Y-68835403D01*
X155791897Y-66820247D01*
X155784357Y-66811961D01*
X155780245Y-66805482D01*
X155730593Y-66758856D01*
X155727752Y-66756102D01*
X155708015Y-66736365D01*
X155704818Y-66733885D01*
X155695796Y-66726180D01*
X155682361Y-66713564D01*
X155663566Y-66695914D01*
X155656620Y-66692095D01*
X155656617Y-66692093D01*
X155645811Y-66686152D01*
X155629292Y-66675301D01*
X155628828Y-66674941D01*
X155613286Y-66662886D01*
X155606017Y-66659741D01*
X155606013Y-66659738D01*
X155572708Y-66645326D01*
X155562058Y-66640109D01*
X155523305Y-66618805D01*
X155503682Y-66613767D01*
X155484979Y-66607363D01*
X155473665Y-66602467D01*
X155473664Y-66602467D01*
X155466390Y-66599319D01*
X155458567Y-66598080D01*
X155458557Y-66598077D01*
X155422721Y-66592401D01*
X155411101Y-66589995D01*
X155375956Y-66580972D01*
X155375955Y-66580972D01*
X155368275Y-66579000D01*
X155348021Y-66579000D01*
X155328310Y-66577449D01*
X155316131Y-66575520D01*
X155308302Y-66574280D01*
X155279031Y-66577047D01*
X155264284Y-66578441D01*
X155252426Y-66579000D01*
X148921647Y-66579000D01*
X148853526Y-66558998D01*
X148830694Y-66538320D01*
X148830071Y-66538945D01*
X148715233Y-66424307D01*
X148710053Y-66419136D01*
X148565692Y-66330151D01*
X148558743Y-66327846D01*
X148411262Y-66278928D01*
X148411260Y-66278928D01*
X148404731Y-66276762D01*
X148304572Y-66266500D01*
X147695428Y-66266500D01*
X147692182Y-66266837D01*
X147692178Y-66266837D01*
X147658397Y-66270342D01*
X147594018Y-66277022D01*
X147433151Y-66330692D01*
X147288945Y-66419929D01*
X147169136Y-66539947D01*
X147167304Y-66538118D01*
X147119277Y-66572160D01*
X147078327Y-66579000D01*
X140770520Y-66579000D01*
X140759337Y-66578473D01*
X140751844Y-66576798D01*
X140743918Y-66577047D01*
X140743917Y-66577047D01*
X140683767Y-66578938D01*
X140679808Y-66579000D01*
X140651900Y-66579000D01*
X140647967Y-66579497D01*
X140647964Y-66579497D01*
X140647899Y-66579505D01*
X140636061Y-66580438D01*
X140591863Y-66581827D01*
X140584249Y-66584039D01*
X140584244Y-66584040D01*
X140572406Y-66587479D01*
X140553049Y-66591488D01*
X140550881Y-66591762D01*
X140532959Y-66594026D01*
X140525593Y-66596942D01*
X140525587Y-66596944D01*
X140491853Y-66610301D01*
X140480622Y-66614146D01*
X140438159Y-66626483D01*
X140420721Y-66636796D01*
X140402973Y-66645491D01*
X140384139Y-66652948D01*
X140377725Y-66657608D01*
X140348381Y-66678928D01*
X140338457Y-66685447D01*
X140307216Y-66703922D01*
X140307211Y-66703926D01*
X140300393Y-66707958D01*
X140286069Y-66722282D01*
X140271037Y-66735121D01*
X140254649Y-66747028D01*
X140226468Y-66781093D01*
X140218478Y-66789873D01*
X138152880Y-68855471D01*
X138090568Y-68889497D01*
X138060159Y-68892324D01*
X138014979Y-68891022D01*
X138007810Y-68892500D01*
X138007811Y-68892500D01*
X137855628Y-68923877D01*
X137855625Y-68923878D01*
X137848888Y-68925267D01*
X137842611Y-68928081D01*
X137842609Y-68928082D01*
X137813221Y-68941259D01*
X137757017Y-68966459D01*
X137229483Y-69271031D01*
X137226847Y-69272941D01*
X137226839Y-69272946D01*
X137216358Y-69280540D01*
X137142434Y-69304505D01*
X135440763Y-69304505D01*
X135429580Y-69303978D01*
X135422087Y-69302303D01*
X135414161Y-69302552D01*
X135414160Y-69302552D01*
X135353997Y-69304443D01*
X135350039Y-69304505D01*
X135322139Y-69304505D01*
X135318149Y-69305009D01*
X135306315Y-69305941D01*
X135262106Y-69307331D01*
X135254490Y-69309544D01*
X135254488Y-69309544D01*
X135242647Y-69312984D01*
X135223288Y-69316993D01*
X135221978Y-69317159D01*
X135203198Y-69319531D01*
X135195832Y-69322447D01*
X135195826Y-69322449D01*
X135162093Y-69335805D01*
X135150863Y-69339650D01*
X135143284Y-69341852D01*
X135108402Y-69351986D01*
X135101579Y-69356021D01*
X135090961Y-69362300D01*
X135073208Y-69370997D01*
X135065563Y-69374024D01*
X135054378Y-69378453D01*
X135047963Y-69383114D01*
X135018607Y-69404442D01*
X135008690Y-69410956D01*
X134970633Y-69433463D01*
X134956312Y-69447784D01*
X134941279Y-69460624D01*
X134924888Y-69472533D01*
X134919837Y-69478639D01*
X134896697Y-69506610D01*
X134888707Y-69515389D01*
X124549500Y-79854595D01*
X124487188Y-79888621D01*
X124460405Y-79891500D01*
X124404513Y-79891500D01*
X124398061Y-79892872D01*
X124398056Y-79892872D01*
X124313371Y-79910873D01*
X124217712Y-79931206D01*
X124211682Y-79933891D01*
X124211681Y-79933891D01*
X124049278Y-80006197D01*
X124049276Y-80006198D01*
X124043248Y-80008882D01*
X124037907Y-80012762D01*
X124037906Y-80012763D01*
X124032391Y-80016770D01*
X123888747Y-80121134D01*
X123884326Y-80126044D01*
X123884325Y-80126045D01*
X123818443Y-80199215D01*
X123760960Y-80263056D01*
X123734365Y-80309120D01*
X123676252Y-80409775D01*
X123665473Y-80428444D01*
X123606458Y-80610072D01*
X123605768Y-80616633D01*
X123605768Y-80616635D01*
X123596355Y-80706197D01*
X123586496Y-80800000D01*
X123587186Y-80806565D01*
X123604601Y-80972256D01*
X123606458Y-80989928D01*
X123608498Y-80996206D01*
X123642731Y-81101564D01*
X123644759Y-81172531D01*
X123608096Y-81233329D01*
X123544384Y-81264655D01*
X123522898Y-81266500D01*
X122457225Y-81266500D01*
X122389104Y-81246498D01*
X122349449Y-81205771D01*
X122340576Y-81191120D01*
X122336639Y-81184619D01*
X122215381Y-81063361D01*
X122068699Y-80974528D01*
X122061452Y-80972257D01*
X122061450Y-80972256D01*
X121958061Y-80939856D01*
X121905062Y-80923247D01*
X121831635Y-80916500D01*
X121828737Y-80916500D01*
X121574335Y-80916501D01*
X121318366Y-80916501D01*
X121315508Y-80916764D01*
X121315499Y-80916764D01*
X121279996Y-80920026D01*
X121244938Y-80923247D01*
X121238560Y-80925246D01*
X121238559Y-80925246D01*
X121088550Y-80972256D01*
X121088548Y-80972257D01*
X121081301Y-80974528D01*
X120934619Y-81063361D01*
X120839095Y-81158885D01*
X120776783Y-81192911D01*
X120705968Y-81187846D01*
X120660905Y-81158885D01*
X120565381Y-81063361D01*
X120418699Y-80974528D01*
X120411452Y-80972257D01*
X120411450Y-80972256D01*
X120308061Y-80939856D01*
X120255062Y-80923247D01*
X120181635Y-80916500D01*
X120178737Y-80916500D01*
X119924335Y-80916501D01*
X119668366Y-80916501D01*
X119665508Y-80916764D01*
X119665499Y-80916764D01*
X119629996Y-80920026D01*
X119594938Y-80923247D01*
X119588560Y-80925246D01*
X119588559Y-80925246D01*
X119438550Y-80972256D01*
X119438548Y-80972257D01*
X119431301Y-80974528D01*
X119360623Y-81017332D01*
X119328206Y-81036964D01*
X119259576Y-81055143D01*
X119211686Y-81044294D01*
X119188327Y-81033894D01*
X119188321Y-81033892D01*
X119182288Y-81031206D01*
X119088888Y-81011353D01*
X119001944Y-80992872D01*
X119001939Y-80992872D01*
X118995487Y-80991500D01*
X118804513Y-80991500D01*
X118798061Y-80992872D01*
X118798056Y-80992872D01*
X118682983Y-81017332D01*
X118612192Y-81011930D01*
X118555560Y-80969113D01*
X118531066Y-80902475D01*
X118546487Y-80833174D01*
X118567691Y-80804990D01*
X128238911Y-71133770D01*
X128253323Y-71121384D01*
X128264918Y-71112851D01*
X128264923Y-71112846D01*
X128270818Y-71108508D01*
X128275557Y-71102930D01*
X128275560Y-71102927D01*
X128305035Y-71068232D01*
X128311965Y-71060716D01*
X128317660Y-71055021D01*
X128335281Y-71032749D01*
X128338072Y-71029345D01*
X128380591Y-70979297D01*
X128380592Y-70979295D01*
X128385333Y-70973715D01*
X128388661Y-70967199D01*
X128392020Y-70962162D01*
X128395194Y-70957023D01*
X128399734Y-70951284D01*
X128430636Y-70885163D01*
X128432569Y-70881209D01*
X128447875Y-70851234D01*
X128465769Y-70816192D01*
X128467510Y-70809076D01*
X128469604Y-70803446D01*
X128471523Y-70797679D01*
X128474621Y-70791050D01*
X128489483Y-70719600D01*
X128490453Y-70715315D01*
X128507808Y-70644390D01*
X128508500Y-70633236D01*
X128508536Y-70633238D01*
X128508775Y-70629248D01*
X128509150Y-70625050D01*
X128510640Y-70617885D01*
X128508546Y-70540479D01*
X128508500Y-70537072D01*
X128508500Y-68624493D01*
X128528502Y-68556372D01*
X128582158Y-68509879D01*
X128603763Y-68502457D01*
X128610316Y-68501745D01*
X128617711Y-68498973D01*
X128617714Y-68498972D01*
X128738297Y-68453767D01*
X128746705Y-68450615D01*
X128863261Y-68363261D01*
X128899176Y-68315340D01*
X128956033Y-68272827D01*
X129026851Y-68267801D01*
X129089145Y-68301861D01*
X129100817Y-68315330D01*
X129136739Y-68363261D01*
X129253295Y-68450615D01*
X129254107Y-68450919D01*
X129301370Y-68498291D01*
X129316383Y-68567682D01*
X129310547Y-68597485D01*
X129308501Y-68603782D01*
X129308500Y-68603789D01*
X129306458Y-68610072D01*
X129286496Y-68800000D01*
X129287186Y-68806565D01*
X129296200Y-68892324D01*
X129306458Y-68989928D01*
X129365473Y-69171556D01*
X129460960Y-69336944D01*
X129465378Y-69341851D01*
X129465379Y-69341852D01*
X129544232Y-69429427D01*
X129588747Y-69478866D01*
X129667136Y-69535819D01*
X129729135Y-69580864D01*
X129743248Y-69591118D01*
X129749276Y-69593802D01*
X129749278Y-69593803D01*
X129910219Y-69665458D01*
X129917712Y-69668794D01*
X130011113Y-69688647D01*
X130098056Y-69707128D01*
X130098061Y-69707128D01*
X130104513Y-69708500D01*
X130295487Y-69708500D01*
X130301939Y-69707128D01*
X130301944Y-69707128D01*
X130388887Y-69688647D01*
X130482288Y-69668794D01*
X130489781Y-69665458D01*
X130650722Y-69593803D01*
X130650724Y-69593802D01*
X130656752Y-69591118D01*
X130670866Y-69580864D01*
X130732864Y-69535819D01*
X130811253Y-69478866D01*
X130855768Y-69429427D01*
X130934621Y-69341852D01*
X130934622Y-69341851D01*
X130939040Y-69336944D01*
X131034527Y-69171556D01*
X131093542Y-68989928D01*
X131103801Y-68892324D01*
X131112814Y-68806565D01*
X131113504Y-68800000D01*
X131093542Y-68610072D01*
X131096269Y-68609785D01*
X131100774Y-68551071D01*
X131143614Y-68494456D01*
X131174371Y-68477732D01*
X131238295Y-68453768D01*
X131238296Y-68453767D01*
X131246705Y-68450615D01*
X131363261Y-68363261D01*
X131450615Y-68246705D01*
X131501745Y-68110316D01*
X131508500Y-68048134D01*
X131508500Y-65951866D01*
X131501745Y-65889684D01*
X131450615Y-65753295D01*
X131363261Y-65636739D01*
X131246705Y-65549385D01*
X131110316Y-65498255D01*
X131048134Y-65491500D01*
X129451866Y-65491500D01*
X129389684Y-65498255D01*
X129253295Y-65549385D01*
X129136739Y-65636739D01*
X129100824Y-65684660D01*
X129043967Y-65727173D01*
X128973149Y-65732199D01*
X128910855Y-65698139D01*
X128899183Y-65684670D01*
X128863261Y-65636739D01*
X128746705Y-65549385D01*
X128610316Y-65498255D01*
X128548134Y-65491500D01*
X126951866Y-65491500D01*
X126889684Y-65498255D01*
X126753295Y-65549385D01*
X126636739Y-65636739D01*
X126600824Y-65684660D01*
X126543967Y-65727173D01*
X126473149Y-65732199D01*
X126410855Y-65698139D01*
X126399183Y-65684670D01*
X126363261Y-65636739D01*
X126246705Y-65549385D01*
X126110316Y-65498255D01*
X126048134Y-65491500D01*
X124451866Y-65491500D01*
X124389684Y-65498255D01*
X124253295Y-65549385D01*
X124136739Y-65636739D01*
X124049385Y-65753295D01*
X123998255Y-65889684D01*
X123991500Y-65951866D01*
X123991500Y-68048134D01*
X123998255Y-68110316D01*
X124049385Y-68246705D01*
X124136739Y-68363261D01*
X124253295Y-68450615D01*
X124261703Y-68453767D01*
X124382286Y-68498972D01*
X124382289Y-68498973D01*
X124389684Y-68501745D01*
X124395453Y-68502372D01*
X124456291Y-68537126D01*
X124489113Y-68600081D01*
X124491500Y-68624493D01*
X124491500Y-69483629D01*
X124471498Y-69551750D01*
X124454595Y-69572724D01*
X122980224Y-71047095D01*
X122917912Y-71081121D01*
X122891129Y-71084000D01*
X122104500Y-71084000D01*
X122036379Y-71063998D01*
X121989886Y-71010342D01*
X121978500Y-70958000D01*
X121978500Y-70794366D01*
X121971745Y-70732184D01*
X121920615Y-70595795D01*
X121833261Y-70479239D01*
X121716705Y-70391885D01*
X121580316Y-70340755D01*
X121518134Y-70334000D01*
X120421866Y-70334000D01*
X120359684Y-70340755D01*
X120223295Y-70391885D01*
X120106739Y-70479239D01*
X120019385Y-70595795D01*
X119968255Y-70732184D01*
X119961500Y-70794366D01*
X119961500Y-72890634D01*
X119968255Y-72952816D01*
X120019385Y-73089205D01*
X120106739Y-73205761D01*
X120223295Y-73293115D01*
X120359684Y-73344245D01*
X120421866Y-73351000D01*
X121518134Y-73351000D01*
X121580316Y-73344245D01*
X121716705Y-73293115D01*
X121833261Y-73205761D01*
X121920615Y-73089205D01*
X121971745Y-72952816D01*
X121978500Y-72890634D01*
X121978500Y-72727000D01*
X121998502Y-72658879D01*
X122052158Y-72612386D01*
X122104500Y-72601000D01*
X123190430Y-72601000D01*
X123209380Y-72602433D01*
X123223615Y-72604599D01*
X123223619Y-72604599D01*
X123230849Y-72605699D01*
X123238141Y-72605106D01*
X123238144Y-72605106D01*
X123283518Y-72601415D01*
X123293733Y-72601000D01*
X123301793Y-72601000D01*
X123315083Y-72599451D01*
X123330007Y-72597711D01*
X123334382Y-72597278D01*
X123399839Y-72591954D01*
X123399842Y-72591953D01*
X123407137Y-72591360D01*
X123414101Y-72589104D01*
X123420060Y-72587913D01*
X123425915Y-72586529D01*
X123433181Y-72585682D01*
X123501827Y-72560765D01*
X123505955Y-72559348D01*
X123568436Y-72539107D01*
X123568438Y-72539106D01*
X123575399Y-72536851D01*
X123581654Y-72533055D01*
X123587128Y-72530549D01*
X123592558Y-72527830D01*
X123599437Y-72525333D01*
X123660476Y-72485314D01*
X123664180Y-72482977D01*
X123726607Y-72445095D01*
X123734984Y-72437697D01*
X123735008Y-72437724D01*
X123738000Y-72435071D01*
X123741233Y-72432368D01*
X123747352Y-72428356D01*
X123800628Y-72372117D01*
X123803006Y-72369675D01*
X125738911Y-70433770D01*
X125753323Y-70421384D01*
X125764918Y-70412851D01*
X125764923Y-70412846D01*
X125770818Y-70408508D01*
X125775557Y-70402930D01*
X125775560Y-70402927D01*
X125805035Y-70368232D01*
X125811965Y-70360716D01*
X125817661Y-70355020D01*
X125819924Y-70352159D01*
X125819929Y-70352154D01*
X125835293Y-70332734D01*
X125838082Y-70329333D01*
X125880592Y-70279296D01*
X125880594Y-70279294D01*
X125885333Y-70273715D01*
X125888662Y-70267195D01*
X125892028Y-70262148D01*
X125895193Y-70257024D01*
X125899735Y-70251283D01*
X125906963Y-70235819D01*
X125930634Y-70185170D01*
X125932565Y-70181218D01*
X125962442Y-70122708D01*
X125962443Y-70122706D01*
X125965769Y-70116192D01*
X125967508Y-70109086D01*
X125969609Y-70103436D01*
X125971524Y-70097679D01*
X125974622Y-70091050D01*
X125989491Y-70019565D01*
X125990461Y-70015282D01*
X125998986Y-69980442D01*
X126007808Y-69944390D01*
X126008500Y-69933236D01*
X126008535Y-69933238D01*
X126008775Y-69929266D01*
X126009152Y-69925045D01*
X126010641Y-69917885D01*
X126008546Y-69840458D01*
X126008500Y-69837050D01*
X126008500Y-68624493D01*
X126028502Y-68556372D01*
X126082158Y-68509879D01*
X126103763Y-68502457D01*
X126110316Y-68501745D01*
X126117711Y-68498973D01*
X126117714Y-68498972D01*
X126238297Y-68453767D01*
X126246705Y-68450615D01*
X126363261Y-68363261D01*
X126399176Y-68315340D01*
X126456033Y-68272827D01*
X126526851Y-68267801D01*
X126589145Y-68301861D01*
X126600817Y-68315330D01*
X126636739Y-68363261D01*
X126753295Y-68450615D01*
X126761703Y-68453767D01*
X126882286Y-68498972D01*
X126882289Y-68498973D01*
X126889684Y-68501745D01*
X126895453Y-68502372D01*
X126956291Y-68537126D01*
X126989113Y-68600081D01*
X126991500Y-68624493D01*
X126991500Y-70183629D01*
X126971498Y-70251750D01*
X126954595Y-70272724D01*
X119171615Y-78055704D01*
X119109303Y-78089730D01*
X119038488Y-78084665D01*
X118981652Y-78042118D01*
X118956841Y-77975598D01*
X118974066Y-77902470D01*
X118974754Y-77901307D01*
X118979614Y-77895041D01*
X118997174Y-77854463D01*
X119002391Y-77843813D01*
X119023695Y-77805060D01*
X119028733Y-77785437D01*
X119035137Y-77766734D01*
X119040033Y-77755420D01*
X119040033Y-77755419D01*
X119043181Y-77748145D01*
X119044420Y-77740322D01*
X119044423Y-77740312D01*
X119050099Y-77704476D01*
X119052505Y-77692856D01*
X119061528Y-77657711D01*
X119061528Y-77657710D01*
X119063500Y-77650030D01*
X119063500Y-77629776D01*
X119065051Y-77610065D01*
X119066980Y-77597886D01*
X119068220Y-77590057D01*
X119064059Y-77546038D01*
X119063500Y-77534181D01*
X119063500Y-73422882D01*
X119083502Y-73354761D01*
X119137158Y-73308268D01*
X119145269Y-73304901D01*
X119168293Y-73296269D01*
X119168297Y-73296267D01*
X119176705Y-73293115D01*
X119293261Y-73205761D01*
X119380615Y-73089205D01*
X119431745Y-72952816D01*
X119438500Y-72890634D01*
X119438500Y-70794366D01*
X119431745Y-70732184D01*
X119380615Y-70595795D01*
X119293261Y-70479239D01*
X119176705Y-70391885D01*
X119040316Y-70340755D01*
X118978134Y-70334000D01*
X117881866Y-70334000D01*
X117819684Y-70340755D01*
X117683295Y-70391885D01*
X117566739Y-70479239D01*
X117479385Y-70595795D01*
X117428255Y-70732184D01*
X117421500Y-70794366D01*
X117421500Y-72890634D01*
X117428255Y-72952816D01*
X117479385Y-73089205D01*
X117566739Y-73205761D01*
X117683295Y-73293115D01*
X117691703Y-73296267D01*
X117691707Y-73296269D01*
X117714731Y-73304901D01*
X117771495Y-73347543D01*
X117796194Y-73414105D01*
X117796500Y-73422882D01*
X117796500Y-77255406D01*
X117776498Y-77323527D01*
X117759595Y-77344501D01*
X116738595Y-78365501D01*
X116676283Y-78399527D01*
X116605468Y-78394462D01*
X116548632Y-78351915D01*
X116523821Y-78285395D01*
X116523500Y-78276406D01*
X116523500Y-73422882D01*
X116543502Y-73354761D01*
X116597158Y-73308268D01*
X116605269Y-73304901D01*
X116628293Y-73296269D01*
X116628297Y-73296267D01*
X116636705Y-73293115D01*
X116753261Y-73205761D01*
X116840615Y-73089205D01*
X116891745Y-72952816D01*
X116898500Y-72890634D01*
X116898500Y-70794366D01*
X116891745Y-70732184D01*
X116840615Y-70595795D01*
X116753261Y-70479239D01*
X116636705Y-70391885D01*
X116500316Y-70340755D01*
X116438134Y-70334000D01*
X115341866Y-70334000D01*
X115279684Y-70340755D01*
X115143295Y-70391885D01*
X115026739Y-70479239D01*
X114939385Y-70595795D01*
X114888255Y-70732184D01*
X114881500Y-70794366D01*
X114881500Y-72890634D01*
X114888255Y-72952816D01*
X114939385Y-73089205D01*
X115026739Y-73205761D01*
X115143295Y-73293115D01*
X115151703Y-73296267D01*
X115151707Y-73296269D01*
X115174731Y-73304901D01*
X115231495Y-73347543D01*
X115256194Y-73414105D01*
X115256500Y-73422882D01*
X115256500Y-79045405D01*
X115236498Y-79113526D01*
X115219595Y-79134500D01*
X114198595Y-80155500D01*
X114136283Y-80189526D01*
X114065468Y-80184461D01*
X114008632Y-80141914D01*
X113983821Y-80075394D01*
X113983500Y-80066405D01*
X113983500Y-73422882D01*
X114003502Y-73354761D01*
X114057158Y-73308268D01*
X114065269Y-73304901D01*
X114088293Y-73296269D01*
X114088297Y-73296267D01*
X114096705Y-73293115D01*
X114213261Y-73205761D01*
X114300615Y-73089205D01*
X114351745Y-72952816D01*
X114358500Y-72890634D01*
X114358500Y-70794366D01*
X114351745Y-70732184D01*
X114300615Y-70595795D01*
X114213261Y-70479239D01*
X114096705Y-70391885D01*
X113960316Y-70340755D01*
X113898134Y-70334000D01*
X112801866Y-70334000D01*
X112739684Y-70340755D01*
X112603295Y-70391885D01*
X112486739Y-70479239D01*
X112399385Y-70595795D01*
X112348255Y-70732184D01*
X112341500Y-70794366D01*
X112341500Y-72890634D01*
X112348255Y-72952816D01*
X112399385Y-73089205D01*
X112486739Y-73205761D01*
X112603295Y-73293115D01*
X112611703Y-73296267D01*
X112611707Y-73296269D01*
X112634731Y-73304901D01*
X112691495Y-73347543D01*
X112716194Y-73414105D01*
X112716500Y-73422882D01*
X112716500Y-80721066D01*
X112696498Y-80789187D01*
X112679595Y-80810161D01*
X111554367Y-81935389D01*
X111492055Y-81969415D01*
X111421240Y-81964350D01*
X111364404Y-81921803D01*
X111339593Y-81855283D01*
X111356537Y-81783347D01*
X111359613Y-81779381D01*
X111377176Y-81738797D01*
X111382383Y-81728167D01*
X111403695Y-81689400D01*
X111405666Y-81681723D01*
X111405668Y-81681718D01*
X111408732Y-81669782D01*
X111415138Y-81651070D01*
X111420033Y-81639759D01*
X111423181Y-81632485D01*
X111424421Y-81624657D01*
X111424423Y-81624650D01*
X111430099Y-81588816D01*
X111432505Y-81577196D01*
X111441528Y-81542051D01*
X111441528Y-81542050D01*
X111443500Y-81534370D01*
X111443500Y-81514116D01*
X111445051Y-81494405D01*
X111446980Y-81482226D01*
X111448220Y-81474397D01*
X111444059Y-81430378D01*
X111443500Y-81418521D01*
X111443500Y-73422882D01*
X111463502Y-73354761D01*
X111517158Y-73308268D01*
X111525269Y-73304901D01*
X111548293Y-73296269D01*
X111548297Y-73296267D01*
X111556705Y-73293115D01*
X111673261Y-73205761D01*
X111760615Y-73089205D01*
X111811745Y-72952816D01*
X111818500Y-72890634D01*
X111818500Y-70794366D01*
X111811745Y-70732184D01*
X111760615Y-70595795D01*
X111673261Y-70479239D01*
X111556705Y-70391885D01*
X111420316Y-70340755D01*
X111358134Y-70334000D01*
X110261866Y-70334000D01*
X110199684Y-70340755D01*
X110063295Y-70391885D01*
X109946739Y-70479239D01*
X109859385Y-70595795D01*
X109808255Y-70732184D01*
X109801500Y-70794366D01*
X109801500Y-72890634D01*
X109808255Y-72952816D01*
X109859385Y-73089205D01*
X109946739Y-73205761D01*
X110063295Y-73293115D01*
X110071703Y-73296267D01*
X110071707Y-73296269D01*
X110094731Y-73304901D01*
X110151495Y-73347543D01*
X110176194Y-73414105D01*
X110176500Y-73422882D01*
X110176500Y-81139745D01*
X110156498Y-81207866D01*
X110139595Y-81228840D01*
X109118595Y-82249840D01*
X109056283Y-82283866D01*
X108985468Y-82278801D01*
X108928632Y-82236254D01*
X108903821Y-82169734D01*
X108903500Y-82160745D01*
X108903500Y-73422882D01*
X108923502Y-73354761D01*
X108977158Y-73308268D01*
X108985269Y-73304901D01*
X109008293Y-73296269D01*
X109008297Y-73296267D01*
X109016705Y-73293115D01*
X109133261Y-73205761D01*
X109220615Y-73089205D01*
X109271745Y-72952816D01*
X109278500Y-72890634D01*
X109278500Y-70794366D01*
X109271745Y-70732184D01*
X109220615Y-70595795D01*
X109133261Y-70479239D01*
X109016705Y-70391885D01*
X108880316Y-70340755D01*
X108818134Y-70334000D01*
X107721866Y-70334000D01*
X107659684Y-70340755D01*
X107523295Y-70391885D01*
X107406739Y-70479239D01*
X107319385Y-70595795D01*
X107268255Y-70732184D01*
X107261500Y-70794366D01*
X107261500Y-72890634D01*
X107268255Y-72952816D01*
X107319385Y-73089205D01*
X107406739Y-73205761D01*
X107523295Y-73293115D01*
X107531703Y-73296267D01*
X107531707Y-73296269D01*
X107554731Y-73304901D01*
X107611495Y-73347543D01*
X107636194Y-73414105D01*
X107636500Y-73422882D01*
X107636500Y-82972638D01*
X107616498Y-83040759D01*
X107599595Y-83061733D01*
X106578595Y-84082733D01*
X106516283Y-84116759D01*
X106445468Y-84111694D01*
X106388632Y-84069147D01*
X106363821Y-84002627D01*
X106363500Y-83993638D01*
X106363500Y-73422882D01*
X106383502Y-73354761D01*
X106437158Y-73308268D01*
X106445269Y-73304901D01*
X106468293Y-73296269D01*
X106468297Y-73296267D01*
X106476705Y-73293115D01*
X106593261Y-73205761D01*
X106680615Y-73089205D01*
X106731745Y-72952816D01*
X106738500Y-72890634D01*
X106738500Y-70794366D01*
X106731745Y-70732184D01*
X106680615Y-70595795D01*
X106593261Y-70479239D01*
X106476705Y-70391885D01*
X106340316Y-70340755D01*
X106278134Y-70334000D01*
X105181866Y-70334000D01*
X105119684Y-70340755D01*
X104983295Y-70391885D01*
X104866739Y-70479239D01*
X104779385Y-70595795D01*
X104728255Y-70732184D01*
X104721500Y-70794366D01*
X104721500Y-72890634D01*
X104728255Y-72952816D01*
X104779385Y-73089205D01*
X104866739Y-73205761D01*
X104983295Y-73293115D01*
X104991703Y-73296267D01*
X104991707Y-73296269D01*
X105014731Y-73304901D01*
X105071495Y-73347543D01*
X105096194Y-73414105D01*
X105096500Y-73422882D01*
X105096500Y-83510746D01*
X105076498Y-83578867D01*
X105022842Y-83625360D01*
X104952568Y-83635464D01*
X104887988Y-83605970D01*
X104881405Y-83599841D01*
X104420040Y-83138475D01*
X103860405Y-82578840D01*
X103826379Y-82516528D01*
X103823500Y-82489745D01*
X103823500Y-73422882D01*
X103843502Y-73354761D01*
X103897158Y-73308268D01*
X103905269Y-73304901D01*
X103928293Y-73296269D01*
X103928297Y-73296267D01*
X103936705Y-73293115D01*
X104053261Y-73205761D01*
X104140615Y-73089205D01*
X104191745Y-72952816D01*
X104198500Y-72890634D01*
X104198500Y-70794366D01*
X104191745Y-70732184D01*
X104140615Y-70595795D01*
X104053261Y-70479239D01*
X103936705Y-70391885D01*
X103800316Y-70340755D01*
X103738134Y-70334000D01*
X102641866Y-70334000D01*
X102579684Y-70340755D01*
X102443295Y-70391885D01*
X102326739Y-70479239D01*
X102239385Y-70595795D01*
X102188255Y-70732184D01*
X102181500Y-70794366D01*
X102181500Y-72890634D01*
X102188255Y-72952816D01*
X102239385Y-73089205D01*
X102326739Y-73205761D01*
X102443295Y-73293115D01*
X102451703Y-73296267D01*
X102451707Y-73296269D01*
X102474731Y-73304901D01*
X102531495Y-73347543D01*
X102556194Y-73414105D01*
X102556500Y-73422882D01*
X102556500Y-81748561D01*
X102536498Y-81816682D01*
X102482842Y-81863175D01*
X102412568Y-81873279D01*
X102347988Y-81843785D01*
X102341405Y-81837656D01*
X102190807Y-81687058D01*
X102156781Y-81624746D01*
X102154592Y-81584792D01*
X102162814Y-81506565D01*
X102163504Y-81500000D01*
X102159498Y-81461882D01*
X102144232Y-81316635D01*
X102144232Y-81316633D01*
X102143542Y-81310072D01*
X102084527Y-81128444D01*
X102081135Y-81122568D01*
X102029937Y-81033891D01*
X101989040Y-80963056D01*
X101969293Y-80941124D01*
X101865675Y-80826045D01*
X101865674Y-80826044D01*
X101861253Y-80821134D01*
X101706752Y-80708882D01*
X101700724Y-80706198D01*
X101700722Y-80706197D01*
X101538319Y-80633891D01*
X101538318Y-80633891D01*
X101532288Y-80631206D01*
X101383303Y-80599538D01*
X101320829Y-80565809D01*
X101286508Y-80503660D01*
X101283500Y-80476291D01*
X101283500Y-73422882D01*
X101303502Y-73354761D01*
X101357158Y-73308268D01*
X101365269Y-73304901D01*
X101388293Y-73296269D01*
X101388297Y-73296267D01*
X101396705Y-73293115D01*
X101513261Y-73205761D01*
X101600615Y-73089205D01*
X101651745Y-72952816D01*
X101658500Y-72890634D01*
X101658500Y-70794366D01*
X101651745Y-70732184D01*
X101600615Y-70595795D01*
X101513261Y-70479239D01*
X101396705Y-70391885D01*
X101260316Y-70340755D01*
X101198134Y-70334000D01*
X100101866Y-70334000D01*
X100039684Y-70340755D01*
X99903295Y-70391885D01*
X99786739Y-70479239D01*
X99699385Y-70595795D01*
X99648255Y-70732184D01*
X99641500Y-70794366D01*
X99641500Y-72890634D01*
X99648255Y-72952816D01*
X99699385Y-73089205D01*
X99786739Y-73205761D01*
X99903295Y-73293115D01*
X99911703Y-73296267D01*
X99911707Y-73296269D01*
X99934731Y-73304901D01*
X99991495Y-73347543D01*
X100016194Y-73414105D01*
X100016500Y-73422882D01*
X100016500Y-80816406D01*
X99996498Y-80884527D01*
X99942842Y-80931020D01*
X99872568Y-80941124D01*
X99807988Y-80911630D01*
X99801405Y-80905501D01*
X99400649Y-80504744D01*
X98780405Y-79884500D01*
X98746379Y-79822188D01*
X98743500Y-79795405D01*
X98743500Y-73422882D01*
X98763502Y-73354761D01*
X98817158Y-73308268D01*
X98825269Y-73304901D01*
X98848293Y-73296269D01*
X98848297Y-73296267D01*
X98856705Y-73293115D01*
X98973261Y-73205761D01*
X99060615Y-73089205D01*
X99111745Y-72952816D01*
X99118500Y-72890634D01*
X99118500Y-70794366D01*
X99111745Y-70732184D01*
X99060615Y-70595795D01*
X98973261Y-70479239D01*
X98856705Y-70391885D01*
X98720316Y-70340755D01*
X98658134Y-70334000D01*
X97561866Y-70334000D01*
X97499684Y-70340755D01*
X97363295Y-70391885D01*
X97246739Y-70479239D01*
X97159385Y-70595795D01*
X97108255Y-70732184D01*
X97101500Y-70794366D01*
X97101500Y-72890634D01*
X97108255Y-72952816D01*
X97159385Y-73089205D01*
X97246739Y-73205761D01*
X97363295Y-73293115D01*
X97371703Y-73296267D01*
X97371707Y-73296269D01*
X97394731Y-73304901D01*
X97451495Y-73347543D01*
X97476194Y-73414105D01*
X97476500Y-73422882D01*
X97476500Y-80026406D01*
X97456498Y-80094527D01*
X97402842Y-80141020D01*
X97332568Y-80151124D01*
X97267988Y-80121630D01*
X97261405Y-80115501D01*
X96872621Y-79726716D01*
X96240405Y-79094500D01*
X96206379Y-79032188D01*
X96203500Y-79005405D01*
X96203500Y-73422882D01*
X96223502Y-73354761D01*
X96277158Y-73308268D01*
X96285269Y-73304901D01*
X96308293Y-73296269D01*
X96308297Y-73296267D01*
X96316705Y-73293115D01*
X96433261Y-73205761D01*
X96520615Y-73089205D01*
X96571745Y-72952816D01*
X96578500Y-72890634D01*
X96578500Y-70794366D01*
X96571745Y-70732184D01*
X96520615Y-70595795D01*
X96433261Y-70479239D01*
X96316705Y-70391885D01*
X96180316Y-70340755D01*
X96118134Y-70334000D01*
X95021866Y-70334000D01*
X94959684Y-70340755D01*
X94823295Y-70391885D01*
X94706739Y-70479239D01*
X94619385Y-70595795D01*
X94568255Y-70732184D01*
X94561500Y-70794366D01*
X94561500Y-72890634D01*
X94568255Y-72952816D01*
X94619385Y-73089205D01*
X94706739Y-73205761D01*
X94823295Y-73293115D01*
X94831703Y-73296267D01*
X94831707Y-73296269D01*
X94854731Y-73304901D01*
X94911495Y-73347543D01*
X94936194Y-73414105D01*
X94936500Y-73422882D01*
X94936500Y-79241233D01*
X94935973Y-79252416D01*
X94934298Y-79259909D01*
X94934547Y-79267835D01*
X94934547Y-79267836D01*
X94936438Y-79327986D01*
X94936500Y-79331945D01*
X94936500Y-79359856D01*
X94936997Y-79363790D01*
X94936997Y-79363791D01*
X94937005Y-79363856D01*
X94937938Y-79375693D01*
X94939327Y-79419889D01*
X94943916Y-79435683D01*
X94944978Y-79439339D01*
X94948987Y-79458700D01*
X94949247Y-79460754D01*
X94951526Y-79478797D01*
X94954445Y-79486168D01*
X94954445Y-79486170D01*
X94967804Y-79519912D01*
X94971649Y-79531142D01*
X94983982Y-79573593D01*
X94988015Y-79580412D01*
X94988017Y-79580417D01*
X94994293Y-79591028D01*
X95002988Y-79608776D01*
X95010448Y-79627617D01*
X95015110Y-79634033D01*
X95015110Y-79634034D01*
X95036436Y-79663387D01*
X95042952Y-79673307D01*
X95065458Y-79711362D01*
X95079779Y-79725683D01*
X95092619Y-79740716D01*
X95104528Y-79757107D01*
X95134423Y-79781838D01*
X95138605Y-79785298D01*
X95147384Y-79793288D01*
X98302878Y-82948783D01*
X98336904Y-83011095D01*
X98339093Y-83024706D01*
X98340780Y-83040759D01*
X98351050Y-83138475D01*
X98338278Y-83208313D01*
X98289776Y-83260160D01*
X98220943Y-83277554D01*
X98153633Y-83254972D01*
X98136645Y-83240740D01*
X93700405Y-78804500D01*
X93666379Y-78742188D01*
X93663500Y-78715405D01*
X93663500Y-73422882D01*
X93683502Y-73354761D01*
X93737158Y-73308268D01*
X93745269Y-73304901D01*
X93768293Y-73296269D01*
X93768297Y-73296267D01*
X93776705Y-73293115D01*
X93893261Y-73205761D01*
X93980615Y-73089205D01*
X94031745Y-72952816D01*
X94038500Y-72890634D01*
X94038500Y-70794366D01*
X94031745Y-70732184D01*
X93980615Y-70595795D01*
X93893261Y-70479239D01*
X93776705Y-70391885D01*
X93640316Y-70340755D01*
X93578134Y-70334000D01*
X92481866Y-70334000D01*
X92419684Y-70340755D01*
X92283295Y-70391885D01*
X92166739Y-70479239D01*
X92079385Y-70595795D01*
X92028255Y-70732184D01*
X92021500Y-70794366D01*
X92021500Y-72890634D01*
X92028255Y-72952816D01*
X92079385Y-73089205D01*
X92166739Y-73205761D01*
X92283295Y-73293115D01*
X92291703Y-73296267D01*
X92291707Y-73296269D01*
X92314731Y-73304901D01*
X92371495Y-73347543D01*
X92396194Y-73414105D01*
X92396500Y-73422882D01*
X92396500Y-78951233D01*
X92395973Y-78962416D01*
X92394298Y-78969909D01*
X92394547Y-78977835D01*
X92394547Y-78977836D01*
X92396438Y-79037986D01*
X92396500Y-79041945D01*
X92396500Y-79069856D01*
X92396997Y-79073790D01*
X92396997Y-79073791D01*
X92397005Y-79073856D01*
X92397938Y-79085693D01*
X92399327Y-79129889D01*
X92404978Y-79149339D01*
X92408987Y-79168700D01*
X92411526Y-79188797D01*
X92414445Y-79196168D01*
X92414445Y-79196170D01*
X92427804Y-79229912D01*
X92431649Y-79241142D01*
X92438071Y-79263248D01*
X92443982Y-79283593D01*
X92448015Y-79290412D01*
X92448017Y-79290417D01*
X92454293Y-79301028D01*
X92462988Y-79318776D01*
X92470448Y-79337617D01*
X92475110Y-79344033D01*
X92475110Y-79344034D01*
X92496436Y-79373387D01*
X92502952Y-79383307D01*
X92519904Y-79411970D01*
X92525458Y-79421362D01*
X92539779Y-79435683D01*
X92552619Y-79450716D01*
X92564528Y-79467107D01*
X92578659Y-79478797D01*
X92598605Y-79495298D01*
X92607384Y-79503288D01*
X97496343Y-84392247D01*
X97503887Y-84400537D01*
X97508000Y-84407018D01*
X97513777Y-84412443D01*
X97557667Y-84453658D01*
X97560509Y-84456413D01*
X97563051Y-84458955D01*
X97597077Y-84521267D01*
X97592012Y-84592082D01*
X97549465Y-84648918D01*
X97482945Y-84673729D01*
X97461114Y-84673394D01*
X97401904Y-84667328D01*
X97396874Y-84667071D01*
X97381876Y-84671475D01*
X97380671Y-84672865D01*
X97379000Y-84680548D01*
X97379000Y-86614885D01*
X97383475Y-86630124D01*
X97384865Y-86631329D01*
X97392548Y-86633000D01*
X97395438Y-86633000D01*
X97401953Y-86632663D01*
X97494057Y-86623106D01*
X97507456Y-86620212D01*
X97656107Y-86570619D01*
X97669286Y-86564445D01*
X97802173Y-86482212D01*
X97819311Y-86468629D01*
X97820841Y-86470559D01*
X97872880Y-86442097D01*
X97943699Y-86447113D01*
X97980617Y-86470799D01*
X97981372Y-86469843D01*
X97987118Y-86474381D01*
X97992298Y-86479552D01*
X97998528Y-86483392D01*
X97998529Y-86483393D01*
X98130766Y-86564905D01*
X98137899Y-86569302D01*
X98300243Y-86623149D01*
X98307080Y-86623849D01*
X98307082Y-86623850D01*
X98347374Y-86627978D01*
X98401268Y-86633500D01*
X98948732Y-86633500D01*
X98951978Y-86633163D01*
X98951982Y-86633163D01*
X98986083Y-86629625D01*
X99051019Y-86622887D01*
X99213268Y-86568756D01*
X99245140Y-86549033D01*
X99313592Y-86530195D01*
X99381362Y-86551356D01*
X99412270Y-86580612D01*
X99436739Y-86613261D01*
X99553295Y-86700615D01*
X99689684Y-86751745D01*
X99751866Y-86758500D01*
X101648134Y-86758500D01*
X101710316Y-86751745D01*
X101846705Y-86700615D01*
X101963261Y-86613261D01*
X101994880Y-86571072D01*
X102021354Y-86535748D01*
X102078213Y-86493233D01*
X102149032Y-86488207D01*
X102211274Y-86522217D01*
X103090463Y-87401407D01*
X103124487Y-87463717D01*
X103119422Y-87534533D01*
X103076875Y-87591368D01*
X103010355Y-87616179D01*
X103001366Y-87616500D01*
X102180382Y-87616500D01*
X102112261Y-87596498D01*
X102065768Y-87542842D01*
X102062401Y-87534731D01*
X102053769Y-87511707D01*
X102053768Y-87511704D01*
X102050615Y-87503295D01*
X101963261Y-87386739D01*
X101846705Y-87299385D01*
X101710316Y-87248255D01*
X101648134Y-87241500D01*
X99751866Y-87241500D01*
X99689684Y-87248255D01*
X99553295Y-87299385D01*
X99505646Y-87335096D01*
X99445041Y-87380517D01*
X99378535Y-87405365D01*
X99303360Y-87386951D01*
X99218331Y-87334538D01*
X99218329Y-87334537D01*
X99212101Y-87330698D01*
X99049757Y-87276851D01*
X99042920Y-87276151D01*
X99042918Y-87276150D01*
X99001599Y-87271917D01*
X98948732Y-87266500D01*
X98401268Y-87266500D01*
X98398022Y-87266837D01*
X98398018Y-87266837D01*
X98368730Y-87269876D01*
X98298981Y-87277113D01*
X98290963Y-87279788D01*
X98143676Y-87328927D01*
X98143674Y-87328928D01*
X98136732Y-87331244D01*
X98130508Y-87335096D01*
X98130507Y-87335096D01*
X98029040Y-87397886D01*
X97991287Y-87421248D01*
X97986114Y-87426430D01*
X97980377Y-87430977D01*
X97978945Y-87429170D01*
X97926425Y-87457902D01*
X97855605Y-87452892D01*
X97819147Y-87429501D01*
X97818317Y-87430552D01*
X97801160Y-87417002D01*
X97668120Y-87334996D01*
X97654939Y-87328849D01*
X97506186Y-87279509D01*
X97492810Y-87276642D01*
X97401903Y-87267328D01*
X97396874Y-87267071D01*
X97381876Y-87271475D01*
X97380671Y-87272865D01*
X97379000Y-87280548D01*
X97379000Y-89214885D01*
X97383475Y-89230124D01*
X97384865Y-89231329D01*
X97392548Y-89233000D01*
X97395438Y-89233000D01*
X97401953Y-89232663D01*
X97494057Y-89223106D01*
X97507456Y-89220212D01*
X97656107Y-89170619D01*
X97669286Y-89164445D01*
X97802173Y-89082212D01*
X97819311Y-89068629D01*
X97820841Y-89070559D01*
X97872880Y-89042097D01*
X97943699Y-89047113D01*
X97980617Y-89070799D01*
X97981372Y-89069843D01*
X97987118Y-89074381D01*
X97992298Y-89079552D01*
X97998528Y-89083392D01*
X97998529Y-89083393D01*
X98130020Y-89164445D01*
X98137899Y-89169302D01*
X98300243Y-89223149D01*
X98307080Y-89223849D01*
X98307082Y-89223850D01*
X98348401Y-89228083D01*
X98401268Y-89233500D01*
X98948732Y-89233500D01*
X98951978Y-89233163D01*
X98951982Y-89233163D01*
X98986083Y-89229625D01*
X99051019Y-89222887D01*
X99117776Y-89200615D01*
X99206324Y-89171073D01*
X99206326Y-89171072D01*
X99213268Y-89168756D01*
X99303141Y-89113141D01*
X99371593Y-89094303D01*
X99445009Y-89119459D01*
X99553295Y-89200615D01*
X99689684Y-89251745D01*
X99751866Y-89258500D01*
X101648134Y-89258500D01*
X101710316Y-89251745D01*
X101846705Y-89200615D01*
X101963261Y-89113261D01*
X102050615Y-88996705D01*
X102053769Y-88988293D01*
X102062401Y-88965269D01*
X102105043Y-88908505D01*
X102171605Y-88883806D01*
X102180382Y-88883500D01*
X102887852Y-88883500D01*
X102955973Y-88903502D01*
X103002466Y-88957158D01*
X103012570Y-89027432D01*
X102983076Y-89092012D01*
X102976947Y-89098595D01*
X92637747Y-99437795D01*
X92629461Y-99445335D01*
X92622982Y-99449447D01*
X92617557Y-99455224D01*
X92576357Y-99499098D01*
X92573602Y-99501940D01*
X92553865Y-99521677D01*
X92551385Y-99524874D01*
X92543682Y-99533894D01*
X92513414Y-99566126D01*
X92509595Y-99573072D01*
X92509593Y-99573075D01*
X92503652Y-99583881D01*
X92492801Y-99600400D01*
X92480386Y-99616406D01*
X92477241Y-99623675D01*
X92477238Y-99623679D01*
X92462826Y-99656984D01*
X92457609Y-99667634D01*
X92436305Y-99706387D01*
X92434334Y-99714062D01*
X92434334Y-99714063D01*
X92431267Y-99726009D01*
X92424863Y-99744713D01*
X92416819Y-99763302D01*
X92415580Y-99771125D01*
X92415577Y-99771135D01*
X92409901Y-99806971D01*
X92407495Y-99818591D01*
X92396500Y-99861417D01*
X92396500Y-99881671D01*
X92394949Y-99901381D01*
X92391780Y-99921390D01*
X92392526Y-99929282D01*
X92395941Y-99965408D01*
X92396500Y-99977266D01*
X92396500Y-100677118D01*
X92376498Y-100745239D01*
X92322842Y-100791732D01*
X92314731Y-100795099D01*
X92291707Y-100803731D01*
X92291704Y-100803732D01*
X92283295Y-100806885D01*
X92166739Y-100894239D01*
X92079385Y-101010795D01*
X92028255Y-101147184D01*
X92021500Y-101209366D01*
X92021500Y-103305634D01*
X86508500Y-103305634D01*
X86508500Y-88545438D01*
X96167000Y-88545438D01*
X96167337Y-88551953D01*
X96176894Y-88644057D01*
X96179788Y-88657456D01*
X96229381Y-88806107D01*
X96235555Y-88819286D01*
X96317788Y-88952173D01*
X96326824Y-88963574D01*
X96437429Y-89073986D01*
X96448840Y-89082998D01*
X96581880Y-89165004D01*
X96595061Y-89171151D01*
X96743814Y-89220491D01*
X96757190Y-89223358D01*
X96848097Y-89232672D01*
X96853126Y-89232929D01*
X96868124Y-89228525D01*
X96869329Y-89227135D01*
X96871000Y-89219452D01*
X96871000Y-88522115D01*
X96866525Y-88506876D01*
X96865135Y-88505671D01*
X96857452Y-88504000D01*
X96185115Y-88504000D01*
X96169876Y-88508475D01*
X96168671Y-88509865D01*
X96167000Y-88517548D01*
X96167000Y-88545438D01*
X86508500Y-88545438D01*
X86508500Y-87977885D01*
X96167000Y-87977885D01*
X96171475Y-87993124D01*
X96172865Y-87994329D01*
X96180548Y-87996000D01*
X96852885Y-87996000D01*
X96868124Y-87991525D01*
X96869329Y-87990135D01*
X96871000Y-87982452D01*
X96871000Y-87285115D01*
X96866525Y-87269876D01*
X96865135Y-87268671D01*
X96857452Y-87267000D01*
X96854562Y-87267000D01*
X96848047Y-87267337D01*
X96755943Y-87276894D01*
X96742544Y-87279788D01*
X96593893Y-87329381D01*
X96580714Y-87335555D01*
X96447827Y-87417788D01*
X96436426Y-87426824D01*
X96326014Y-87537429D01*
X96317002Y-87548840D01*
X96234996Y-87681880D01*
X96228849Y-87695061D01*
X96179509Y-87843814D01*
X96176642Y-87857190D01*
X96167328Y-87948097D01*
X96167000Y-87954514D01*
X96167000Y-87977885D01*
X86508500Y-87977885D01*
X86508500Y-85945438D01*
X96167000Y-85945438D01*
X96167337Y-85951953D01*
X96176894Y-86044057D01*
X96179788Y-86057456D01*
X96229381Y-86206107D01*
X96235555Y-86219286D01*
X96317788Y-86352173D01*
X96326824Y-86363574D01*
X96437429Y-86473986D01*
X96448840Y-86482998D01*
X96581880Y-86565004D01*
X96595061Y-86571151D01*
X96743814Y-86620491D01*
X96757190Y-86623358D01*
X96848097Y-86632672D01*
X96853126Y-86632929D01*
X96868124Y-86628525D01*
X96869329Y-86627135D01*
X96871000Y-86619452D01*
X96871000Y-85922115D01*
X96866525Y-85906876D01*
X96865135Y-85905671D01*
X96857452Y-85904000D01*
X96185115Y-85904000D01*
X96169876Y-85908475D01*
X96168671Y-85909865D01*
X96167000Y-85917548D01*
X96167000Y-85945438D01*
X86508500Y-85945438D01*
X86508500Y-85377885D01*
X96167000Y-85377885D01*
X96171475Y-85393124D01*
X96172865Y-85394329D01*
X96180548Y-85396000D01*
X96852885Y-85396000D01*
X96868124Y-85391525D01*
X96869329Y-85390135D01*
X96871000Y-85382452D01*
X96871000Y-84685115D01*
X96866525Y-84669876D01*
X96865135Y-84668671D01*
X96857452Y-84667000D01*
X96854562Y-84667000D01*
X96848047Y-84667337D01*
X96755943Y-84676894D01*
X96742544Y-84679788D01*
X96593893Y-84729381D01*
X96580714Y-84735555D01*
X96447827Y-84817788D01*
X96436426Y-84826824D01*
X96326014Y-84937429D01*
X96317002Y-84948840D01*
X96234996Y-85081880D01*
X96228849Y-85095061D01*
X96179509Y-85243814D01*
X96176642Y-85257190D01*
X96167328Y-85348097D01*
X96167000Y-85354514D01*
X96167000Y-85377885D01*
X86508500Y-85377885D01*
X86508500Y-64345487D01*
X125341500Y-64345487D01*
X125381206Y-64532288D01*
X125458882Y-64706752D01*
X125571134Y-64861253D01*
X125713056Y-64989040D01*
X125878444Y-65084527D01*
X126060072Y-65143542D01*
X126066633Y-65144232D01*
X126066635Y-65144232D01*
X126119889Y-65149829D01*
X126202390Y-65158500D01*
X126297610Y-65158500D01*
X126380111Y-65149829D01*
X126433365Y-65144232D01*
X126433367Y-65144232D01*
X126439928Y-65143542D01*
X126621556Y-65084527D01*
X126786944Y-64989040D01*
X126928866Y-64861253D01*
X127041118Y-64706752D01*
X127118794Y-64532288D01*
X127158500Y-64345487D01*
X128341500Y-64345487D01*
X128381206Y-64532288D01*
X128458882Y-64706752D01*
X128571134Y-64861253D01*
X128713056Y-64989040D01*
X128878444Y-65084527D01*
X129060072Y-65143542D01*
X129066633Y-65144232D01*
X129066635Y-65144232D01*
X129119889Y-65149829D01*
X129202390Y-65158500D01*
X129297610Y-65158500D01*
X129380111Y-65149829D01*
X129433365Y-65144232D01*
X129433367Y-65144232D01*
X129439928Y-65143542D01*
X129621556Y-65084527D01*
X129786944Y-64989040D01*
X129928866Y-64861253D01*
X130041118Y-64706752D01*
X130118794Y-64532288D01*
X130158500Y-64345487D01*
X130158500Y-64154513D01*
X130118794Y-63967712D01*
X130041118Y-63793248D01*
X129928866Y-63638747D01*
X129786944Y-63510960D01*
X129621556Y-63415473D01*
X129439928Y-63356458D01*
X129433367Y-63355768D01*
X129433365Y-63355768D01*
X129380111Y-63350171D01*
X129297610Y-63341500D01*
X129202390Y-63341500D01*
X129119889Y-63350171D01*
X129066635Y-63355768D01*
X129066633Y-63355768D01*
X129060072Y-63356458D01*
X128878444Y-63415473D01*
X128713056Y-63510960D01*
X128571134Y-63638747D01*
X128458882Y-63793248D01*
X128381206Y-63967712D01*
X128341500Y-64154513D01*
X128341500Y-64345487D01*
X127158500Y-64345487D01*
X127158500Y-64154513D01*
X127118794Y-63967712D01*
X127041118Y-63793248D01*
X126928866Y-63638747D01*
X126786944Y-63510960D01*
X126621556Y-63415473D01*
X126439928Y-63356458D01*
X126433367Y-63355768D01*
X126433365Y-63355768D01*
X126380111Y-63350171D01*
X126297610Y-63341500D01*
X126202390Y-63341500D01*
X126119889Y-63350171D01*
X126066635Y-63355768D01*
X126066633Y-63355768D01*
X126060072Y-63356458D01*
X125878444Y-63415473D01*
X125713056Y-63510960D01*
X125571134Y-63638747D01*
X125458882Y-63793248D01*
X125381206Y-63967712D01*
X125341500Y-64154513D01*
X125341500Y-64345487D01*
X86508500Y-64345487D01*
X86508500Y-62053250D01*
X86510246Y-62032345D01*
X86512770Y-62017344D01*
X86512770Y-62017341D01*
X86513576Y-62012552D01*
X86513729Y-62000000D01*
X86513040Y-61995186D01*
X86513039Y-61995176D01*
X86512157Y-61989017D01*
X86511206Y-61962172D01*
X86523038Y-61796723D01*
X86525596Y-61778934D01*
X86566999Y-61588607D01*
X86572063Y-61571359D01*
X86640136Y-61388850D01*
X86647604Y-61372498D01*
X86740952Y-61201542D01*
X86750672Y-61186418D01*
X86867402Y-61030486D01*
X86879175Y-61016900D01*
X87016900Y-60879175D01*
X87030486Y-60867402D01*
X87186418Y-60750672D01*
X87201542Y-60740952D01*
X87372498Y-60647604D01*
X87388850Y-60640136D01*
X87571359Y-60572063D01*
X87588608Y-60566999D01*
X87778936Y-60525596D01*
X87796715Y-60523039D01*
X87958605Y-60511460D01*
X87976565Y-60512207D01*
X87984845Y-60512308D01*
X87993724Y-60513691D01*
X88025286Y-60509564D01*
X88041621Y-60508500D01*
X169450633Y-60508500D01*
X169470018Y-60510000D01*
G37*
%TD.AperFunction*%
%TA.AperFunction,Conductor*%
G36*
X117933973Y-81542874D02*
G01*
X117990809Y-81585421D01*
X118015620Y-81651941D01*
X118009775Y-81699862D01*
X118006458Y-81710072D01*
X118005768Y-81716633D01*
X118005768Y-81716635D01*
X117992663Y-81841320D01*
X117986496Y-81900000D01*
X117987186Y-81906565D01*
X118005283Y-82078744D01*
X118006458Y-82089928D01*
X118065473Y-82271556D01*
X118160960Y-82436944D01*
X118288747Y-82578866D01*
X118443248Y-82691118D01*
X118449276Y-82693802D01*
X118449278Y-82693803D01*
X118611679Y-82766108D01*
X118617712Y-82768794D01*
X118711112Y-82788647D01*
X118798056Y-82807128D01*
X118798061Y-82807128D01*
X118804513Y-82808500D01*
X118995487Y-82808500D01*
X119001939Y-82807128D01*
X119001944Y-82807128D01*
X119088888Y-82788647D01*
X119182288Y-82768794D01*
X119188321Y-82766108D01*
X119188327Y-82766106D01*
X119211686Y-82755706D01*
X119282053Y-82746271D01*
X119328206Y-82763036D01*
X119431301Y-82825472D01*
X119438548Y-82827743D01*
X119438550Y-82827744D01*
X119480509Y-82840893D01*
X119594938Y-82876753D01*
X119668365Y-82883500D01*
X119671263Y-82883500D01*
X119925665Y-82883499D01*
X120181634Y-82883499D01*
X120184492Y-82883236D01*
X120184501Y-82883236D01*
X120220004Y-82879974D01*
X120255062Y-82876753D01*
X120261447Y-82874752D01*
X120411450Y-82827744D01*
X120411452Y-82827743D01*
X120418699Y-82825472D01*
X120565381Y-82736639D01*
X120660905Y-82641115D01*
X120723217Y-82607089D01*
X120794032Y-82612154D01*
X120839095Y-82641115D01*
X120934619Y-82736639D01*
X121081301Y-82825472D01*
X121088548Y-82827743D01*
X121088550Y-82827744D01*
X121130509Y-82840893D01*
X121244938Y-82876753D01*
X121318365Y-82883500D01*
X121321263Y-82883500D01*
X121575665Y-82883499D01*
X121831634Y-82883499D01*
X121834492Y-82883236D01*
X121834501Y-82883236D01*
X121870004Y-82879974D01*
X121905062Y-82876753D01*
X121911447Y-82874752D01*
X122061450Y-82827744D01*
X122061452Y-82827743D01*
X122068699Y-82825472D01*
X122215381Y-82736639D01*
X122336639Y-82615381D01*
X122349449Y-82594229D01*
X122401846Y-82546322D01*
X122457225Y-82533500D01*
X126391800Y-82533500D01*
X126459921Y-82553502D01*
X126479147Y-82569843D01*
X126479420Y-82569540D01*
X126484332Y-82573963D01*
X126488747Y-82578866D01*
X126643248Y-82691118D01*
X126649276Y-82693802D01*
X126649278Y-82693803D01*
X126811679Y-82766108D01*
X126817712Y-82768794D01*
X126911112Y-82788647D01*
X126998056Y-82807128D01*
X126998061Y-82807128D01*
X127004513Y-82808500D01*
X127195487Y-82808500D01*
X127201939Y-82807128D01*
X127201944Y-82807128D01*
X127288888Y-82788647D01*
X127382288Y-82768794D01*
X127388315Y-82766111D01*
X127388323Y-82766108D01*
X127401754Y-82760128D01*
X127472121Y-82750695D01*
X127536417Y-82780803D01*
X127574229Y-82840893D01*
X127579000Y-82875236D01*
X127579000Y-85166405D01*
X127558998Y-85234526D01*
X127505342Y-85281019D01*
X127435068Y-85291123D01*
X127370488Y-85261629D01*
X127363905Y-85255500D01*
X127016152Y-84907747D01*
X127008612Y-84899461D01*
X127004500Y-84892982D01*
X126954848Y-84846356D01*
X126952007Y-84843602D01*
X126932270Y-84823865D01*
X126929073Y-84821385D01*
X126920051Y-84813680D01*
X126893600Y-84788841D01*
X126887821Y-84783414D01*
X126880875Y-84779595D01*
X126880872Y-84779593D01*
X126870066Y-84773652D01*
X126853547Y-84762801D01*
X126847548Y-84758148D01*
X126837541Y-84750386D01*
X126830272Y-84747241D01*
X126830268Y-84747238D01*
X126796963Y-84732826D01*
X126786313Y-84727609D01*
X126747560Y-84706305D01*
X126727937Y-84701267D01*
X126709234Y-84694863D01*
X126697920Y-84689967D01*
X126697919Y-84689967D01*
X126690645Y-84686819D01*
X126682822Y-84685580D01*
X126682812Y-84685577D01*
X126646976Y-84679901D01*
X126635356Y-84677495D01*
X126600211Y-84668472D01*
X126600210Y-84668472D01*
X126592530Y-84666500D01*
X126572276Y-84666500D01*
X126552565Y-84664949D01*
X126540386Y-84663020D01*
X126532557Y-84661780D01*
X126524665Y-84662526D01*
X126488539Y-84665941D01*
X126476681Y-84666500D01*
X124208200Y-84666500D01*
X124140079Y-84646498D01*
X124120853Y-84630157D01*
X124120580Y-84630460D01*
X124115668Y-84626037D01*
X124111253Y-84621134D01*
X124050888Y-84577276D01*
X123962094Y-84512763D01*
X123962093Y-84512762D01*
X123956752Y-84508882D01*
X123950724Y-84506198D01*
X123950722Y-84506197D01*
X123788319Y-84433891D01*
X123788318Y-84433891D01*
X123782288Y-84431206D01*
X123688887Y-84411353D01*
X123601944Y-84392872D01*
X123601939Y-84392872D01*
X123595487Y-84391500D01*
X123404513Y-84391500D01*
X123398061Y-84392872D01*
X123398056Y-84392872D01*
X123311113Y-84411353D01*
X123217712Y-84431206D01*
X123211682Y-84433891D01*
X123211681Y-84433891D01*
X123049278Y-84506197D01*
X123049276Y-84506198D01*
X123043248Y-84508882D01*
X123037907Y-84512762D01*
X123037906Y-84512763D01*
X123012636Y-84531123D01*
X122888747Y-84621134D01*
X122884326Y-84626044D01*
X122884325Y-84626045D01*
X122775203Y-84747238D01*
X122760960Y-84763056D01*
X122714457Y-84843602D01*
X122693473Y-84879947D01*
X122642091Y-84928940D01*
X122572377Y-84942376D01*
X122506466Y-84915990D01*
X122464120Y-84854626D01*
X122427744Y-84738550D01*
X122427743Y-84738548D01*
X122425472Y-84731301D01*
X122336639Y-84584619D01*
X122215381Y-84463361D01*
X122068699Y-84374528D01*
X122061452Y-84372257D01*
X122061450Y-84372256D01*
X121995164Y-84351483D01*
X121905062Y-84323247D01*
X121831635Y-84316500D01*
X121828737Y-84316500D01*
X121574335Y-84316501D01*
X121318366Y-84316501D01*
X121315508Y-84316764D01*
X121315499Y-84316764D01*
X121279996Y-84320026D01*
X121244938Y-84323247D01*
X121238560Y-84325246D01*
X121238559Y-84325246D01*
X121088550Y-84372256D01*
X121088548Y-84372257D01*
X121081301Y-84374528D01*
X120934619Y-84463361D01*
X120839095Y-84558885D01*
X120776783Y-84592911D01*
X120705968Y-84587846D01*
X120660905Y-84558885D01*
X120565381Y-84463361D01*
X120418699Y-84374528D01*
X120411452Y-84372257D01*
X120411450Y-84372256D01*
X120345164Y-84351483D01*
X120255062Y-84323247D01*
X120181635Y-84316500D01*
X120178737Y-84316500D01*
X119924335Y-84316501D01*
X119668366Y-84316501D01*
X119665508Y-84316764D01*
X119665499Y-84316764D01*
X119629996Y-84320026D01*
X119594938Y-84323247D01*
X119588560Y-84325246D01*
X119588559Y-84325246D01*
X119438550Y-84372256D01*
X119438548Y-84372257D01*
X119431301Y-84374528D01*
X119351113Y-84423091D01*
X119328206Y-84436964D01*
X119259576Y-84455143D01*
X119211686Y-84444294D01*
X119188327Y-84433894D01*
X119188321Y-84433892D01*
X119182288Y-84431206D01*
X119088887Y-84411353D01*
X119001944Y-84392872D01*
X119001939Y-84392872D01*
X118995487Y-84391500D01*
X118804513Y-84391500D01*
X118798061Y-84392872D01*
X118798056Y-84392872D01*
X118711113Y-84411353D01*
X118617712Y-84431206D01*
X118611682Y-84433891D01*
X118611681Y-84433891D01*
X118449278Y-84506197D01*
X118449276Y-84506198D01*
X118443248Y-84508882D01*
X118437907Y-84512762D01*
X118437906Y-84512763D01*
X118412636Y-84531123D01*
X118288747Y-84621134D01*
X118284326Y-84626044D01*
X118284325Y-84626045D01*
X118175203Y-84747238D01*
X118160960Y-84763056D01*
X118114457Y-84843602D01*
X118085388Y-84893951D01*
X118065473Y-84928444D01*
X118006458Y-85110072D01*
X118005768Y-85116633D01*
X118005768Y-85116635D01*
X117993376Y-85234538D01*
X117986496Y-85300000D01*
X117987186Y-85306565D01*
X117996116Y-85391525D01*
X118006458Y-85489928D01*
X118065473Y-85671556D01*
X118160960Y-85836944D01*
X118165378Y-85841851D01*
X118165379Y-85841852D01*
X118258648Y-85945438D01*
X118288747Y-85978866D01*
X118353705Y-86026061D01*
X118425679Y-86078353D01*
X118443248Y-86091118D01*
X118449276Y-86093802D01*
X118449278Y-86093803D01*
X118611681Y-86166109D01*
X118617712Y-86168794D01*
X118711112Y-86188647D01*
X118798056Y-86207128D01*
X118798061Y-86207128D01*
X118804513Y-86208500D01*
X118995487Y-86208500D01*
X119001939Y-86207128D01*
X119001944Y-86207128D01*
X119088888Y-86188647D01*
X119182288Y-86168794D01*
X119188321Y-86166108D01*
X119188327Y-86166106D01*
X119211686Y-86155706D01*
X119282053Y-86146271D01*
X119328206Y-86163036D01*
X119431301Y-86225472D01*
X119438548Y-86227743D01*
X119438550Y-86227744D01*
X119457339Y-86233632D01*
X119594938Y-86276753D01*
X119668365Y-86283500D01*
X119671263Y-86283500D01*
X119925665Y-86283499D01*
X120181634Y-86283499D01*
X120184492Y-86283236D01*
X120184501Y-86283236D01*
X120220004Y-86279974D01*
X120255062Y-86276753D01*
X120392661Y-86233632D01*
X120411450Y-86227744D01*
X120411452Y-86227743D01*
X120418699Y-86225472D01*
X120565381Y-86136639D01*
X120660905Y-86041115D01*
X120723217Y-86007089D01*
X120794032Y-86012154D01*
X120839095Y-86041115D01*
X120934619Y-86136639D01*
X121081301Y-86225472D01*
X121088548Y-86227743D01*
X121088550Y-86227744D01*
X121107339Y-86233632D01*
X121244938Y-86276753D01*
X121318365Y-86283500D01*
X121401151Y-86283500D01*
X121469272Y-86303502D01*
X121490246Y-86320405D01*
X122959478Y-87789637D01*
X122993504Y-87851949D01*
X122988439Y-87922764D01*
X122944445Y-87980667D01*
X122888747Y-88021134D01*
X122884332Y-88026037D01*
X122879420Y-88030460D01*
X122878295Y-88029211D01*
X122824986Y-88062051D01*
X122791800Y-88066500D01*
X122457225Y-88066500D01*
X122389104Y-88046498D01*
X122349449Y-88005771D01*
X122340576Y-87991120D01*
X122336639Y-87984619D01*
X122215381Y-87863361D01*
X122068699Y-87774528D01*
X122061452Y-87772257D01*
X122061450Y-87772256D01*
X121995164Y-87751483D01*
X121905062Y-87723247D01*
X121831635Y-87716500D01*
X121828737Y-87716500D01*
X121574335Y-87716501D01*
X121318366Y-87716501D01*
X121315508Y-87716764D01*
X121315499Y-87716764D01*
X121279996Y-87720026D01*
X121244938Y-87723247D01*
X121238560Y-87725246D01*
X121238559Y-87725246D01*
X121088550Y-87772256D01*
X121088548Y-87772257D01*
X121081301Y-87774528D01*
X120934619Y-87863361D01*
X120839095Y-87958885D01*
X120776783Y-87992911D01*
X120705968Y-87987846D01*
X120660905Y-87958885D01*
X120565381Y-87863361D01*
X120418699Y-87774528D01*
X120411452Y-87772257D01*
X120411450Y-87772256D01*
X120345164Y-87751483D01*
X120255062Y-87723247D01*
X120181635Y-87716500D01*
X120178737Y-87716500D01*
X119924335Y-87716501D01*
X119668366Y-87716501D01*
X119665508Y-87716764D01*
X119665499Y-87716764D01*
X119629996Y-87720026D01*
X119594938Y-87723247D01*
X119588560Y-87725246D01*
X119588559Y-87725246D01*
X119438550Y-87772256D01*
X119438548Y-87772257D01*
X119431301Y-87774528D01*
X119380662Y-87805196D01*
X119328206Y-87836964D01*
X119259576Y-87855143D01*
X119211686Y-87844294D01*
X119188327Y-87833894D01*
X119188321Y-87833892D01*
X119182288Y-87831206D01*
X119088888Y-87811353D01*
X119001944Y-87792872D01*
X119001939Y-87792872D01*
X118995487Y-87791500D01*
X118804513Y-87791500D01*
X118798061Y-87792872D01*
X118798056Y-87792872D01*
X118711112Y-87811353D01*
X118617712Y-87831206D01*
X118611682Y-87833891D01*
X118611681Y-87833891D01*
X118449278Y-87906197D01*
X118449276Y-87906198D01*
X118443248Y-87908882D01*
X118437907Y-87912762D01*
X118437906Y-87912763D01*
X118409399Y-87933475D01*
X118288747Y-88021134D01*
X118284326Y-88026044D01*
X118284325Y-88026045D01*
X118256043Y-88057456D01*
X118160960Y-88163056D01*
X118065473Y-88328444D01*
X118006458Y-88510072D01*
X118005768Y-88516633D01*
X118005768Y-88516635D01*
X117987186Y-88693435D01*
X117986496Y-88700000D01*
X118006458Y-88889928D01*
X118065473Y-89071556D01*
X118068776Y-89077278D01*
X118068777Y-89077279D01*
X118071625Y-89082212D01*
X118160960Y-89236944D01*
X118288747Y-89378866D01*
X118443248Y-89491118D01*
X118449276Y-89493802D01*
X118449278Y-89493803D01*
X118611681Y-89566109D01*
X118617712Y-89568794D01*
X118711112Y-89588647D01*
X118798056Y-89607128D01*
X118798061Y-89607128D01*
X118804513Y-89608500D01*
X118995487Y-89608500D01*
X119001939Y-89607128D01*
X119001944Y-89607128D01*
X119088888Y-89588647D01*
X119182288Y-89568794D01*
X119188321Y-89566108D01*
X119188327Y-89566106D01*
X119211686Y-89555706D01*
X119282053Y-89546271D01*
X119328206Y-89563036D01*
X119431301Y-89625472D01*
X119438548Y-89627743D01*
X119438550Y-89627744D01*
X119504836Y-89648517D01*
X119594938Y-89676753D01*
X119668365Y-89683500D01*
X119671263Y-89683500D01*
X119925665Y-89683499D01*
X120181634Y-89683499D01*
X120184492Y-89683236D01*
X120184501Y-89683236D01*
X120220004Y-89679974D01*
X120255062Y-89676753D01*
X120261447Y-89674752D01*
X120411450Y-89627744D01*
X120411452Y-89627743D01*
X120418699Y-89625472D01*
X120565381Y-89536639D01*
X120660905Y-89441115D01*
X120723217Y-89407089D01*
X120794032Y-89412154D01*
X120839095Y-89441115D01*
X120934619Y-89536639D01*
X121081301Y-89625472D01*
X121088548Y-89627743D01*
X121088550Y-89627744D01*
X121154836Y-89648517D01*
X121244938Y-89676753D01*
X121318365Y-89683500D01*
X121321263Y-89683500D01*
X121575665Y-89683499D01*
X121831634Y-89683499D01*
X121834492Y-89683236D01*
X121834501Y-89683236D01*
X121870004Y-89679974D01*
X121905062Y-89676753D01*
X121911447Y-89674752D01*
X122061450Y-89627744D01*
X122061452Y-89627743D01*
X122068699Y-89625472D01*
X122215381Y-89536639D01*
X122336639Y-89415381D01*
X122349449Y-89394229D01*
X122401846Y-89346322D01*
X122457225Y-89333500D01*
X122791800Y-89333500D01*
X122859921Y-89353502D01*
X122879147Y-89369843D01*
X122879420Y-89369540D01*
X122884332Y-89373963D01*
X122888747Y-89378866D01*
X123043248Y-89491118D01*
X123049276Y-89493802D01*
X123049278Y-89493803D01*
X123211681Y-89566109D01*
X123217712Y-89568794D01*
X123311112Y-89588647D01*
X123398056Y-89607128D01*
X123398061Y-89607128D01*
X123404513Y-89608500D01*
X123595487Y-89608500D01*
X123601939Y-89607128D01*
X123601944Y-89607128D01*
X123688888Y-89588647D01*
X123782288Y-89568794D01*
X123788319Y-89566109D01*
X123950722Y-89493803D01*
X123950724Y-89493802D01*
X123956752Y-89491118D01*
X124111253Y-89378866D01*
X124229673Y-89247347D01*
X124290119Y-89210108D01*
X124361103Y-89211460D01*
X124412404Y-89242563D01*
X130933848Y-95764008D01*
X130967874Y-95826320D01*
X130962809Y-95897135D01*
X130920262Y-95953971D01*
X130870197Y-95976507D01*
X130776157Y-95995896D01*
X130776154Y-95995897D01*
X130769417Y-95997286D01*
X130762270Y-96000491D01*
X130761499Y-96000836D01*
X130760397Y-96000987D01*
X130756594Y-96002215D01*
X130756375Y-96001536D01*
X130691156Y-96010451D01*
X130626782Y-95980509D01*
X130620860Y-95974956D01*
X128492136Y-93846231D01*
X126353652Y-91707747D01*
X126346112Y-91699461D01*
X126342000Y-91692982D01*
X126292348Y-91646356D01*
X126289507Y-91643602D01*
X126269770Y-91623865D01*
X126266573Y-91621385D01*
X126257551Y-91613680D01*
X126231100Y-91588841D01*
X126225321Y-91583414D01*
X126218375Y-91579595D01*
X126218372Y-91579593D01*
X126207566Y-91573652D01*
X126191047Y-91562801D01*
X126185048Y-91558148D01*
X126175041Y-91550386D01*
X126167772Y-91547241D01*
X126167768Y-91547238D01*
X126134463Y-91532826D01*
X126123813Y-91527609D01*
X126085060Y-91506305D01*
X126065437Y-91501267D01*
X126046734Y-91494863D01*
X126035420Y-91489967D01*
X126035419Y-91489967D01*
X126028145Y-91486819D01*
X126020322Y-91485580D01*
X126020312Y-91485577D01*
X125984476Y-91479901D01*
X125972856Y-91477495D01*
X125937711Y-91468472D01*
X125937710Y-91468472D01*
X125930030Y-91466500D01*
X125909776Y-91466500D01*
X125890065Y-91464949D01*
X125877886Y-91463020D01*
X125870057Y-91461780D01*
X125862165Y-91462526D01*
X125826039Y-91465941D01*
X125814181Y-91466500D01*
X125208200Y-91466500D01*
X125140079Y-91446498D01*
X125120853Y-91430157D01*
X125120580Y-91430460D01*
X125115668Y-91426037D01*
X125111253Y-91421134D01*
X124956752Y-91308882D01*
X124950724Y-91306198D01*
X124950722Y-91306197D01*
X124788319Y-91233891D01*
X124788318Y-91233891D01*
X124782288Y-91231206D01*
X124688888Y-91211353D01*
X124601944Y-91192872D01*
X124601939Y-91192872D01*
X124595487Y-91191500D01*
X124404513Y-91191500D01*
X124398061Y-91192872D01*
X124398056Y-91192872D01*
X124311112Y-91211353D01*
X124217712Y-91231206D01*
X124211682Y-91233891D01*
X124211681Y-91233891D01*
X124049278Y-91306197D01*
X124049276Y-91306198D01*
X124043248Y-91308882D01*
X123888747Y-91421134D01*
X123884332Y-91426037D01*
X123879420Y-91430460D01*
X123878295Y-91429211D01*
X123824986Y-91462051D01*
X123791800Y-91466500D01*
X122457225Y-91466500D01*
X122389104Y-91446498D01*
X122349449Y-91405771D01*
X122340576Y-91391120D01*
X122336639Y-91384619D01*
X122215381Y-91263361D01*
X122068699Y-91174528D01*
X122061452Y-91172257D01*
X122061450Y-91172256D01*
X121995164Y-91151483D01*
X121905062Y-91123247D01*
X121831635Y-91116500D01*
X121828737Y-91116500D01*
X121574335Y-91116501D01*
X121318366Y-91116501D01*
X121315508Y-91116764D01*
X121315499Y-91116764D01*
X121279996Y-91120026D01*
X121244938Y-91123247D01*
X121238560Y-91125246D01*
X121238559Y-91125246D01*
X121088550Y-91172256D01*
X121088548Y-91172257D01*
X121081301Y-91174528D01*
X120934619Y-91263361D01*
X120839095Y-91358885D01*
X120776783Y-91392911D01*
X120705968Y-91387846D01*
X120660905Y-91358885D01*
X120565381Y-91263361D01*
X120418699Y-91174528D01*
X120411452Y-91172257D01*
X120411450Y-91172256D01*
X120345164Y-91151483D01*
X120255062Y-91123247D01*
X120181635Y-91116500D01*
X120178737Y-91116500D01*
X119924335Y-91116501D01*
X119668366Y-91116501D01*
X119665508Y-91116764D01*
X119665499Y-91116764D01*
X119629996Y-91120026D01*
X119594938Y-91123247D01*
X119588560Y-91125246D01*
X119588559Y-91125246D01*
X119438550Y-91172256D01*
X119438548Y-91172257D01*
X119431301Y-91174528D01*
X119339979Y-91229834D01*
X119328206Y-91236964D01*
X119259576Y-91255143D01*
X119211686Y-91244294D01*
X119188327Y-91233894D01*
X119188321Y-91233892D01*
X119182288Y-91231206D01*
X119088888Y-91211353D01*
X119001944Y-91192872D01*
X119001939Y-91192872D01*
X118995487Y-91191500D01*
X118804513Y-91191500D01*
X118798061Y-91192872D01*
X118798056Y-91192872D01*
X118711112Y-91211353D01*
X118617712Y-91231206D01*
X118611682Y-91233891D01*
X118611681Y-91233891D01*
X118449278Y-91306197D01*
X118449276Y-91306198D01*
X118443248Y-91308882D01*
X118288747Y-91421134D01*
X118284326Y-91426044D01*
X118284325Y-91426045D01*
X118175203Y-91547238D01*
X118160960Y-91563056D01*
X118065473Y-91728444D01*
X118006458Y-91910072D01*
X118005768Y-91916633D01*
X118005768Y-91916635D01*
X117997749Y-91992931D01*
X117986496Y-92100000D01*
X117987186Y-92106565D01*
X117999593Y-92224607D01*
X118006458Y-92289928D01*
X118065473Y-92471556D01*
X118160960Y-92636944D01*
X118165378Y-92641851D01*
X118165379Y-92641852D01*
X118280350Y-92769540D01*
X118288747Y-92778866D01*
X118443248Y-92891118D01*
X118449276Y-92893802D01*
X118449278Y-92893803D01*
X118611681Y-92966109D01*
X118617712Y-92968794D01*
X118711112Y-92988647D01*
X118798056Y-93007128D01*
X118798061Y-93007128D01*
X118804513Y-93008500D01*
X118995487Y-93008500D01*
X119001939Y-93007128D01*
X119001944Y-93007128D01*
X119088888Y-92988647D01*
X119182288Y-92968794D01*
X119188321Y-92966108D01*
X119188327Y-92966106D01*
X119211686Y-92955706D01*
X119282053Y-92946271D01*
X119328206Y-92963036D01*
X119431301Y-93025472D01*
X119438548Y-93027743D01*
X119438550Y-93027744D01*
X119504836Y-93048517D01*
X119594938Y-93076753D01*
X119668365Y-93083500D01*
X119671263Y-93083500D01*
X119925665Y-93083499D01*
X120181634Y-93083499D01*
X120184492Y-93083236D01*
X120184501Y-93083236D01*
X120220004Y-93079974D01*
X120255062Y-93076753D01*
X120261447Y-93074752D01*
X120411450Y-93027744D01*
X120411452Y-93027743D01*
X120418699Y-93025472D01*
X120565381Y-92936639D01*
X120660905Y-92841115D01*
X120723217Y-92807089D01*
X120794032Y-92812154D01*
X120839095Y-92841115D01*
X120934619Y-92936639D01*
X121081301Y-93025472D01*
X121088548Y-93027743D01*
X121088550Y-93027744D01*
X121154836Y-93048517D01*
X121244938Y-93076753D01*
X121318365Y-93083500D01*
X121321263Y-93083500D01*
X121575665Y-93083499D01*
X121831634Y-93083499D01*
X121834492Y-93083236D01*
X121834501Y-93083236D01*
X121870004Y-93079974D01*
X121905062Y-93076753D01*
X121911447Y-93074752D01*
X122061450Y-93027744D01*
X122061452Y-93027743D01*
X122068699Y-93025472D01*
X122215381Y-92936639D01*
X122336639Y-92815381D01*
X122349449Y-92794229D01*
X122401846Y-92746322D01*
X122457225Y-92733500D01*
X123791800Y-92733500D01*
X123859921Y-92753502D01*
X123879147Y-92769843D01*
X123879420Y-92769540D01*
X123884332Y-92773963D01*
X123888747Y-92778866D01*
X123898066Y-92785637D01*
X123991827Y-92853758D01*
X124043248Y-92891118D01*
X124049276Y-92893802D01*
X124049278Y-92893803D01*
X124211681Y-92966109D01*
X124217712Y-92968794D01*
X124311112Y-92988647D01*
X124398056Y-93007128D01*
X124398061Y-93007128D01*
X124404513Y-93008500D01*
X124595487Y-93008500D01*
X124601939Y-93007128D01*
X124601944Y-93007128D01*
X124688888Y-92988647D01*
X124782288Y-92968794D01*
X124788319Y-92966109D01*
X124950722Y-92893803D01*
X124950724Y-92893802D01*
X124956752Y-92891118D01*
X125008174Y-92853758D01*
X125101934Y-92785637D01*
X125111253Y-92778866D01*
X125115668Y-92773963D01*
X125120580Y-92769540D01*
X125121705Y-92770789D01*
X125175014Y-92737949D01*
X125208200Y-92733500D01*
X125535406Y-92733500D01*
X125603527Y-92753502D01*
X125624501Y-92770405D01*
X129880413Y-97026318D01*
X129914722Y-97089969D01*
X129925267Y-97141112D01*
X129928081Y-97147389D01*
X129928082Y-97147391D01*
X129960655Y-97220038D01*
X129970274Y-97290380D01*
X129940336Y-97354756D01*
X129880346Y-97392726D01*
X129809351Y-97392236D01*
X129756588Y-97360683D01*
X126753652Y-94357747D01*
X126746112Y-94349461D01*
X126742000Y-94342982D01*
X126692348Y-94296356D01*
X126689507Y-94293602D01*
X126669770Y-94273865D01*
X126666573Y-94271385D01*
X126657551Y-94263680D01*
X126625321Y-94233414D01*
X126618375Y-94229595D01*
X126618372Y-94229593D01*
X126607566Y-94223652D01*
X126591047Y-94212801D01*
X126584107Y-94207418D01*
X126575041Y-94200386D01*
X126567772Y-94197241D01*
X126567768Y-94197238D01*
X126534463Y-94182826D01*
X126523813Y-94177609D01*
X126485060Y-94156305D01*
X126465437Y-94151267D01*
X126446734Y-94144863D01*
X126435420Y-94139967D01*
X126435419Y-94139967D01*
X126428145Y-94136819D01*
X126420322Y-94135580D01*
X126420312Y-94135577D01*
X126384476Y-94129901D01*
X126372856Y-94127495D01*
X126337711Y-94118472D01*
X126337710Y-94118472D01*
X126330030Y-94116500D01*
X126309776Y-94116500D01*
X126290065Y-94114949D01*
X126277886Y-94113020D01*
X126270057Y-94111780D01*
X126262165Y-94112526D01*
X126226039Y-94115941D01*
X126214181Y-94116500D01*
X125208200Y-94116500D01*
X125140079Y-94096498D01*
X125120853Y-94080157D01*
X125120580Y-94080460D01*
X125115668Y-94076037D01*
X125111253Y-94071134D01*
X125072607Y-94043056D01*
X124962094Y-93962763D01*
X124962093Y-93962762D01*
X124956752Y-93958882D01*
X124950724Y-93956198D01*
X124950722Y-93956197D01*
X124788319Y-93883891D01*
X124788318Y-93883891D01*
X124782288Y-93881206D01*
X124688887Y-93861353D01*
X124601944Y-93842872D01*
X124601939Y-93842872D01*
X124595487Y-93841500D01*
X124404513Y-93841500D01*
X124398061Y-93842872D01*
X124398056Y-93842872D01*
X124311112Y-93861353D01*
X124217712Y-93881206D01*
X124211682Y-93883891D01*
X124211681Y-93883891D01*
X124049278Y-93956197D01*
X124049276Y-93956198D01*
X124043248Y-93958882D01*
X124037907Y-93962762D01*
X124037906Y-93962763D01*
X124006533Y-93985557D01*
X123888747Y-94071134D01*
X123884326Y-94076044D01*
X123884325Y-94076045D01*
X123769335Y-94203755D01*
X123760960Y-94213056D01*
X123729385Y-94267745D01*
X123701450Y-94316131D01*
X123665473Y-94378444D01*
X123606458Y-94560072D01*
X123605768Y-94566633D01*
X123605768Y-94566635D01*
X123598360Y-94637123D01*
X123586496Y-94750000D01*
X123606458Y-94939928D01*
X123665473Y-95121556D01*
X123760960Y-95286944D01*
X123765378Y-95291851D01*
X123765379Y-95291852D01*
X123884325Y-95423955D01*
X123888747Y-95428866D01*
X124043248Y-95541118D01*
X124049276Y-95543802D01*
X124049278Y-95543803D01*
X124211681Y-95616109D01*
X124217712Y-95618794D01*
X124311112Y-95638647D01*
X124398056Y-95657128D01*
X124398061Y-95657128D01*
X124404513Y-95658500D01*
X124595487Y-95658500D01*
X124601939Y-95657128D01*
X124601944Y-95657128D01*
X124688888Y-95638647D01*
X124782288Y-95618794D01*
X124788319Y-95616109D01*
X124950722Y-95543803D01*
X124950724Y-95543802D01*
X124956752Y-95541118D01*
X125014058Y-95499483D01*
X125103759Y-95434311D01*
X125111253Y-95428866D01*
X125115668Y-95423963D01*
X125120580Y-95419540D01*
X125121705Y-95420789D01*
X125175014Y-95387949D01*
X125208200Y-95383500D01*
X125935406Y-95383500D01*
X126003527Y-95403502D01*
X126024501Y-95420405D01*
X138746343Y-108142247D01*
X138753887Y-108150537D01*
X138758000Y-108157018D01*
X138763777Y-108162443D01*
X138807667Y-108203658D01*
X138810509Y-108206413D01*
X138830230Y-108226134D01*
X138833425Y-108228612D01*
X138842447Y-108236318D01*
X138874679Y-108266586D01*
X138881628Y-108270406D01*
X138892432Y-108276346D01*
X138908956Y-108287199D01*
X138924959Y-108299613D01*
X138965543Y-108317176D01*
X138976173Y-108322383D01*
X139014940Y-108343695D01*
X139022617Y-108345666D01*
X139022622Y-108345668D01*
X139034558Y-108348732D01*
X139053266Y-108355137D01*
X139071855Y-108363181D01*
X139079683Y-108364421D01*
X139079690Y-108364423D01*
X139115524Y-108370099D01*
X139127144Y-108372505D01*
X139158959Y-108380673D01*
X139169970Y-108383500D01*
X139190224Y-108383500D01*
X139209934Y-108385051D01*
X139229943Y-108388220D01*
X139237835Y-108387474D01*
X139256580Y-108385702D01*
X139273962Y-108384059D01*
X139285819Y-108383500D01*
X155671233Y-108383500D01*
X155682416Y-108384027D01*
X155689909Y-108385702D01*
X155697835Y-108385453D01*
X155697836Y-108385453D01*
X155757986Y-108383562D01*
X155761945Y-108383500D01*
X155789856Y-108383500D01*
X155793791Y-108383003D01*
X155793856Y-108382995D01*
X155805693Y-108382062D01*
X155837951Y-108381048D01*
X155841970Y-108380922D01*
X155849889Y-108380673D01*
X155869343Y-108375021D01*
X155888700Y-108371013D01*
X155900930Y-108369468D01*
X155900931Y-108369468D01*
X155906137Y-108368810D01*
X155908798Y-108368474D01*
X155908852Y-108368903D01*
X155974760Y-108371168D01*
X156033133Y-108411579D01*
X156060392Y-108477134D01*
X156047881Y-108547020D01*
X156024232Y-108579863D01*
X155949498Y-108654597D01*
X155887187Y-108688621D01*
X155860405Y-108691500D01*
X136509000Y-108691500D01*
X136440879Y-108671498D01*
X136394386Y-108617842D01*
X136383000Y-108565500D01*
X136383000Y-108272115D01*
X136378525Y-108256876D01*
X136377135Y-108255671D01*
X136369452Y-108254000D01*
X134035116Y-108254000D01*
X134019877Y-108258475D01*
X134018672Y-108259865D01*
X134017001Y-108267548D01*
X134017001Y-108565500D01*
X133996999Y-108633621D01*
X133943343Y-108680114D01*
X133891001Y-108691500D01*
X132109500Y-108691500D01*
X132041379Y-108671498D01*
X131994886Y-108617842D01*
X131983500Y-108565500D01*
X131983500Y-107727885D01*
X134017000Y-107727885D01*
X134021475Y-107743124D01*
X134022865Y-107744329D01*
X134030548Y-107746000D01*
X134927885Y-107746000D01*
X134943124Y-107741525D01*
X134944329Y-107740135D01*
X134946000Y-107732452D01*
X134946000Y-107727885D01*
X135454000Y-107727885D01*
X135458475Y-107743124D01*
X135459865Y-107744329D01*
X135467548Y-107746000D01*
X136364884Y-107746000D01*
X136380123Y-107741525D01*
X136381328Y-107740135D01*
X136382999Y-107732452D01*
X136382999Y-106955331D01*
X136382629Y-106948510D01*
X136377105Y-106897648D01*
X136373479Y-106882396D01*
X136328324Y-106761946D01*
X136319786Y-106746351D01*
X136243285Y-106644276D01*
X136230724Y-106631715D01*
X136128649Y-106555214D01*
X136113054Y-106546676D01*
X135992606Y-106501522D01*
X135977351Y-106497895D01*
X135926486Y-106492369D01*
X135919672Y-106492000D01*
X135472115Y-106492000D01*
X135456876Y-106496475D01*
X135455671Y-106497865D01*
X135454000Y-106505548D01*
X135454000Y-107727885D01*
X134946000Y-107727885D01*
X134946000Y-106510116D01*
X134941525Y-106494877D01*
X134940135Y-106493672D01*
X134932452Y-106492001D01*
X134480331Y-106492001D01*
X134473510Y-106492371D01*
X134422648Y-106497895D01*
X134407396Y-106501521D01*
X134286946Y-106546676D01*
X134271351Y-106555214D01*
X134169276Y-106631715D01*
X134156715Y-106644276D01*
X134080214Y-106746351D01*
X134071676Y-106761946D01*
X134026522Y-106882394D01*
X134022895Y-106897649D01*
X134017369Y-106948514D01*
X134017000Y-106955328D01*
X134017000Y-107727885D01*
X131983500Y-107727885D01*
X131983500Y-106951866D01*
X131976745Y-106889684D01*
X131925615Y-106753295D01*
X131838261Y-106636739D01*
X131721705Y-106549385D01*
X131585316Y-106498255D01*
X131523134Y-106491500D01*
X130076866Y-106491500D01*
X130014684Y-106498255D01*
X129878295Y-106549385D01*
X129761739Y-106636739D01*
X129674385Y-106753295D01*
X129623255Y-106889684D01*
X129616500Y-106951866D01*
X129616500Y-107240500D01*
X129596498Y-107308621D01*
X129542842Y-107355114D01*
X129490500Y-107366500D01*
X116314594Y-107366500D01*
X116246473Y-107346498D01*
X116225499Y-107329595D01*
X114020405Y-105124500D01*
X113986379Y-105062188D01*
X113983500Y-105035405D01*
X113983500Y-103837882D01*
X114003502Y-103769761D01*
X114057158Y-103723268D01*
X114065269Y-103719901D01*
X114088293Y-103711269D01*
X114088297Y-103711267D01*
X114096705Y-103708115D01*
X114213261Y-103620761D01*
X114300615Y-103504205D01*
X114351745Y-103367816D01*
X114358500Y-103305634D01*
X114358500Y-101209366D01*
X114351745Y-101147184D01*
X114300615Y-101010795D01*
X114213261Y-100894239D01*
X114096705Y-100806885D01*
X114088296Y-100803732D01*
X114088293Y-100803731D01*
X114065269Y-100795099D01*
X114008505Y-100752457D01*
X113983806Y-100685895D01*
X113983500Y-100677118D01*
X113983500Y-94783594D01*
X114003502Y-94715473D01*
X114057158Y-94668980D01*
X114127432Y-94658876D01*
X114192012Y-94688370D01*
X114198595Y-94694499D01*
X115219595Y-95715499D01*
X115253621Y-95777811D01*
X115256500Y-95804594D01*
X115256500Y-100677118D01*
X115236498Y-100745239D01*
X115182842Y-100791732D01*
X115174731Y-100795099D01*
X115151707Y-100803731D01*
X115151704Y-100803732D01*
X115143295Y-100806885D01*
X115026739Y-100894239D01*
X114939385Y-101010795D01*
X114888255Y-101147184D01*
X114881500Y-101209366D01*
X114881500Y-103305634D01*
X114888255Y-103367816D01*
X114939385Y-103504205D01*
X115026739Y-103620761D01*
X115143295Y-103708115D01*
X115279684Y-103759245D01*
X115341866Y-103766000D01*
X116438134Y-103766000D01*
X116500316Y-103759245D01*
X116636705Y-103708115D01*
X116753261Y-103620761D01*
X116840615Y-103504205D01*
X116891745Y-103367816D01*
X116898500Y-103305634D01*
X116898500Y-103017000D01*
X116918502Y-102948879D01*
X116972158Y-102902386D01*
X117024500Y-102891000D01*
X117295500Y-102891000D01*
X117363621Y-102911002D01*
X117410114Y-102964658D01*
X117421500Y-103017000D01*
X117421500Y-103305634D01*
X117428255Y-103367816D01*
X117479385Y-103504205D01*
X117566739Y-103620761D01*
X117683295Y-103708115D01*
X117819684Y-103759245D01*
X117881866Y-103766000D01*
X118978134Y-103766000D01*
X119040316Y-103759245D01*
X119176705Y-103708115D01*
X119293261Y-103620761D01*
X119380615Y-103504205D01*
X119431745Y-103367816D01*
X119438500Y-103305634D01*
X119438500Y-103302169D01*
X119962001Y-103302169D01*
X119962371Y-103308990D01*
X119967895Y-103359852D01*
X119971521Y-103375104D01*
X120016676Y-103495554D01*
X120025214Y-103511149D01*
X120101715Y-103613224D01*
X120114276Y-103625785D01*
X120216351Y-103702286D01*
X120231946Y-103710824D01*
X120352394Y-103755978D01*
X120367649Y-103759605D01*
X120418514Y-103765131D01*
X120425328Y-103765500D01*
X120697885Y-103765500D01*
X120713124Y-103761025D01*
X120714329Y-103759635D01*
X120716000Y-103751952D01*
X120716000Y-103747384D01*
X121224000Y-103747384D01*
X121228475Y-103762623D01*
X121229865Y-103763828D01*
X121237548Y-103765499D01*
X121514669Y-103765499D01*
X121521490Y-103765129D01*
X121572352Y-103759605D01*
X121587604Y-103755979D01*
X121708054Y-103710824D01*
X121723649Y-103702286D01*
X121825724Y-103625785D01*
X121838285Y-103613224D01*
X121914786Y-103511149D01*
X121923324Y-103495554D01*
X121968478Y-103375106D01*
X121972105Y-103359851D01*
X121977631Y-103308986D01*
X121978000Y-103302172D01*
X121978000Y-102529615D01*
X121973525Y-102514376D01*
X121972135Y-102513171D01*
X121964452Y-102511500D01*
X121242115Y-102511500D01*
X121226876Y-102515975D01*
X121225671Y-102517365D01*
X121224000Y-102525048D01*
X121224000Y-103747384D01*
X120716000Y-103747384D01*
X120716000Y-102529615D01*
X120711525Y-102514376D01*
X120710135Y-102513171D01*
X120702452Y-102511500D01*
X119980116Y-102511500D01*
X119964877Y-102515975D01*
X119963672Y-102517365D01*
X119962001Y-102525048D01*
X119962001Y-103302169D01*
X119438500Y-103302169D01*
X119438500Y-101985385D01*
X119962000Y-101985385D01*
X119966475Y-102000624D01*
X119967865Y-102001829D01*
X119975548Y-102003500D01*
X120697885Y-102003500D01*
X120713124Y-101999025D01*
X120714329Y-101997635D01*
X120716000Y-101989952D01*
X120716000Y-101985385D01*
X121224000Y-101985385D01*
X121228475Y-102000624D01*
X121229865Y-102001829D01*
X121237548Y-102003500D01*
X121959884Y-102003500D01*
X121975123Y-101999025D01*
X121976328Y-101997635D01*
X121977999Y-101989952D01*
X121977999Y-101212831D01*
X121977629Y-101206010D01*
X121972105Y-101155148D01*
X121968479Y-101139896D01*
X121923324Y-101019446D01*
X121914786Y-101003851D01*
X121838285Y-100901776D01*
X121825724Y-100889215D01*
X121723649Y-100812714D01*
X121708054Y-100804176D01*
X121587606Y-100759022D01*
X121572351Y-100755395D01*
X121521486Y-100749869D01*
X121514672Y-100749500D01*
X121242115Y-100749500D01*
X121226876Y-100753975D01*
X121225671Y-100755365D01*
X121224000Y-100763048D01*
X121224000Y-101985385D01*
X120716000Y-101985385D01*
X120716000Y-100767616D01*
X120711525Y-100752377D01*
X120710135Y-100751172D01*
X120702452Y-100749501D01*
X120425331Y-100749501D01*
X120418510Y-100749871D01*
X120367648Y-100755395D01*
X120352396Y-100759021D01*
X120231946Y-100804176D01*
X120216351Y-100812714D01*
X120114276Y-100889215D01*
X120101715Y-100901776D01*
X120025214Y-101003851D01*
X120016676Y-101019446D01*
X119971522Y-101139894D01*
X119967895Y-101155149D01*
X119962369Y-101206014D01*
X119962000Y-101212828D01*
X119962000Y-101985385D01*
X119438500Y-101985385D01*
X119438500Y-101209366D01*
X119431745Y-101147184D01*
X119380615Y-101010795D01*
X119293261Y-100894239D01*
X119176705Y-100806885D01*
X119040316Y-100755755D01*
X118978134Y-100749000D01*
X117881866Y-100749000D01*
X117819684Y-100755755D01*
X117683295Y-100806885D01*
X117566739Y-100894239D01*
X117479385Y-101010795D01*
X117428255Y-101147184D01*
X117421500Y-101209366D01*
X117421500Y-101498000D01*
X117401498Y-101566121D01*
X117347842Y-101612614D01*
X117295500Y-101624000D01*
X117024500Y-101624000D01*
X116956379Y-101603998D01*
X116909886Y-101550342D01*
X116898500Y-101498000D01*
X116898500Y-101209366D01*
X116891745Y-101147184D01*
X116840615Y-101010795D01*
X116753261Y-100894239D01*
X116636705Y-100806885D01*
X116628296Y-100803732D01*
X116628293Y-100803731D01*
X116605269Y-100795099D01*
X116548505Y-100752457D01*
X116523806Y-100685895D01*
X116523500Y-100677118D01*
X116523500Y-95568768D01*
X116524027Y-95557585D01*
X116525702Y-95550092D01*
X116523562Y-95482001D01*
X116523500Y-95478044D01*
X116523500Y-95450144D01*
X116522996Y-95446153D01*
X116522063Y-95434311D01*
X116521547Y-95417874D01*
X116520674Y-95390111D01*
X116515021Y-95370652D01*
X116511012Y-95351293D01*
X116510846Y-95349983D01*
X116508474Y-95331203D01*
X116505558Y-95323837D01*
X116505556Y-95323831D01*
X116492200Y-95290098D01*
X116488355Y-95278868D01*
X116478230Y-95244017D01*
X116478230Y-95244016D01*
X116476019Y-95236407D01*
X116469063Y-95224644D01*
X116465705Y-95218966D01*
X116457008Y-95201213D01*
X116452472Y-95189758D01*
X116449552Y-95182383D01*
X116423563Y-95146612D01*
X116417047Y-95136692D01*
X116411480Y-95127279D01*
X116394542Y-95098638D01*
X116380221Y-95084317D01*
X116367380Y-95069283D01*
X116360131Y-95059306D01*
X116355472Y-95052893D01*
X116321395Y-95024702D01*
X116312616Y-95016712D01*
X109400750Y-88104845D01*
X109366724Y-88042533D01*
X109373436Y-87967532D01*
X109382588Y-87945438D01*
X111417000Y-87945438D01*
X111417337Y-87951953D01*
X111426894Y-88044057D01*
X111429788Y-88057456D01*
X111479381Y-88206107D01*
X111485555Y-88219286D01*
X111567788Y-88352173D01*
X111576824Y-88363574D01*
X111687429Y-88473986D01*
X111698840Y-88482998D01*
X111831880Y-88565004D01*
X111845061Y-88571151D01*
X111993814Y-88620491D01*
X112007190Y-88623358D01*
X112098097Y-88632672D01*
X112104513Y-88633000D01*
X112127885Y-88633000D01*
X112143124Y-88628525D01*
X112144329Y-88627135D01*
X112146000Y-88619452D01*
X112146000Y-88614885D01*
X112654000Y-88614885D01*
X112658475Y-88630124D01*
X112659865Y-88631329D01*
X112667548Y-88633000D01*
X112695438Y-88633000D01*
X112701953Y-88632663D01*
X112794057Y-88623106D01*
X112807456Y-88620212D01*
X112956107Y-88570619D01*
X112969286Y-88564445D01*
X113102173Y-88482212D01*
X113119311Y-88468629D01*
X113120756Y-88470452D01*
X113173195Y-88441751D01*
X113244016Y-88446746D01*
X113280920Y-88470414D01*
X113281683Y-88469448D01*
X113298840Y-88482998D01*
X113431880Y-88565004D01*
X113445061Y-88571151D01*
X113593814Y-88620491D01*
X113607190Y-88623358D01*
X113698097Y-88632672D01*
X113704513Y-88633000D01*
X113727885Y-88633000D01*
X113743124Y-88628525D01*
X113744329Y-88627135D01*
X113746000Y-88619452D01*
X113746000Y-88614885D01*
X114254000Y-88614885D01*
X114258475Y-88630124D01*
X114259865Y-88631329D01*
X114267548Y-88633000D01*
X114295438Y-88633000D01*
X114301953Y-88632663D01*
X114394057Y-88623106D01*
X114407456Y-88620212D01*
X114556107Y-88570619D01*
X114569286Y-88564445D01*
X114702173Y-88482212D01*
X114713574Y-88473176D01*
X114823986Y-88362571D01*
X114832998Y-88351160D01*
X114915004Y-88218120D01*
X114921151Y-88204939D01*
X114970491Y-88056186D01*
X114973358Y-88042810D01*
X114982672Y-87951903D01*
X114982929Y-87946874D01*
X114978525Y-87931876D01*
X114977135Y-87930671D01*
X114969452Y-87929000D01*
X114272115Y-87929000D01*
X114256876Y-87933475D01*
X114255671Y-87934865D01*
X114254000Y-87942548D01*
X114254000Y-88614885D01*
X113746000Y-88614885D01*
X113746000Y-87947115D01*
X113741525Y-87931876D01*
X113740135Y-87930671D01*
X113732452Y-87929000D01*
X112672115Y-87929000D01*
X112656876Y-87933475D01*
X112655671Y-87934865D01*
X112654000Y-87942548D01*
X112654000Y-88614885D01*
X112146000Y-88614885D01*
X112146000Y-87947115D01*
X112141525Y-87931876D01*
X112140135Y-87930671D01*
X112132452Y-87929000D01*
X111435115Y-87929000D01*
X111419876Y-87933475D01*
X111418671Y-87934865D01*
X111417000Y-87942548D01*
X111417000Y-87945438D01*
X109382588Y-87945438D01*
X109426887Y-87838489D01*
X109427964Y-87830309D01*
X109427965Y-87830305D01*
X109445434Y-87697617D01*
X109446512Y-87689429D01*
X109426887Y-87540368D01*
X109430125Y-87539942D01*
X109431436Y-87484296D01*
X109462368Y-87433536D01*
X109997706Y-86898198D01*
X110060018Y-86864172D01*
X110130833Y-86869237D01*
X110187669Y-86911784D01*
X110195920Y-86924292D01*
X110260960Y-87036944D01*
X110388747Y-87178866D01*
X110474955Y-87241500D01*
X110534986Y-87285115D01*
X110543248Y-87291118D01*
X110549276Y-87293802D01*
X110549278Y-87293803D01*
X110708155Y-87364539D01*
X110717712Y-87368794D01*
X110811112Y-87388647D01*
X110898056Y-87407128D01*
X110898061Y-87407128D01*
X110904513Y-87408500D01*
X111095487Y-87408500D01*
X111101939Y-87407128D01*
X111101944Y-87407128D01*
X111282288Y-87368794D01*
X111282664Y-87370565D01*
X111344797Y-87368789D01*
X111395278Y-87395425D01*
X111422865Y-87419329D01*
X111430548Y-87421000D01*
X114964885Y-87421000D01*
X114980124Y-87416525D01*
X114981329Y-87415135D01*
X114983000Y-87407452D01*
X114983000Y-87404562D01*
X114982663Y-87398047D01*
X114973106Y-87305943D01*
X114970212Y-87292544D01*
X114920619Y-87143893D01*
X114914445Y-87130714D01*
X114832212Y-86997827D01*
X114818629Y-86980689D01*
X114820559Y-86979159D01*
X114792097Y-86927120D01*
X114797113Y-86856301D01*
X114820799Y-86819383D01*
X114819843Y-86818628D01*
X114824381Y-86812882D01*
X114829552Y-86807702D01*
X114863519Y-86752598D01*
X114915462Y-86668331D01*
X114915463Y-86668329D01*
X114919302Y-86662101D01*
X114973149Y-86499757D01*
X114974333Y-86488207D01*
X114980611Y-86426930D01*
X114983500Y-86398732D01*
X114983500Y-85851268D01*
X114972887Y-85748981D01*
X114918756Y-85586732D01*
X114828752Y-85441287D01*
X114795482Y-85408075D01*
X114761403Y-85345793D01*
X114758500Y-85318902D01*
X114758500Y-84666371D01*
X114778502Y-84598250D01*
X114795405Y-84577276D01*
X117800846Y-81571835D01*
X117863158Y-81537809D01*
X117933973Y-81542874D01*
G37*
%TD.AperFunction*%
%TA.AperFunction,Conductor*%
G36*
X155041772Y-67866002D02*
G01*
X155062746Y-67882905D01*
X156912783Y-69732943D01*
X156946809Y-69795255D01*
X156947137Y-69847265D01*
X156932931Y-69916781D01*
X156933775Y-69944390D01*
X156936072Y-70019571D01*
X156938110Y-70086285D01*
X156940009Y-70093349D01*
X156940010Y-70093353D01*
X156947237Y-70120229D01*
X156945610Y-70191207D01*
X156905867Y-70250037D01*
X156858275Y-70274624D01*
X156830048Y-70282213D01*
X156830042Y-70282215D01*
X156822977Y-70284115D01*
X156748355Y-70324379D01*
X156680174Y-70361167D01*
X156680170Y-70361170D01*
X156673733Y-70364643D01*
X156668263Y-70369508D01*
X156609937Y-70421384D01*
X156547017Y-70477345D01*
X156488050Y-70558954D01*
X156486434Y-70561753D01*
X156246155Y-70977929D01*
X156220978Y-71021536D01*
X156179385Y-71114621D01*
X156145431Y-71280771D01*
X156150610Y-71450275D01*
X156152509Y-71457339D01*
X156152510Y-71457343D01*
X156192743Y-71606972D01*
X156194644Y-71614042D01*
X156208274Y-71639302D01*
X156271696Y-71756845D01*
X156271699Y-71756849D01*
X156275172Y-71763286D01*
X156387874Y-71890002D01*
X156469483Y-71948969D01*
X156997017Y-72253541D01*
X157090102Y-72295134D01*
X157256252Y-72329088D01*
X157299533Y-72327766D01*
X157309710Y-72327455D01*
X157378410Y-72345368D01*
X157402652Y-72364301D01*
X162605471Y-77567120D01*
X162639497Y-77629432D01*
X162642324Y-77659841D01*
X162641022Y-77705021D01*
X162642500Y-77712189D01*
X162660066Y-77797384D01*
X162675267Y-77871112D01*
X162716459Y-77962983D01*
X163021031Y-78490517D01*
X163022936Y-78493147D01*
X163022939Y-78493151D01*
X163058416Y-78542118D01*
X163080848Y-78573080D01*
X163086003Y-78577649D01*
X163086005Y-78577651D01*
X163086541Y-78578126D01*
X163207761Y-78685560D01*
X163357146Y-78765827D01*
X163384972Y-78773257D01*
X163508582Y-78806263D01*
X163520989Y-78809576D01*
X163528302Y-78809787D01*
X163528304Y-78809787D01*
X163598609Y-78811812D01*
X163690502Y-78814459D01*
X163697669Y-78812981D01*
X163697672Y-78812981D01*
X163758551Y-78800429D01*
X163829307Y-78806263D01*
X163873089Y-78834738D01*
X167117095Y-82078744D01*
X167151121Y-82141056D01*
X167154000Y-82167839D01*
X167154000Y-86078353D01*
X167133998Y-86146474D01*
X167113321Y-86169305D01*
X167113946Y-86169928D01*
X167113945Y-86169929D01*
X167089113Y-86194805D01*
X167026832Y-86228884D01*
X166956012Y-86223882D01*
X166910922Y-86194960D01*
X166890233Y-86174307D01*
X166885053Y-86169136D01*
X166863266Y-86155706D01*
X166770878Y-86098758D01*
X166740692Y-86080151D01*
X166733743Y-86077846D01*
X166586262Y-86028928D01*
X166586260Y-86028928D01*
X166579731Y-86026762D01*
X166479572Y-86016500D01*
X165945428Y-86016500D01*
X165942182Y-86016837D01*
X165942178Y-86016837D01*
X165908397Y-86020342D01*
X165844018Y-86027022D01*
X165683151Y-86080692D01*
X165538945Y-86169929D01*
X165419136Y-86289947D01*
X165415296Y-86296177D01*
X165415295Y-86296178D01*
X165400110Y-86320813D01*
X165330151Y-86434308D01*
X165327846Y-86441256D01*
X165327846Y-86441257D01*
X165281624Y-86580612D01*
X165276762Y-86595269D01*
X165266500Y-86695428D01*
X165266500Y-87304572D01*
X165277022Y-87405982D01*
X165330692Y-87566849D01*
X165419929Y-87711055D01*
X165425107Y-87716224D01*
X165539947Y-87830864D01*
X165538118Y-87832696D01*
X165572160Y-87880723D01*
X165579000Y-87921673D01*
X165579000Y-93397161D01*
X165558998Y-93465282D01*
X165542095Y-93486256D01*
X163873067Y-95155283D01*
X163810755Y-95189309D01*
X163758745Y-95189637D01*
X163689229Y-95175431D01*
X163618484Y-95177593D01*
X163527040Y-95180386D01*
X163527036Y-95180387D01*
X163519725Y-95180610D01*
X163512661Y-95182509D01*
X163512657Y-95182510D01*
X163377075Y-95218966D01*
X163355958Y-95224644D01*
X163320054Y-95244017D01*
X163213155Y-95301696D01*
X163213151Y-95301699D01*
X163206714Y-95305172D01*
X163201244Y-95310037D01*
X163102303Y-95398036D01*
X163079998Y-95417874D01*
X163021031Y-95499483D01*
X163019415Y-95502282D01*
X162764771Y-95943339D01*
X162716459Y-96027017D01*
X162674866Y-96120102D01*
X162640912Y-96286252D01*
X162646091Y-96455756D01*
X162647990Y-96462820D01*
X162647991Y-96462824D01*
X162668222Y-96538064D01*
X162690125Y-96619523D01*
X162730389Y-96694145D01*
X162767177Y-96762326D01*
X162767180Y-96762330D01*
X162770653Y-96768767D01*
X162883355Y-96895483D01*
X162964964Y-96954450D01*
X162982924Y-96964819D01*
X162991507Y-96969775D01*
X163040499Y-97021158D01*
X163054505Y-97078893D01*
X163054505Y-98173146D01*
X163034503Y-98241267D01*
X163017600Y-98262241D01*
X158465992Y-102813848D01*
X158403680Y-102847874D01*
X158332865Y-102842809D01*
X158276029Y-102800262D01*
X158253493Y-102750197D01*
X158234104Y-102656157D01*
X158234103Y-102656154D01*
X158232714Y-102649417D01*
X158191522Y-102557546D01*
X157924450Y-102094964D01*
X157864633Y-102012401D01*
X157859478Y-102007832D01*
X157859476Y-102007830D01*
X157743198Y-101904776D01*
X157737720Y-101899921D01*
X157588335Y-101819654D01*
X157424492Y-101775905D01*
X157417179Y-101775694D01*
X157417177Y-101775694D01*
X157346872Y-101773669D01*
X157254979Y-101771022D01*
X157231296Y-101775905D01*
X157095628Y-101803877D01*
X157095625Y-101803878D01*
X157088888Y-101805267D01*
X157082611Y-101808081D01*
X157082609Y-101808082D01*
X157053221Y-101821259D01*
X156997017Y-101846459D01*
X156469483Y-102151031D01*
X156386920Y-102210848D01*
X156274440Y-102337761D01*
X156194173Y-102487146D01*
X156150424Y-102650989D01*
X156145541Y-102820502D01*
X156147019Y-102827670D01*
X156147019Y-102827671D01*
X156159571Y-102888550D01*
X156153737Y-102959306D01*
X156125262Y-103003088D01*
X154586255Y-104542095D01*
X154523943Y-104576121D01*
X154497160Y-104579000D01*
X148921647Y-104579000D01*
X148853526Y-104558998D01*
X148830694Y-104538320D01*
X148830071Y-104538945D01*
X148715233Y-104424307D01*
X148710053Y-104419136D01*
X148565692Y-104330151D01*
X148558743Y-104327846D01*
X148411262Y-104278928D01*
X148411260Y-104278928D01*
X148404731Y-104276762D01*
X148304572Y-104266500D01*
X147695428Y-104266500D01*
X147692182Y-104266837D01*
X147692178Y-104266837D01*
X147658397Y-104270342D01*
X147594018Y-104277022D01*
X147433151Y-104330692D01*
X147288945Y-104419929D01*
X147169136Y-104539947D01*
X147165296Y-104546177D01*
X147165295Y-104546178D01*
X147158861Y-104556616D01*
X147106088Y-104604110D01*
X147051601Y-104616500D01*
X143564594Y-104616500D01*
X143496473Y-104596498D01*
X143475499Y-104579595D01*
X138462031Y-99566126D01*
X133419770Y-94523865D01*
X133419766Y-94523862D01*
X132444039Y-93548135D01*
X141817405Y-93548135D01*
X141817490Y-93549326D01*
X141822408Y-93556820D01*
X141967599Y-93696541D01*
X141970698Y-93699331D01*
X142424681Y-94081620D01*
X142427933Y-94084179D01*
X142906252Y-94435539D01*
X142909699Y-94437899D01*
X143410225Y-94756770D01*
X143413836Y-94758905D01*
X143934373Y-95043890D01*
X143938140Y-95045793D01*
X144476425Y-95295658D01*
X144480284Y-95297296D01*
X145033969Y-95510944D01*
X145037899Y-95512313D01*
X145604542Y-95688803D01*
X145608559Y-95689910D01*
X146185664Y-95828461D01*
X146189718Y-95829293D01*
X146774747Y-95929294D01*
X146778853Y-95929856D01*
X147369210Y-95990864D01*
X147373378Y-95991155D01*
X147966452Y-96012901D01*
X147970614Y-96012916D01*
X148563857Y-95995310D01*
X148568006Y-95995048D01*
X149158752Y-95938166D01*
X149162908Y-95937626D01*
X149748579Y-95841719D01*
X149752678Y-95840907D01*
X150330714Y-95706394D01*
X150334735Y-95705316D01*
X150902598Y-95532787D01*
X150906542Y-95531444D01*
X151461725Y-95321657D01*
X151465559Y-95320061D01*
X152005609Y-95073947D01*
X152009352Y-95072089D01*
X152531880Y-94790736D01*
X152535523Y-94788615D01*
X153038244Y-94473259D01*
X153041723Y-94470913D01*
X153522451Y-94122924D01*
X153525767Y-94120352D01*
X153982382Y-93741263D01*
X153985502Y-93738493D01*
X154174408Y-93559228D01*
X154182382Y-93545492D01*
X154182338Y-93544534D01*
X154177376Y-93536586D01*
X148012812Y-87372022D01*
X147998868Y-87364408D01*
X147997035Y-87364539D01*
X147990420Y-87368790D01*
X141825019Y-93534191D01*
X141817405Y-93548135D01*
X132444039Y-93548135D01*
X131970656Y-93074752D01*
X130457905Y-91562000D01*
X130423879Y-91499688D01*
X130421000Y-91472905D01*
X130421000Y-89848134D01*
X135616500Y-89848134D01*
X135623255Y-89910316D01*
X135674385Y-90046705D01*
X135761739Y-90163261D01*
X135878295Y-90250615D01*
X136014684Y-90301745D01*
X136076866Y-90308500D01*
X137923134Y-90308500D01*
X137985316Y-90301745D01*
X138121705Y-90250615D01*
X138238261Y-90163261D01*
X138325615Y-90046705D01*
X138376745Y-89910316D01*
X138383500Y-89848134D01*
X138383500Y-86781873D01*
X138989675Y-86781873D01*
X138994855Y-87375342D01*
X138995030Y-87379509D01*
X139039527Y-87971297D01*
X139039982Y-87975487D01*
X139123599Y-88563018D01*
X139124328Y-88567152D01*
X139246704Y-89147863D01*
X139247701Y-89151924D01*
X139408300Y-89723273D01*
X139409552Y-89727221D01*
X139607666Y-90286678D01*
X139609191Y-90290569D01*
X139843939Y-90835647D01*
X139845711Y-90839414D01*
X140116071Y-91367742D01*
X140118103Y-91371408D01*
X140422875Y-91880647D01*
X140425131Y-91884146D01*
X140762981Y-92372063D01*
X140765485Y-92375434D01*
X141134945Y-92839910D01*
X141137617Y-92843050D01*
X141439922Y-93175279D01*
X141453486Y-93183538D01*
X141453740Y-93183532D01*
X141462758Y-93178032D01*
X147627978Y-87012812D01*
X147634356Y-87001132D01*
X148364408Y-87001132D01*
X148364539Y-87002965D01*
X148368790Y-87009580D01*
X154534388Y-93175178D01*
X154548332Y-93182792D01*
X154548818Y-93182758D01*
X154557255Y-93177093D01*
X154821399Y-92890842D01*
X154824135Y-92887673D01*
X155196824Y-92425795D01*
X155199320Y-92422483D01*
X155540588Y-91936907D01*
X155542863Y-91933430D01*
X155851192Y-91426320D01*
X155853252Y-91422664D01*
X156127271Y-90896276D01*
X156129095Y-90892468D01*
X156367626Y-90349079D01*
X156369188Y-90345176D01*
X156549115Y-89848134D01*
X157616500Y-89848134D01*
X157623255Y-89910316D01*
X157674385Y-90046705D01*
X157761739Y-90163261D01*
X157878295Y-90250615D01*
X158014684Y-90301745D01*
X158076866Y-90308500D01*
X159923134Y-90308500D01*
X159985316Y-90301745D01*
X160121705Y-90250615D01*
X160238261Y-90163261D01*
X160325615Y-90046705D01*
X160376745Y-89910316D01*
X160383500Y-89848134D01*
X160383500Y-84151866D01*
X160376745Y-84089684D01*
X160325615Y-83953295D01*
X160238261Y-83836739D01*
X160121705Y-83749385D01*
X159985316Y-83698255D01*
X159923134Y-83691500D01*
X158076866Y-83691500D01*
X158014684Y-83698255D01*
X157878295Y-83749385D01*
X157761739Y-83836739D01*
X157674385Y-83953295D01*
X157623255Y-84089684D01*
X157616500Y-84151866D01*
X157616500Y-89848134D01*
X156549115Y-89848134D01*
X156571193Y-89787145D01*
X156572483Y-89783175D01*
X156737062Y-89212977D01*
X156738088Y-89208922D01*
X156864517Y-88629065D01*
X156865271Y-88624955D01*
X156952991Y-88038014D01*
X156953475Y-88033829D01*
X157002122Y-87442120D01*
X157002318Y-87438443D01*
X157012988Y-87001827D01*
X157012973Y-86998185D01*
X156993287Y-86404761D01*
X156993010Y-86400586D01*
X156934065Y-85810039D01*
X156933515Y-85805918D01*
X156835559Y-85220555D01*
X156834740Y-85216493D01*
X156698205Y-84638906D01*
X156697112Y-84634886D01*
X156522602Y-84067631D01*
X156521249Y-84063702D01*
X156309530Y-83509266D01*
X156307905Y-83505401D01*
X156059919Y-82966240D01*
X156058042Y-82962491D01*
X155774860Y-82440935D01*
X155772747Y-82437334D01*
X155455619Y-81935686D01*
X155453282Y-81932246D01*
X155103583Y-81452690D01*
X155101043Y-81449440D01*
X154720328Y-80994109D01*
X154717566Y-80991020D01*
X154559358Y-80825466D01*
X154545595Y-80817539D01*
X154544517Y-80817592D01*
X154536751Y-80822459D01*
X148372022Y-86987188D01*
X148364408Y-87001132D01*
X147634356Y-87001132D01*
X147635592Y-86998868D01*
X147635461Y-86997035D01*
X147631210Y-86990420D01*
X141463211Y-80822421D01*
X141449267Y-80814807D01*
X141447376Y-80814942D01*
X141440842Y-80819133D01*
X141431271Y-80828671D01*
X141428396Y-80831731D01*
X141036721Y-81277566D01*
X141034041Y-81280829D01*
X140672774Y-81751640D01*
X140670331Y-81755053D01*
X140341056Y-82248780D01*
X140338842Y-82252351D01*
X140043006Y-82766824D01*
X140041042Y-82770520D01*
X139779955Y-83303465D01*
X139778234Y-83307292D01*
X139553041Y-83856370D01*
X139551584Y-83860287D01*
X139363273Y-84423091D01*
X139362074Y-84427111D01*
X139211479Y-85001149D01*
X139210551Y-85005233D01*
X139098328Y-85587996D01*
X139097673Y-85592127D01*
X139024320Y-86181050D01*
X139023940Y-86185219D01*
X138989777Y-86777716D01*
X138989675Y-86781873D01*
X138383500Y-86781873D01*
X138383500Y-84151866D01*
X138376745Y-84089684D01*
X138325615Y-83953295D01*
X138238261Y-83836739D01*
X138121705Y-83749385D01*
X137985316Y-83698255D01*
X137923134Y-83691500D01*
X136076866Y-83691500D01*
X136014684Y-83698255D01*
X135878295Y-83749385D01*
X135761739Y-83836739D01*
X135674385Y-83953295D01*
X135623255Y-84089684D01*
X135616500Y-84151866D01*
X135616500Y-89848134D01*
X130421000Y-89848134D01*
X130421000Y-87921647D01*
X130441002Y-87853526D01*
X130461680Y-87830694D01*
X130461055Y-87830071D01*
X130575693Y-87715233D01*
X130580864Y-87710053D01*
X130669849Y-87565692D01*
X130679729Y-87535906D01*
X130721072Y-87411262D01*
X130721072Y-87411260D01*
X130723238Y-87404731D01*
X130733500Y-87304572D01*
X130733500Y-86695428D01*
X130730689Y-86668331D01*
X130728949Y-86651568D01*
X130722978Y-86594018D01*
X130669308Y-86433151D01*
X130580071Y-86288945D01*
X130574616Y-86283499D01*
X130460053Y-86169136D01*
X130461882Y-86167304D01*
X130427840Y-86119277D01*
X130421000Y-86078327D01*
X130421000Y-82602524D01*
X130441002Y-82534403D01*
X130453358Y-82518221D01*
X130526540Y-82436944D01*
X130622027Y-82271556D01*
X130681042Y-82089928D01*
X130682218Y-82078744D01*
X130700314Y-81906565D01*
X130701004Y-81900000D01*
X130694837Y-81841320D01*
X130681732Y-81716635D01*
X130681732Y-81716633D01*
X130681042Y-81710072D01*
X130622027Y-81528444D01*
X130526540Y-81363056D01*
X130453363Y-81281785D01*
X130422647Y-81217779D01*
X130421000Y-81197476D01*
X130421000Y-80593839D01*
X130441002Y-80525718D01*
X130457905Y-80504744D01*
X130510482Y-80452167D01*
X141815431Y-80452167D01*
X141815555Y-80453942D01*
X141819855Y-80460645D01*
X147987188Y-86627978D01*
X148001132Y-86635592D01*
X148002965Y-86635461D01*
X148009580Y-86631210D01*
X154175482Y-80465308D01*
X154183096Y-80451364D01*
X154183070Y-80450994D01*
X154177281Y-80442405D01*
X153866988Y-80158073D01*
X153863823Y-80155360D01*
X153400635Y-79784277D01*
X153397323Y-79781799D01*
X152910562Y-79442228D01*
X152907062Y-79439956D01*
X152398883Y-79133404D01*
X152395241Y-79131368D01*
X151867865Y-78859168D01*
X151864089Y-78857375D01*
X151319835Y-78620727D01*
X151315945Y-78619187D01*
X150757231Y-78419138D01*
X150753209Y-78417847D01*
X150182470Y-78255269D01*
X150178406Y-78254255D01*
X149598108Y-78129850D01*
X149594002Y-78129111D01*
X149006753Y-78043440D01*
X149002587Y-78042973D01*
X148410919Y-77996407D01*
X148406791Y-77996220D01*
X147813311Y-77988969D01*
X147809181Y-77989056D01*
X147216530Y-78021152D01*
X147212394Y-78021514D01*
X146623212Y-78092814D01*
X146619081Y-78093453D01*
X146035936Y-78203639D01*
X146031839Y-78204555D01*
X145457250Y-78353153D01*
X145453282Y-78354321D01*
X144889801Y-78540675D01*
X144885878Y-78542118D01*
X144336013Y-78765395D01*
X144332174Y-78767105D01*
X143798316Y-79026332D01*
X143794642Y-79028269D01*
X143279090Y-79322335D01*
X143275575Y-79324497D01*
X142780642Y-79652086D01*
X142777280Y-79654475D01*
X142305148Y-80014144D01*
X142301929Y-80016770D01*
X141854713Y-80406900D01*
X141851631Y-80409775D01*
X141823069Y-80438238D01*
X141815431Y-80452167D01*
X130510482Y-80452167D01*
X132121933Y-78840717D01*
X132184245Y-78806691D01*
X132236255Y-78806363D01*
X132305771Y-78820569D01*
X132376516Y-78818407D01*
X132467960Y-78815614D01*
X132467964Y-78815613D01*
X132475275Y-78815390D01*
X132482339Y-78813491D01*
X132482343Y-78813490D01*
X132631972Y-78773257D01*
X132639042Y-78771356D01*
X132742737Y-78715405D01*
X132781845Y-78694304D01*
X132781849Y-78694301D01*
X132788286Y-78690828D01*
X132867104Y-78620727D01*
X132909863Y-78582697D01*
X132909865Y-78582695D01*
X132915002Y-78578126D01*
X132973969Y-78496517D01*
X133228473Y-78055704D01*
X133276906Y-77971815D01*
X133276906Y-77971814D01*
X133278541Y-77968983D01*
X133320134Y-77875898D01*
X133354088Y-77709748D01*
X133352425Y-77655321D01*
X133370337Y-77586621D01*
X133389271Y-77562378D01*
X138567120Y-72384529D01*
X138629432Y-72350503D01*
X138659841Y-72347676D01*
X138705021Y-72348978D01*
X138743572Y-72341029D01*
X138864372Y-72316123D01*
X138864375Y-72316122D01*
X138871112Y-72314733D01*
X138877389Y-72311919D01*
X138877391Y-72311918D01*
X138914824Y-72295134D01*
X138962983Y-72273541D01*
X139490517Y-71968969D01*
X139518123Y-71948969D01*
X139567500Y-71913195D01*
X139567502Y-71913194D01*
X139573080Y-71909152D01*
X139586483Y-71894030D01*
X139680705Y-71787717D01*
X139685560Y-71782239D01*
X139765827Y-71632854D01*
X139809576Y-71469011D01*
X139809872Y-71458754D01*
X139813243Y-71341697D01*
X139814459Y-71299498D01*
X139812107Y-71288091D01*
X139800429Y-71231449D01*
X139806263Y-71160693D01*
X139834738Y-71116911D01*
X140664059Y-70287591D01*
X141493745Y-69457905D01*
X141556057Y-69423879D01*
X141582840Y-69421000D01*
X147078353Y-69421000D01*
X147146474Y-69441002D01*
X147169306Y-69461680D01*
X147169929Y-69461055D01*
X147289947Y-69580864D01*
X147434308Y-69669849D01*
X147441256Y-69672154D01*
X147441257Y-69672154D01*
X147588738Y-69721072D01*
X147588740Y-69721072D01*
X147595269Y-69723238D01*
X147695428Y-69733500D01*
X148304572Y-69733500D01*
X148307818Y-69733163D01*
X148307822Y-69733163D01*
X148341603Y-69729658D01*
X148405982Y-69722978D01*
X148566849Y-69669308D01*
X148711055Y-69580071D01*
X148830864Y-69460053D01*
X148919849Y-69315692D01*
X148923145Y-69305755D01*
X148971072Y-69161262D01*
X148971072Y-69161260D01*
X148973238Y-69154731D01*
X148983500Y-69054572D01*
X148983500Y-68520428D01*
X148982406Y-68509879D01*
X148979070Y-68477732D01*
X148972978Y-68419018D01*
X148919308Y-68258151D01*
X148830071Y-68113945D01*
X148805195Y-68089113D01*
X148771116Y-68026832D01*
X148776118Y-67956012D01*
X148805040Y-67910922D01*
X148830864Y-67885053D01*
X148832696Y-67886882D01*
X148880723Y-67852840D01*
X148921673Y-67846000D01*
X154973651Y-67846000D01*
X155041772Y-67866002D01*
G37*
%TD.AperFunction*%
%TD*%
M02*
