%TF.GenerationSoftware,KiCad,Pcbnew,(6.0.11-0)*%
%TF.CreationDate,2024-05-30T12:09:29+08:00*%
%TF.ProjectId,tinyAVR-business-card,74696e79-4156-4522-9d62-7573696e6573,rev?*%
%TF.SameCoordinates,Original*%
%TF.FileFunction,Soldermask,Top*%
%TF.FilePolarity,Negative*%
%FSLAX46Y46*%
G04 Gerber Fmt 4.6, Leading zero omitted, Abs format (unit mm)*
G04 Created by KiCad (PCBNEW (6.0.11-0)) date 2024-05-30 12:09:29*
%MOMM*%
%LPD*%
G01*
G04 APERTURE LIST*
G04 Aperture macros list*
%AMRoundRect*
0 Rectangle with rounded corners*
0 $1 Rounding radius*
0 $2 $3 $4 $5 $6 $7 $8 $9 X,Y pos of 4 corners*
0 Add a 4 corners polygon primitive as box body*
4,1,4,$2,$3,$4,$5,$6,$7,$8,$9,$2,$3,0*
0 Add four circle primitives for the rounded corners*
1,1,$1+$1,$2,$3*
1,1,$1+$1,$4,$5*
1,1,$1+$1,$6,$7*
1,1,$1+$1,$8,$9*
0 Add four rect primitives between the rounded corners*
20,1,$1+$1,$2,$3,$4,$5,0*
20,1,$1+$1,$4,$5,$6,$7,0*
20,1,$1+$1,$6,$7,$8,$9,0*
20,1,$1+$1,$8,$9,$2,$3,0*%
%AMRotRect*
0 Rectangle, with rotation*
0 The origin of the aperture is its center*
0 $1 length*
0 $2 width*
0 $3 Rotation angle, in degrees counterclockwise*
0 Add horizontal line*
21,1,$1,$2,0,0,$3*%
G04 Aperture macros list end*
%ADD10RoundRect,0.218750X-0.317568X-0.112544X0.061318X-0.331294X0.317568X0.112544X-0.061318X0.331294X0*%
%ADD11R,1.350000X2.000000*%
%ADD12RoundRect,0.062500X0.203293X0.291682X-0.291682X-0.203293X-0.203293X-0.291682X0.291682X0.203293X0*%
%ADD13RoundRect,0.062500X-0.203293X0.291682X-0.291682X0.203293X0.203293X-0.291682X0.291682X-0.203293X0*%
%ADD14RotRect,2.600000X2.600000X225.000000*%
%ADD15RoundRect,0.225000X-0.250000X0.225000X-0.250000X-0.225000X0.250000X-0.225000X0.250000X0.225000X0*%
%ADD16RoundRect,0.200000X-0.200000X-0.275000X0.200000X-0.275000X0.200000X0.275000X-0.200000X0.275000X0*%
%ADD17RoundRect,0.218750X0.331294X-0.061318X0.112544X0.317568X-0.331294X0.061318X-0.112544X-0.317568X0*%
%ADD18R,1.000000X2.000000*%
%ADD19RoundRect,0.218750X-0.256250X0.218750X-0.256250X-0.218750X0.256250X-0.218750X0.256250X0.218750X0*%
%ADD20RoundRect,0.225000X0.225000X0.250000X-0.225000X0.250000X-0.225000X-0.250000X0.225000X-0.250000X0*%
%ADD21RoundRect,0.218750X-0.218750X-0.256250X0.218750X-0.256250X0.218750X0.256250X-0.218750X0.256250X0*%
%ADD22RoundRect,0.218750X0.061318X0.331294X-0.317568X0.112544X-0.061318X-0.331294X0.317568X-0.112544X0*%
%ADD23RoundRect,0.218750X0.112544X-0.317568X0.331294X0.061318X-0.112544X0.317568X-0.331294X-0.061318X0*%
%ADD24RoundRect,0.218750X0.317568X0.112544X-0.061318X0.331294X-0.317568X-0.112544X0.061318X-0.331294X0*%
%ADD25R,1.800000X1.000000*%
%ADD26C,17.204000*%
%ADD27RoundRect,0.102000X0.875000X2.800000X-0.875000X2.800000X-0.875000X-2.800000X0.875000X-2.800000X0*%
%ADD28RoundRect,0.218750X-0.112544X0.317568X-0.331294X-0.061318X0.112544X-0.317568X0.331294X0.061318X0*%
%ADD29RoundRect,0.218750X-0.331294X0.061318X-0.112544X-0.317568X0.331294X-0.061318X0.112544X0.317568X0*%
%ADD30C,0.800000*%
%ADD31R,1.500000X2.000000*%
%ADD32RoundRect,0.218750X-0.061318X-0.331294X0.317568X-0.112544X0.061318X0.331294X-0.317568X0.112544X0*%
%ADD33RoundRect,0.218750X0.218750X0.256250X-0.218750X0.256250X-0.218750X-0.256250X0.218750X-0.256250X0*%
%ADD34RoundRect,0.218750X0.256250X-0.218750X0.256250X0.218750X-0.256250X0.218750X-0.256250X-0.218750X0*%
G04 APERTURE END LIST*
D10*
%TO.C,D10*%
X130943005Y-76972250D03*
X132306995Y-77759750D03*
%TD*%
D11*
%TO.C,SW1*%
X135200000Y-108000000D03*
X130800000Y-108000000D03*
%TD*%
D12*
%TO.C,U1*%
X108578903Y-86513864D03*
X108225349Y-86160311D03*
X107871796Y-85806757D03*
X107518243Y-85453204D03*
X107164689Y-85099651D03*
X106811136Y-84746097D03*
D13*
X105838864Y-84746097D03*
X105485311Y-85099651D03*
X105131757Y-85453204D03*
X104778204Y-85806757D03*
X104424651Y-86160311D03*
X104071097Y-86513864D03*
D12*
X104071097Y-87486136D03*
X104424651Y-87839689D03*
X104778204Y-88193243D03*
X105131757Y-88546796D03*
X105485311Y-88900349D03*
X105838864Y-89253903D03*
D13*
X106811136Y-89253903D03*
X107164689Y-88900349D03*
X107518243Y-88546796D03*
X107871796Y-88193243D03*
X108225349Y-87839689D03*
X108578903Y-87486136D03*
D14*
X106325000Y-87000000D03*
%TD*%
D15*
%TO.C,C4*%
X114000000Y-86125000D03*
X114000000Y-87675000D03*
%TD*%
D16*
%TO.C,R4*%
X119925000Y-81900000D03*
X121575000Y-81900000D03*
%TD*%
D17*
%TO.C,D11*%
X138753750Y-71301995D03*
X137966250Y-69938005D03*
%TD*%
D16*
%TO.C,R2*%
X119925000Y-88700000D03*
X121575000Y-88700000D03*
%TD*%
D18*
%TO.C,J1*%
X120970000Y-71842500D03*
X118430000Y-71842500D03*
X115890000Y-71842500D03*
X113350000Y-71842500D03*
X110810000Y-71842500D03*
X108270000Y-71842500D03*
X105730000Y-71842500D03*
X103190000Y-71842500D03*
X100650000Y-71842500D03*
X98110000Y-71842500D03*
X95570000Y-71842500D03*
X93030000Y-71842500D03*
%TD*%
D16*
%TO.C,R3*%
X119925000Y-85300000D03*
X121575000Y-85300000D03*
%TD*%
%TO.C,R1*%
X119925000Y-92100000D03*
X121575000Y-92100000D03*
%TD*%
D19*
%TO.C,D12*%
X148000000Y-67212500D03*
X148000000Y-68787500D03*
%TD*%
D20*
%TO.C,C1*%
X98675000Y-88250000D03*
X97125000Y-88250000D03*
%TD*%
D21*
%TO.C,D3*%
X166212500Y-87000000D03*
X167787500Y-87000000D03*
%TD*%
D22*
%TO.C,D2*%
X165051995Y-76966250D03*
X163688005Y-77753750D03*
%TD*%
D23*
%TO.C,D1*%
X157206250Y-71281995D03*
X157993750Y-69918005D03*
%TD*%
D11*
%TO.C,SW2*%
X165200000Y-108000000D03*
X160800000Y-108000000D03*
%TD*%
D24*
%TO.C,D4*%
X165051995Y-97023750D03*
X163688005Y-96236250D03*
%TD*%
D25*
%TO.C,Y1*%
X100700000Y-88250000D03*
X100700000Y-85750000D03*
%TD*%
D26*
%TO.C,BT1*%
X148000000Y-87000000D03*
D27*
X159000000Y-87000000D03*
X137000000Y-87000000D03*
%TD*%
D28*
%TO.C,D7*%
X138763750Y-102688005D03*
X137976250Y-104051995D03*
%TD*%
D29*
%TO.C,D5*%
X157206250Y-102818005D03*
X157993750Y-104181995D03*
%TD*%
D30*
%TO.C,SW3*%
X129250000Y-64250000D03*
X126250000Y-64250000D03*
D31*
X130250000Y-67000000D03*
X127750000Y-67000000D03*
X125250000Y-67000000D03*
%TD*%
D15*
%TO.C,C3*%
X112400000Y-86125000D03*
X112400000Y-87675000D03*
%TD*%
D32*
%TO.C,D8*%
X130938005Y-97023750D03*
X132301995Y-96236250D03*
%TD*%
D33*
%TO.C,D9*%
X129787500Y-87000000D03*
X128212500Y-87000000D03*
%TD*%
D18*
%TO.C,J2*%
X93030000Y-102257500D03*
X95570000Y-102257500D03*
X98110000Y-102257500D03*
X100650000Y-102257500D03*
X103190000Y-102257500D03*
X105730000Y-102257500D03*
X108270000Y-102257500D03*
X110810000Y-102257500D03*
X113350000Y-102257500D03*
X115890000Y-102257500D03*
X118430000Y-102257500D03*
X120970000Y-102257500D03*
%TD*%
D34*
%TO.C,D6*%
X148000000Y-106787500D03*
X148000000Y-105212500D03*
%TD*%
D20*
%TO.C,C2*%
X98675000Y-85650000D03*
X97125000Y-85650000D03*
%TD*%
M02*
